SplineFontDB: 3.2
FontName: YuhaoSongti
FullName: YuhaoSongti
FamilyName: YuhaoSongti
Weight: Book
Copyright: 
Version: 1.00;March 29, 2023;FontCreator 13.0.0.2613 64-bit
ItalicAngle: 0
UnderlinePosition: 0
UnderlineWidth: 0
Ascent: 960
Descent: 64
InvalidEm: 0
sfntRevision: 0x00010000
LayerCount: 2
Layer: 0 1 "Back" 1
Layer: 1 1 "Fore" 0
XUID: [1021 792 953629758 9642]
StyleMap: 0x0040
FSType: 0
OS2Version: 4
OS2_WeightWidthSlopeOnly: 1
OS2_UseTypoMetrics: 0
CreationTime: 1680009540
ModificationTime: 1680281338
PfmFamily: 81
TTFWeight: 400
TTFWidth: 5
LineGap: 0
VLineGap: 0
Panose: 0 0 0 0 0 0 0 0 0 0
OS2TypoAscent: 960
OS2TypoAOffset: 0
OS2TypoDescent: -64
OS2TypoDOffset: 0
OS2TypoLinegap: 64
OS2WinAscent: 960
OS2WinAOffset: 0
OS2WinDescent: 64
OS2WinDOffset: 0
HheadAscent: 960
HheadAOffset: 0
HheadDescent: -64
HheadDOffset: 0
OS2SubXSize: 665
OS2SubYSize: 716
OS2SubXOff: 0
OS2SubYOff: 143
OS2SupXSize: 665
OS2SupYSize: 716
OS2SupXOff: 0
OS2SupYOff: 491
OS2StrikeYSize: 51
OS2StrikeYPos: 265
OS2CapHeight: 700
OS2XHeight: 464
OS2Vendor: 'PfEd'
OS2CodePages: 00000001.00000000
OS2UnicodeRanges: 00000001.10000000.00000000.00000000
MarkAttachClasses: 1
DEI: 91125
ShortTable: maxp 16
  1
  0
  411
  263
  10
  0
  0
  2
  0
  0
  0
  0
  0
  0
  0
  0
EndShort
LangName: 1033 "" "" "Regular" "" "" "Version 1.00;March 29, 2023;FontCreator 13.0.0.2613 64-bit" "" "" "" "" "Font generated by IcoMoon."
Encoding: UnicodeBmp
UnicodeInterp: none
NameList: AGL For New Fonts
DisplaySize: -96
AntiAlias: 1
FitToEm: 0
WinInfo: 57776 16 12
BeginPrivate: 0
EndPrivate
BeginChars: 65537 369

StartChar: uniE000
Encoding: 57344 57344 1
Width: 654
Flags: W
LayerCount: 2
Fore
SplineSet
183 262 m 1,0,1
 210 286 210 286 242.5 306 c 128,-1,2
 275 326 275 326 311 340 c 1,3,-1
 312 341 l 1,4,-1
 312 82 l 2,5,6
 312 62 312 62 306 53 c 128,-1,7
 300 44 300 44 287 43 c 0,8,9
 257 44 257 44 228.5 48.5 c 128,-1,10
 200 53 200 53 171 61 c 1,11,-1
 176 59 l 1,12,-1
 176 41 l 1,13,14
 231 17 231 17 259 -5.5 c 128,-1,15
 287 -28 287 -28 287 -49 c 1,16,17
 324 -35 324 -35 343 -12.5 c 128,-1,18
 362 10 362 10 363 38 c 2,19,-1
 363 362 l 1,20,-1
 510 442 l 1,21,-1
 504 457 l 1,22,-1
 363 397 l 1,23,-1
 363 565 l 1,24,-1
 519 565 l 1,25,-1
 458 626 l 1,26,-1
 417 587 l 1,27,-1
 363 587 l 1,28,-1
 363 724 l 1,29,-1
 392 749 l 1,30,-1
 309 785 l 1,31,32
 309 740 309 740 310.5 690.5 c 128,-1,33
 312 641 312 641 312 589 c 1,34,-1
 135 589 l 1,35,-1
 165 559 l 1,36,-1
 204 566 l 1,37,-1
 312 566 l 1,38,-1
 312 383 l 1,39,40
 275 367 275 367 231.5 353.5 c 128,-1,41
 188 340 188 340 143 329 c 1,42,-1
 135 328 l 1,43,-1
 183 262 l 1,0,1
EndSplineSet
Validated: 9
EndChar

StartChar: uniE001
Encoding: 57345 57345 2
Width: 961
Flags: W
LayerCount: 2
Fore
SplineSet
446 233 m 1,0,1
 329 233 329 233 265 232.5 c 128,-1,2
 201 232 201 232 191 229 c 2,3,-1
 156 221 l 1,4,-1
 135 257 l 1,5,-1
 446 257 l 1,6,-1
 446 500 l 1,7,8
 435 500 435 500 424 500 c 128,-1,9
 413 500 413 500 402 500 c 0,10,11
 369 500 369 500 337 499.5 c 128,-1,12
 305 499 305 499 273 496 c 1,13,-1
 279 496 l 1,14,15
 267 494 267 494 257.5 491 c 128,-1,16
 248 488 248 488 237 485 c 1,17,-1
 240 485 l 1,18,-1
 218 521 l 1,19,-1
 446 521 l 1,20,-1
 446 821 l 1,21,-1
 518 791 l 1,22,23
 513 784 513 784 509.5 775.5 c 128,-1,24
 506 767 506 767 503 758 c 1,25,-1
 501 757 l 1,26,27
 500 751 500 751 499 745 c 128,-1,28
 498 739 498 739 498 731 c 2,29,-1
 495 724 l 1,30,-1
 495 521 l 1,31,-1
 630 521 l 1,32,-1
 677 565 l 1,33,-1
 738 500 l 1,34,-1
 497 500 l 1,35,-1
 497 257 l 1,36,-1
 710 257 l 1,37,-1
 759 301 l 1,38,-1
 827 236 l 1,39,-1
 497 236 l 1,40,-1
 501 -56 l 1,41,-1
 476 -74 l 2,42,43
 471 -80 471 -80 464.5 -82.5 c 128,-1,44
 458 -85 458 -85 449 -85 c 2,45,46
 449 -85 449 -85 447 -85 c 2,47,-1
 446 233 l 1,0,1
EndSplineSet
Validated: 5
EndChar

StartChar: uniE002
Encoding: 57346 57346 3
Width: 1099
Flags: W
LayerCount: 2
Fore
SplineSet
576 -29 m 1,0,1
 573 -13 573 -13 572.5 6.5 c 128,-1,2
 572 26 572 26 570 46 c 2,3,-1
 570 274 l 1,4,-1
 965 274 l 1,5,-1
 894 349 l 1,6,-1
 836 299 l 1,7,-1
 570 299 l 1,8,-1
 570 535 l 1,9,-1
 903 535 l 1,10,-1
 839 607 l 1,11,-1
 780 560 l 1,12,-1
 570 560 l 1,13,-1
 570 730 l 1,14,-1
 600 758 l 1,15,-1
 509 799 l 1,16,17
 512 778 512 778 512.5 718.5 c 128,-1,18
 513 659 513 659 513 560 c 1,19,-1
 177 560 l 1,20,-1
 213 523 l 1,21,22
 233 529 233 529 256 532 c 128,-1,23
 279 535 279 535 303 535 c 2,24,25
 303 535 303 535 304.5 535 c 128,-1,26
 306 535 306 535 308 535 c 2,27,-1
 513 535 l 1,28,-1
 513 299 l 1,29,-1
 222 299 l 1,30,31
 230 320 230 320 243.5 357 c 128,-1,32
 257 394 257 394 276 446 c 1,33,-1
 305 464 l 1,34,-1
 227 509 l 1,35,36
 219 454 219 454 203.5 404.5 c 128,-1,37
 188 355 188 355 167 308 c 1,38,-1
 168 313 l 1,39,-1
 135 290 l 1,40,-1
 185 236 l 1,41,-1
 221 275 l 1,42,-1
 513 275 l 1,43,-1
 513 19 l 2,44,45
 513 -1 513 -1 513 -20.5 c 128,-1,46
 513 -40 513 -40 510 -61 c 1,47,-1
 576 -29 l 1,0,1
EndSplineSet
Validated: 9
EndChar

StartChar: uniE004
Encoding: 57348 57348 4
Width: 1125
Flags: W
LayerCount: 2
Fore
SplineSet
135 325 m 1,0,-1
 183 299 l 1,1,2
 200 311 200 311 218.5 319.5 c 128,-1,3
 237 328 237 328 260 332 c 2,4,-1
 495 389 l 1,5,-1
 495 61 l 2,6,7
 495 22 495 22 519 1 c 128,-1,8
 543 -20 543 -20 596 -22 c 2,9,-1
 863 -22 l 2,10,11
 915 -22 915 -22 946.5 -9 c 128,-1,12
 978 4 978 4 990 32 c 1,13,14
 969 35 969 35 957 51 c 128,-1,15
 945 67 945 67 941 94 c 0,16,17
 935 121 935 121 933.5 156 c 128,-1,18
 932 191 932 191 930 235 c 1,19,-1
 912 235 l 1,20,21
 911 202 911 202 908 167.5 c 128,-1,22
 905 133 905 133 902 95 c 0,23,24
 897 58 897 58 885 40.5 c 128,-1,25
 873 23 873 23 852 25 c 2,26,-1
 620 25 l 2,27,28
 582 25 582 25 563.5 39 c 128,-1,29
 545 53 545 53 546 83 c 2,30,-1
 546 404 l 1,31,-1
 966 509 l 1,32,-1
 882 559 l 1,33,-1
 843 500 l 1,34,-1
 548 425 l 1,35,-1
 548 692 l 1,36,-1
 581 719 l 1,37,-1
 491 758 l 1,38,39
 495 679 495 679 495 413 c 1,40,-1
 135 325 l 1,0,-1
EndSplineSet
Validated: 41
EndChar

StartChar: uniE005
Encoding: 57349 57349 5
Width: 990
Flags: W
LayerCount: 2
Fore
SplineSet
407 601 m 1,0,1
 393 557 393 557 378 519.5 c 128,-1,2
 363 482 363 482 345 446 c 1,3,-1
 348 454 l 1,4,-1
 135 454 l 1,5,-1
 168 421 l 1,6,7
 183 425 183 425 200.5 428 c 128,-1,8
 218 431 218 431 237 431 c 2,9,-1
 342 431 l 1,10,11
 320 385 320 385 299.5 346 c 128,-1,12
 279 307 279 307 258 271 c 1,13,-1
 263 278 l 1,14,15
 248 251 248 251 227.5 228.5 c 128,-1,16
 207 206 207 206 182 190 c 1,17,-1
 237 136 l 1,18,-1
 273 172 l 1,19,-1
 812 172 l 1,20,-1
 743 248 l 1,21,-1
 693 193 l 1,22,-1
 273 193 l 1,23,-1
 407 431 l 1,24,-1
 855 431 l 1,25,-1
 786 503 l 1,26,-1
 732 454 l 1,27,-1
 411 454 l 1,28,29
 435 502 435 502 454 528 c 128,-1,30
 473 554 473 554 486 556 c 1,31,-1
 407 601 l 1,0,1
EndSplineSet
Validated: 9
EndChar

StartChar: uniE006
Encoding: 57350 57350 6
Width: 705
Flags: W
LayerCount: 2
Fore
SplineSet
135 425 m 1,0,-1
 171 401 l 1,1,-1
 198 412 l 1,2,-1
 291 425 l 1,3,-1
 291 130 l 2,4,5
 291 128 291 128 291 126 c 128,-1,6
 291 124 291 124 291 122 c 0,7,8
 291 107 291 107 286.5 94.5 c 128,-1,9
 282 82 282 82 275 71 c 1,10,-1
 321 14 l 1,11,12
 372 74 372 74 427.5 126.5 c 128,-1,13
 483 179 483 179 545 224 c 2,14,-1
 549 227 l 1,15,-1
 542 242 l 1,16,-1
 345 109 l 1,17,-1
 345 437 l 1,18,-1
 570 473 l 1,19,-1
 498 530 l 1,20,-1
 458 476 l 1,21,-1
 342 458 l 1,22,-1
 342 655 l 1,23,-1
 372 683 l 1,24,-1
 288 722 l 1,25,26
 290 685 290 685 290.5 646 c 128,-1,27
 291 607 291 607 291 563 c 2,28,-1
 291 446 l 1,29,-1
 135 425 l 1,0,-1
EndSplineSet
Validated: 9
EndChar

StartChar: uniE009
Encoding: 57353 57353 7
Width: 1095
Flags: W
LayerCount: 2
Fore
SplineSet
185 670 m 1,0,1
 203 674 203 674 224 677 c 128,-1,2
 245 680 245 680 267 680 c 0,3,4
 269 680 269 680 270.5 680 c 128,-1,5
 272 680 272 680 273 680 c 2,6,-1
 395 680 l 1,7,8
 396 668 396 668 396 653 c 128,-1,9
 396 638 396 638 396 623 c 0,10,11
 396 527 396 527 382.5 435.5 c 128,-1,12
 369 344 369 344 344 259 c 1,13,-1
 345 268 l 1,14,15
 312 182 312 182 259 113 c 128,-1,16
 206 44 206 44 138 -8 c 1,17,-1
 135 -10 l 1,18,-1
 143 -20 l 1,19,20
 224 25 224 25 287 91.5 c 128,-1,21
 350 158 350 158 389 241 c 1,22,-1
 390 244 l 2,23,24
 417 326 417 326 432 419 c 128,-1,25
 447 512 447 512 447 610 c 0,26,27
 447 629 447 629 446.5 647 c 128,-1,28
 446 665 446 665 446 683 c 1,29,-1
 446 680 l 1,30,-1
 666 680 l 1,31,-1
 666 185 l 2,32,33
 666 149 666 149 666 96.5 c 128,-1,34
 666 44 666 44 663 -20 c 1,35,-1
 725 8 l 1,36,37
 725 34 725 34 722.5 61.5 c 128,-1,38
 720 89 720 89 720 121 c 2,39,-1
 720 680 l 1,40,-1
 960 680 l 1,41,-1
 882 757 l 1,42,-1
 828 703 l 1,43,-1
 152 703 l 1,44,-1
 185 670 l 1,0,1
EndSplineSet
EndChar

StartChar: uniE00B
Encoding: 57355 57355 8
Width: 1084
Flags: W
LayerCount: 2
Fore
SplineSet
792 769 m 1,0,-1
 744 719 l 1,1,-1
 243 719 l 1,2,-1
 276 688 l 1,3,4
 297 692 297 692 320.5 695 c 128,-1,5
 344 698 344 698 368 698 c 0,6,7
 369 698 369 698 371.5 698 c 128,-1,8
 374 698 374 698 375 698 c 2,9,-1
 867 698 l 1,10,-1
 792 769 l 1,0,-1
168 463 m 1,11,12
 188 467 188 467 209 470 c 128,-1,13
 230 473 230 473 252 473 c 0,14,15
 254 473 254 473 255 473 c 2,16,-1
 528 473 l 1,17,-1
 528 109 l 2,18,19
 528 83 528 83 520.5 70.5 c 128,-1,20
 513 58 513 58 498 55 c 0,21,22
 462 56 462 56 427.5 60 c 128,-1,23
 393 64 393 64 359 70 c 1,24,-1
 365 68 l 1,25,-1
 365 50 l 1,26,27
 429 35 429 35 463 15 c 128,-1,28
 497 -5 497 -5 498 -32 c 1,29,30
 536 -28 536 -28 560.5 0.5 c 128,-1,31
 585 29 585 29 585 68 c 1,32,33
 585 68 585 68 585 68 c 1,34,-1
 585 473 l 1,35,-1
 950 473 l 1,36,-1
 872 550 l 1,37,-1
 818 496 l 1,38,-1
 135 496 l 1,39,-1
 168 463 l 1,11,12
EndSplineSet
Validated: 5
EndChar

StartChar: uniE00C
Encoding: 57356 57356 9
Width: 1077
Flags: W
LayerCount: 2
Fore
SplineSet
411 422 m 1,0,1
 435 391 435 391 454 354 c 128,-1,2
 473 317 473 317 483 275 c 0,3,4
 486 253 486 253 492 242.5 c 128,-1,5
 498 232 498 232 504 232 c 0,6,7
 512 232 512 232 514 237 c 128,-1,8
 516 242 516 242 525 253 c 0,9,10
 533 262 533 262 536.5 273 c 128,-1,11
 540 284 540 284 542 296 c 0,12,13
 540 313 540 313 533.5 327 c 128,-1,14
 527 341 527 341 516 352 c 0,15,16
 494 374 494 374 470 393.5 c 128,-1,17
 446 413 446 413 417 430 c 1,18,-1
 411 422 l 1,0,1
281 -26 m 1,19,20
 305 8 305 8 368.5 59 c 128,-1,21
 432 110 432 110 537 176 c 1,22,-1
 527 187 l 1,23,-1
 306 71 l 1,24,-1
 378 509 l 1,25,-1
 624 509 l 1,26,27
 603 173 603 173 597 86 c 0,28,29
 596 43 596 43 610 20.5 c 128,-1,30
 624 -2 624 -2 657 -4 c 2,31,-1
 864 -4 l 2,32,33
 890 -2 890 -2 911 13.5 c 128,-1,34
 932 29 932 29 942 52 c 1,35,36
 924 55 924 55 911.5 68.5 c 128,-1,37
 899 82 899 82 896 100 c 0,38,39
 891 125 891 125 889 154.5 c 128,-1,40
 887 184 887 184 887 214 c 0,41,42
 887 220 887 220 887 226 c 128,-1,43
 887 232 887 232 888 236 c 1,44,-1
 869 236 l 1,45,46
 866 151 866 151 860 101 c 0,47,48
 858 77 858 77 850 62 c 128,-1,49
 842 47 842 47 830 44 c 2,50,-1
 689 44 l 2,51,52
 669 44 669 44 661 61.5 c 128,-1,53
 653 79 653 79 656 113 c 0,54,55
 659 146 659 146 663.5 240.5 c 128,-1,56
 668 335 668 335 674 491 c 1,57,-1
 707 518 l 1,58,-1
 650 566 l 1,59,-1
 617 530 l 1,60,-1
 381 530 l 1,61,-1
 407 686 l 1,62,-1
 903 686 l 1,63,-1
 833 763 l 1,64,-1
 776 709 l 1,65,-1
 135 709 l 1,66,-1
 168 676 l 1,67,68
 186 680 186 680 207 683 c 128,-1,69
 228 686 228 686 251 686 c 0,70,71
 254 686 254 686 255 686 c 2,72,-1
 348 686 l 1,73,74
 269 166 269 166 257 109 c 0,75,76
 251 79 251 79 243.5 62.5 c 128,-1,77
 236 46 236 46 227 43 c 1,78,-1
 281 -26 l 1,19,20
EndSplineSet
Validated: 41
EndChar

StartChar: uniE020
Encoding: 57376 57376 10
Width: 1026
Flags: W
LayerCount: 2
Fore
SplineSet
135 -16 m 1,0,-1
 143 -26 l 1,1,2
 219 10 219 10 285 55 c 128,-1,3
 351 100 351 100 407 155 c 1,4,-1
 446 163 l 1,5,-1
 378 227 l 1,6,7
 330 154 330 154 269.5 94 c 128,-1,8
 209 34 209 34 138 -13 c 1,9,-1
 135 -16 l 1,0,-1
573 724 m 1,10,-1
 497 787 l 1,11,12
 473 742 473 742 443.5 703 c 128,-1,13
 414 664 414 664 380 631 c 1,14,15
 356 599 356 599 323.5 576 c 128,-1,16
 291 553 291 553 254 539 c 2,17,-1
 251 538 l 1,18,-1
 287 463 l 1,19,20
 311 476 311 476 338.5 484.5 c 128,-1,21
 366 493 366 493 398 496 c 0,22,23
 429 500 429 500 466.5 504 c 128,-1,24
 504 508 504 508 542 511 c 2,25,-1
 545 511 l 1,26,27
 497 470 497 470 443 431 c 128,-1,28
 389 392 389 392 332 358 c 2,29,-1
 323 353 l 2,30,31
 302 338 302 338 275.5 328.5 c 128,-1,32
 249 319 249 319 221 316 c 1,33,-1
 257 236 l 1,34,35
 279 245 279 245 305.5 252.5 c 128,-1,36
 332 260 332 260 360 265 c 1,37,-1
 363 265 l 1,38,39
 401 272 401 272 442 277.5 c 128,-1,40
 483 283 483 283 527 286 c 1,41,-1
 527 77 l 2,42,43
 527 59 527 59 523 49.5 c 128,-1,44
 519 40 519 40 510 38 c 0,45,46
 503 38 503 38 470.5 39.5 c 128,-1,47
 438 41 438 41 383 47 c 1,48,-1
 383 34 l 1,49,50
 443 19 443 19 471.5 -3 c 128,-1,51
 500 -25 500 -25 498 -53 c 1,52,53
 534 -50 534 -50 559 -23 c 128,-1,54
 584 4 584 4 584 41 c 0,55,56
 584 44 584 44 584 47 c 128,-1,57
 584 50 584 50 582 53 c 2,58,-1
 582 292 l 1,59,-1
 785 311 l 1,60,61
 794 296 794 296 803.5 279.5 c 128,-1,62
 813 263 813 263 822 245 c 1,63,-1
 825 242 l 2,64,65
 828 235 828 235 832.5 231 c 128,-1,66
 837 227 837 227 843 227 c 0,67,68
 848 227 848 227 852.5 231 c 128,-1,69
 857 235 857 235 863 244 c 0,70,71
 867 253 867 253 870 262.5 c 128,-1,72
 873 272 873 272 873 283 c 0,73,74
 873 286 873 286 873 288 c 128,-1,75
 873 290 873 290 873 293 c 0,76,77
 873 310 873 310 859.5 328 c 128,-1,78
 846 346 846 346 821 364 c 0,79,80
 797 382 797 382 759.5 404.5 c 128,-1,81
 722 427 722 427 674 454 c 1,82,-1
 663 443 l 1,83,84
 693 418 693 418 719.5 390 c 128,-1,85
 746 362 746 362 770 332 c 1,86,-1
 771 331 l 1,87,88
 719 329 719 329 664 327 c 128,-1,89
 609 325 609 325 552 322 c 256,90,91
 495 319 495 319 438 316 c 128,-1,92
 381 313 381 313 323 310 c 1,93,94
 398 355 398 355 462.5 400.5 c 128,-1,95
 527 446 527 446 587 494 c 1,96,-1
 582 491 l 1,97,98
 633 530 633 530 673 561 c 128,-1,99
 713 592 713 592 741 614 c 1,100,-1
 789 625 l 1,101,-1
 722 689 l 1,102,103
 687 646 687 646 649.5 607.5 c 128,-1,104
 612 569 612 569 572 536 c 1,105,-1
 569 535 l 1,106,-1
 320 530 l 1,107,108
 371 572 371 572 421 618 c 128,-1,109
 471 664 471 664 522 715 c 1,110,-1
 573 724 l 1,10,-1
635 203 m 1,111,112
 675 175 675 175 711 145.5 c 128,-1,113
 747 116 747 116 780 85 c 0,114,115
 798 67 798 67 814.5 46.5 c 128,-1,116
 831 26 831 26 846 5 c 1,117,-1
 848 4 l 1,118,119
 855 -7 855 -7 860.5 -13 c 128,-1,120
 866 -19 866 -19 869 -19 c 0,121,122
 873 -19 873 -19 877 -14.5 c 128,-1,123
 881 -10 881 -10 884 -1 c 256,124,125
 887 8 887 8 889 18 c 128,-1,126
 891 28 891 28 891 38 c 2,127,128
 891 38 891 38 891 40 c 1,129,130
 891 40 891 40 891 40 c 1,131,132
 891 49 891 49 889.5 58 c 128,-1,133
 888 67 888 67 885 74 c 0,134,135
 876 88 876 88 864 99 c 128,-1,136
 852 110 852 110 836 119 c 0,137,138
 797 142 797 142 751 166 c 128,-1,139
 705 190 705 190 656 212 c 2,140,-1
 642 218 l 1,141,-1
 635 203 l 1,111,112
EndSplineSet
Validated: 37
EndChar

StartChar: uniE022
Encoding: 57378 57378 11
Width: 1111
Flags: W
LayerCount: 2
Fore
SplineSet
762 709 m 1,0,1
 729 587 729 587 679 480.5 c 128,-1,2
 629 374 629 374 563 281 c 1,3,-1
 566 284 l 1,4,5
 495 373 495 373 445.5 478.5 c 128,-1,6
 396 584 396 584 375 703 c 2,7,-1
 374 709 l 1,8,-1
 762 709 l 1,0,1
252 697 m 1,9,10
 272 703 272 703 293.5 706 c 128,-1,11
 315 709 315 709 338 709 c 0,12,13
 339 709 339 709 339 709 c 1,14,-1
 357 709 l 1,15,16
 368 643 368 643 384 581 c 0,17,18
 401 520 401 520 424 462 c 128,-1,19
 447 404 447 404 476 350 c 0,20,21
 506 296 506 296 540 247 c 1,22,-1
 539 250 l 1,23,24
 497 206 497 206 450 169 c 0,25,26
 405 130 405 130 355.5 97 c 128,-1,27
 306 64 306 64 252 35 c 0,28,29
 200 7 200 7 143 -16 c 2,30,-1
 135 -19 l 1,31,-1
 140 -29 l 1,32,33
 201 -11 201 -11 260 13 c 0,34,35
 318 38 318 38 371.5 69 c 128,-1,36
 425 100 425 100 473 137 c 0,37,38
 522 175 522 175 566 217 c 1,39,40
 633 143 633 143 716.5 86 c 128,-1,41
 800 29 800 29 896 -5 c 2,42,-1
 902 -7 l 1,43,44
 906 13 906 13 925.5 26.5 c 128,-1,45
 945 40 945 40 977 47 c 1,46,-1
 977 61 l 1,47,48
 927 65 927 65 880 78.5 c 128,-1,49
 833 92 833 92 789 112 c 1,50,-1
 794 110 l 1,51,52
 735 136 735 136 686.5 169.5 c 128,-1,53
 638 203 638 203 596 245 c 1,54,55
 629 292 629 292 659 344 c 0,56,57
 689 395 689 395 715 449 c 128,-1,58
 741 503 741 503 765 560 c 0,59,60
 788 617 788 617 806 676 c 2,61,-1
 809 688 l 1,62,-1
 842 713 l 1,63,-1
 785 763 l 1,64,-1
 755 727 l 1,65,-1
 221 727 l 1,66,-1
 252 697 l 1,9,10
EndSplineSet
Validated: 5
EndChar

StartChar: uniE023
Encoding: 57379 57379 12
Width: 1098
Flags: W
LayerCount: 2
Fore
SplineSet
563 604 m 1,0,1
 585 526 585 526 618 457.5 c 128,-1,2
 651 389 651 389 692 328 c 1,3,-1
 690 332 l 1,4,5
 728 280 728 280 776.5 240 c 128,-1,6
 825 200 825 200 884 175 c 1,7,-1
 887 173 l 1,8,9
 893 199 893 199 913 214.5 c 128,-1,10
 933 230 933 230 960 230 c 2,11,12
 960 230 960 230 961.5 230 c 128,-1,13
 963 230 963 230 963 230 c 1,14,-1
 963 256 l 1,15,16
 935 257 935 257 908 263 c 128,-1,17
 881 269 881 269 858 278 c 0,18,19
 828 290 828 290 800.5 306 c 128,-1,20
 773 322 773 322 750 340 c 1,21,22
 776 359 776 359 798.5 377 c 128,-1,23
 821 395 821 395 840 415 c 0,24,25
 854 430 854 430 870.5 439.5 c 128,-1,26
 887 449 887 449 906 455 c 1,27,-1
 845 512 l 1,28,29
 819 467 819 467 791.5 427.5 c 128,-1,30
 764 388 764 388 732 353 c 1,31,32
 710 376 710 376 691 400.5 c 128,-1,33
 672 425 672 425 657 452 c 1,34,-1
 656 455 l 1,35,36
 687 475 687 475 712 492 c 128,-1,37
 737 509 737 509 755 523 c 0,38,39
 768 535 768 535 784.5 543 c 128,-1,40
 801 551 801 551 821 556 c 1,41,-1
 762 620 l 1,42,43
 741 577 741 577 713.5 538.5 c 128,-1,44
 686 500 686 500 651 470 c 2,45,-1
 650 469 l 1,46,47
 632 499 632 499 614.5 532 c 128,-1,48
 597 565 597 565 584 601 c 1,49,-1
 581 607 l 1,50,-1
 563 604 l 1,0,1
551 542 m 1,51,-1
 501 625 l 1,52,-1
 465 581 l 1,53,-1
 204 581 l 1,54,-1
 237 542 l 1,55,56
 254 547 254 547 275.5 551.5 c 128,-1,57
 297 556 297 556 318 559 c 2,58,-1
 323 560 l 1,59,-1
 467 560 l 1,60,61
 443 493 443 493 410 431 c 0,62,63
 377 371 377 371 335 317 c 128,-1,64
 293 263 293 263 243 217 c 0,65,66
 194 170 194 170 138 131 c 1,67,-1
 135 130 l 1,68,-1
 143 112 l 1,69,70
 204 145 204 145 260 187 c 0,71,72
 315 230 315 230 361.5 280.5 c 128,-1,73
 408 331 408 331 446 389 c 0,74,75
 482 448 482 448 509 511 c 1,76,-1
 510 517 l 1,77,-1
 551 542 l 1,51,-1
294 389 m 1,78,79
 300 374 300 374 305.5 366 c 128,-1,80
 311 358 311 358 317 358 c 0,81,82
 321 358 321 358 323.5 363 c 128,-1,83
 326 368 326 368 330 379 c 0,84,85
 335 388 335 388 338 397.5 c 128,-1,86
 341 407 341 407 341 419 c 0,87,88
 341 433 341 433 334 443.5 c 128,-1,89
 327 454 327 454 317 460 c 0,90,91
 299 473 299 473 278.5 484.5 c 128,-1,92
 258 496 258 496 236 505 c 2,93,-1
 233 506 l 1,94,-1
 225 491 l 1,95,96
 246 470 246 470 264 445.5 c 128,-1,97
 282 421 282 421 294 392 c 1,98,-1
 294 389 l 1,78,79
EndSplineSet
Validated: 9
EndChar

StartChar: uniE024
Encoding: 57380 57380 13
Width: 1015
Flags: W
LayerCount: 2
Fore
SplineSet
849 637 m 1,0,-1
 881 667 l 1,1,-1
 819 716 l 1,2,-1
 788 676 l 1,3,-1
 152 676 l 1,4,-1
 183 643 l 1,5,6
 203 649 203 649 224.5 651 c 128,-1,7
 246 653 246 653 269 653 c 0,8,9
 270 653 270 653 270 653 c 1,10,-1
 794 653 l 1,11,-1
 794 136 l 1,12,-1
 135 136 l 1,13,-1
 170 101 l 1,14,15
 188 107 188 107 209.5 110 c 128,-1,16
 231 113 231 113 254 113 c 0,17,18
 255 113 255 113 257 113 c 2,19,-1
 794 113 l 1,20,-1
 794 23 l 1,21,-1
 852 49 l 1,22,23
 852 76 852 76 850.5 120 c 128,-1,24
 849 164 849 164 849 226 c 2,25,-1
 849 637 l 1,0,-1
EndSplineSet
Validated: 9
EndChar

StartChar: uniE025
Encoding: 57381 57381 14
Width: 744
Flags: W
LayerCount: 2
Fore
SplineSet
612.528320312 139.409179688 m 4,0,1
 633.446289062 102.831054688 633.446289062 102.831054688 648.087890625 82.7998046875 c 132,-1,2
 662.731445312 62.7705078125 662.731445312 62.7705078125 672.493164062 62.7705078125 c 4,3,4
 683.6484375 62.7705078125 683.6484375 62.7705078125 684.345703125 70.607421875 c 132,-1,5
 685.043945312 78.4453125 685.043945312 78.4453125 689.227539062 92.380859375 c 4,6,7
 693.411132812 102.831054688 693.411132812 102.831054688 695.502929688 114.153320312 c 132,-1,8
 697.594726562 125.473632812 697.594726562 125.473632812 697.594726562 139.409179688 c 4,9,10
 697.594726562 155.0859375 697.594726562 155.0859375 694.805664062 168.1484375 c 132,-1,11
 692.015625 181.212890625 692.015625 181.212890625 687.833007812 193.40625 c 4,12,13
 683.6484375 209.081054688 683.6484375 209.081054688 663.428710938 229.112304688 c 132,-1,14
 643.208007812 249.143554688 643.208007812 249.143554688 612.528320312 271.787109375 c 4,15,16
 570.692382812 297.9140625 570.692382812 297.9140625 521.1875 323.169921875 c 132,-1,17
 471.681640625 348.426757812 471.681640625 348.426757812 420.083984375 369.329101562 c 5,18,-1
 408.927734375 371.0703125 l 5,19,20
 434.029296875 412.874023438 434.029296875 412.874023438 470.984375 475.578125 c 132,-1,21
 507.938476562 538.284179688 507.938476562 538.284179688 555.353515625 625.374023438 c 5,22,-1
 601.372070312 642.79296875 l 5,23,-1
 521.884765625 745.560546875 l 5,24,-1
 470.287109375 674.146484375 l 5,25,-1
 111.89453125 674.146484375 l 5,26,-1
 157.913085938 616.666015625 l 5,27,28
 178.830078125 627.116210938 178.830078125 627.116210938 203.235351562 631.471679688 c 132,-1,29
 227.639648438 635.826171875 227.639648438 635.826171875 254.135742188 637.567382812 c 6,30,-1
 475.865234375 637.567382812 l 5,31,32
 396.375976562 452.934570312 396.375976562 452.934570312 286.907226562 302.26953125 c 132,-1,33
 177.436523438 151.602539062 177.436523438 151.602539062 43.5625 40.125 c 5,34,-1
 36.5888671875 36.6416015625 l 5,35,-1
 47.7451171875 15.740234375 l 5,36,37
 149.545898438 78.4453125 149.545898438 78.4453125 236.704101562 162.052734375 c 132,-1,38
 323.861328125 245.66015625 323.861328125 245.66015625 394.982421875 348.426757812 c 5,39,40
 459.130859375 306.624023438 459.130859375 306.624023438 513.517578125 255.239257812 c 132,-1,41
 567.903320312 203.856445312 567.903320312 203.856445312 612.528320312 139.409179688 c 4,0,1
EndSplineSet
EndChar

StartChar: uniE026
Encoding: 57382 57382 15
Width: 939
Flags: W
LayerCount: 2
Fore
SplineSet
161 545 m 1,0,-1
 201 556 l 1,1,-1
 693 556 l 1,2,3
 617 463 617 463 476 281 c 1,4,5
 441 304 441 304 400.5 327 c 128,-1,6
 360 350 360 350 317 371 c 2,7,-1
 306 376 l 1,8,-1
 299 356 l 1,9,10
 342 326 342 326 381 295.5 c 128,-1,11
 420 265 420 265 455 232 c 0,12,13
 476 212 476 212 494.5 190.5 c 128,-1,14
 513 169 513 169 530 143 c 0,15,16
 537 131 537 131 544.5 124.5 c 128,-1,17
 552 118 552 118 560 118 c 0,18,19
 566 118 566 118 569 123 c 128,-1,20
 572 128 572 128 578 139 c 0,21,22
 582 146 582 146 585 156 c 128,-1,23
 588 166 588 166 588 176 c 0,24,25
 587 184 587 184 584 190.5 c 128,-1,26
 581 197 581 197 578 203 c 0,27,28
 560 224 560 224 538 240.5 c 128,-1,29
 516 257 516 257 492 269 c 1,30,-1
 491 271 l 1,31,32
 564 340 564 340 631.5 403 c 128,-1,33
 699 466 699 466 764 526 c 1,34,-1
 804 539 l 1,35,-1
 737 619 l 1,36,-1
 693 571 l 1,37,-1
 135 571 l 1,38,-1
 161 545 l 1,0,-1
EndSplineSet
Validated: 9
EndChar

StartChar: uniE029
Encoding: 57385 57385 16
Width: 1026
Flags: W
LayerCount: 2
Fore
SplineSet
807 503 m 1,0,-1
 353 503 l 1,1,-1
 353 701 l 1,2,-1
 807 701 l 1,3,-1
 807 503 l 1,0,-1
146 -28 m 1,4,5
 203 14 203 14 245.5 68 c 128,-1,6
 288 122 288 122 315 187 c 1,7,-1
 317 190 l 1,8,9
 335 245 335 245 344.5 309 c 128,-1,10
 354 373 354 373 354 439 c 0,11,12
 354 451 354 451 353.5 462 c 128,-1,13
 353 473 353 473 353 482 c 1,14,-1
 807 482 l 1,15,-1
 807 424 l 1,16,-1
 866 449 l 1,17,18
 866 476 866 476 864.5 500 c 128,-1,19
 863 524 863 524 863 544 c 2,20,-1
 863 692 l 1,21,-1
 891 715 l 1,22,-1
 827 764 l 1,23,-1
 800 724 l 1,24,-1
 353 724 l 1,25,-1
 294 760 l 1,26,27
 294 692 294 692 296.5 632 c 128,-1,28
 299 572 299 572 299 521 c 0,29,30
 299 472 299 472 298 426 c 128,-1,31
 297 380 297 380 293 338 c 0,32,33
 290 290 290 290 280 246.5 c 128,-1,34
 270 203 270 203 255 161 c 1,35,-1
 257 166 l 1,36,37
 234 113 234 113 204 67.5 c 128,-1,38
 174 22 174 22 135 -16 c 1,39,-1
 146 -28 l 1,4,5
EndSplineSet
Validated: 5
EndChar

StartChar: uniE02A
Encoding: 57386 57386 17
Width: 1056
Flags: W
LayerCount: 2
Fore
SplineSet
614 728 m 1,0,-1
 843 728 l 1,1,-1
 843 545 l 1,2,-1
 614 545 l 1,3,-1
 614 728 l 1,0,-1
329 728 m 1,4,-1
 560 728 l 1,5,-1
 560 545 l 1,6,-1
 329 545 l 1,7,-1
 329 728 l 1,4,-1
900 503 m 1,8,9
 899 535 899 535 898 589 c 128,-1,10
 897 643 897 643 897 721 c 1,11,-1
 921 746 l 1,12,-1
 864 791 l 1,13,-1
 836 755 l 1,14,-1
 333 755 l 1,15,-1
 272 787 l 1,16,17
 273 728 273 728 274.5 662 c 128,-1,18
 276 596 276 596 276 524 c 0,19,20
 276 517 276 517 276 508.5 c 128,-1,21
 276 500 276 500 276 493 c 0,22,23
 276 427 276 427 270 362.5 c 128,-1,24
 264 298 264 298 254 235 c 1,25,-1
 254 244 l 1,26,27
 236 161 236 161 206 88.5 c 128,-1,28
 176 16 176 16 135 -50 c 1,29,-1
 138 -46 l 1,30,-1
 149 -53 l 1,31,32
 186 -10 186 -10 217.5 39 c 128,-1,33
 249 88 249 88 273 142 c 1,34,-1
 275 148 l 2,35,36
 291 187 291 187 303 233.5 c 128,-1,37
 315 280 315 280 320 329 c 1,38,-1
 320 332 l 1,39,40
 324 377 324 377 326.5 425 c 128,-1,41
 329 473 329 473 329 521 c 1,42,-1
 843 521 l 1,43,-1
 843 485 l 1,44,-1
 900 503 l 1,8,9
EndSplineSet
Validated: 9
EndChar

StartChar: uniE02C
Encoding: 57388 57388 18
Width: 1050
Flags: W
LayerCount: 2
Fore
SplineSet
717 7 m 1,0,1
 744 11 744 11 767.5 24 c 128,-1,2
 791 37 791 37 809 56 c 0,3,4
 830 82 830 82 842.5 115 c 128,-1,5
 855 148 855 148 858 184 c 0,6,7
 861 206 861 206 864 248 c 0,8,9
 867 289 867 289 869.5 349 c 128,-1,10
 872 409 872 409 873 488 c 0,11,12
 876 568 876 568 878 667 c 1,13,-1
 915 692 l 1,14,-1
 858 748 l 1,15,-1
 822 712 l 1,16,-1
 192 712 l 1,17,-1
 225 679 l 1,18,19
 245 683 245 683 266.5 686 c 128,-1,20
 288 689 288 689 311 689 c 0,21,22
 312 689 312 689 312 689 c 1,23,-1
 474 689 l 1,24,25
 473 616 473 616 465.5 545.5 c 128,-1,26
 458 475 458 475 446 406 c 1,27,-1
 447 418 l 1,28,29
 435 352 435 352 409.5 293.5 c 128,-1,30
 384 235 384 235 347 184 c 1,31,-1
 348 185 l 1,32,33
 306 130 306 130 253 84 c 128,-1,34
 200 38 200 38 138 5 c 1,35,-1
 135 4 l 1,36,-1
 141 -11 l 1,37,38
 216 19 216 19 277.5 63 c 128,-1,39
 339 107 339 107 387 163 c 1,40,-1
 389 164 l 1,41,42
 428 214 428 214 455.5 274 c 128,-1,43
 483 334 483 334 495 400 c 1,44,-1
 497 403 l 1,45,46
 509 466 509 466 518 538 c 128,-1,47
 527 610 527 610 531 686 c 1,48,-1
 531 689 l 1,49,-1
 824 689 l 1,50,51
 819 511 819 511 814.5 398.5 c 128,-1,52
 810 286 810 286 806 241 c 0,53,54
 804 208 804 208 796.5 178 c 128,-1,55
 789 148 789 148 776 122 c 0,56,57
 768 112 768 112 755.5 106 c 128,-1,58
 743 100 743 100 729 100 c 0,59,60
 726 100 726 100 722.5 100 c 128,-1,61
 719 100 719 100 717 101 c 0,62,63
 680 106 680 106 646 111 c 128,-1,64
 612 116 612 116 579 124 c 1,65,-1
 588 122 l 1,66,-1
 588 101 l 1,67,68
 651 79 651 79 682.5 54 c 128,-1,69
 714 29 714 29 714 4 c 1,70,-1
 717 7 l 1,0,1
EndSplineSet
Validated: 5
EndChar

StartChar: uniE02D
Encoding: 57389 57389 19
Width: 1116
Flags: W
LayerCount: 2
Fore
SplineSet
285 704 m 1,0,1
 305 709 305 709 326 712 c 128,-1,2
 347 715 347 715 369 715 c 0,3,4
 371 715 371 715 372 715 c 2,5,-1
 785 715 l 1,6,-1
 587 550 l 1,7,-1
 539 581 l 1,8,9
 540 545 540 545 541 505.5 c 128,-1,10
 542 466 542 466 542 425 c 1,11,-1
 135 425 l 1,12,-1
 168 394 l 1,13,14
 186 398 186 398 207 401 c 128,-1,15
 228 404 228 404 251 404 c 0,16,17
 254 404 254 404 254 404 c 1,18,-1
 537 404 l 1,19,-1
 537 101 l 2,20,21
 539 77 539 77 531.5 64.5 c 128,-1,22
 524 52 524 52 507 52 c 0,23,24
 491 52 491 52 460 53.5 c 128,-1,25
 429 55 429 55 381 61 c 1,26,-1
 381 43 l 1,27,28
 441 26 441 26 471 5 c 128,-1,29
 501 -16 501 -16 501 -44 c 1,30,31
 548 -28 548 -28 571 -2.5 c 128,-1,32
 594 23 594 23 594 58 c 2,33,-1
 594 403 l 1,34,-1
 981 403 l 1,35,-1
 902 482 l 1,36,-1
 843 424 l 1,37,-1
 593 424 l 1,38,-1
 593 496 l 1,39,-1
 632 518 l 1,40,-1
 600 539 l 1,41,42
 662 583 662 583 709 613.5 c 128,-1,43
 756 644 756 644 789 664 c 0,44,45
 813 679 813 679 841 688.5 c 128,-1,46
 869 698 869 698 900 701 c 1,47,-1
 831 781 l 1,48,-1
 785 737 l 1,49,-1
 252 737 l 1,50,-1
 285 704 l 1,0,1
EndSplineSet
Validated: 41
EndChar

StartChar: uniE02E
Encoding: 57390 57390 20
Width: 1117
Flags: W
LayerCount: 2
Fore
SplineSet
348 463 m 1,0,-1
 374 715 l 1,1,-1
 786 715 l 1,2,-1
 768 463 l 1,3,-1
 348 463 l 1,0,-1
317 176 m 1,4,-1
 345 440 l 1,5,-1
 768 440 l 1,6,-1
 746 176 l 1,7,-1
 317 176 l 1,4,-1
471 409 m 1,8,9
 495 379 495 379 514 345 c 128,-1,10
 533 311 533 311 546 274 c 1,11,-1
 548 271 l 1,12,13
 552 248 552 248 559 237.5 c 128,-1,14
 566 227 566 227 573 227 c 0,15,16
 579 227 579 227 583 232.5 c 128,-1,17
 587 238 587 238 594 250 c 0,18,19
 600 259 600 259 604.5 269.5 c 128,-1,20
 609 280 609 280 609 292 c 0,21,22
 608 305 608 305 602.5 317 c 128,-1,23
 597 329 597 329 588 338 c 0,24,25
 566 361 566 361 539.5 381 c 128,-1,26
 513 401 513 401 485 418 c 1,27,-1
 482 419 l 1,28,-1
 471 409 l 1,8,9
480 679 m 1,29,30
 503 652 503 652 521 619.5 c 128,-1,31
 539 587 539 587 551 551 c 1,32,-1
 552 550 l 1,33,34
 557 529 557 529 563.5 519 c 128,-1,35
 570 509 570 509 578 509 c 0,36,37
 585 509 585 509 588 514.5 c 128,-1,38
 591 520 591 520 597 530 c 0,39,40
 603 541 603 541 606 551.5 c 128,-1,41
 609 562 609 562 609 574 c 256,42,43
 609 586 609 586 604 596.5 c 128,-1,44
 599 607 599 607 591 616 c 0,45,46
 569 637 569 637 543.5 655.5 c 128,-1,47
 518 674 518 674 489 689 c 1,48,-1
 486 689 l 1,49,-1
 480 679 l 1,29,30
875 725 m 1,50,-1
 813 775 l 1,51,-1
 780 736 l 1,52,-1
 381 736 l 1,53,-1
 323 779 l 1,54,-1
 294 461 l 1,55,-1
 135 461 l 1,56,-1
 164 431 l 1,57,-1
 213 439 l 1,58,-1
 288 439 l 1,59,-1
 260 190 l 1,60,-1
 234 166 l 1,61,-1
 291 119 l 1,62,-1
 317 155 l 1,63,-1
 747 155 l 1,64,65
 744 131 744 131 740.5 109.5 c 128,-1,66
 737 88 737 88 729 67 c 1,67,-1
 731 70 l 1,68,69
 726 59 726 59 718 51.5 c 128,-1,70
 710 44 710 44 698 43 c 0,71,72
 666 44 666 44 635.5 49.5 c 128,-1,73
 605 55 605 55 578 65 c 1,74,-1
 575 47 l 1,75,76
 630 25 630 25 655.5 2.5 c 128,-1,77
 681 -20 681 -20 675 -44 c 1,78,79
 698 -40 698 -40 717.5 -31 c 128,-1,80
 737 -22 737 -22 752 -8 c 0,81,82
 764 4 764 4 773 19 c 128,-1,83
 782 34 782 34 786 52 c 0,84,85
 789 71 789 71 793 96 c 128,-1,86
 797 121 797 121 801 151 c 1,87,-1
 972 151 l 1,88,-1
 900 223 l 1,89,-1
 851 175 l 1,90,-1
 801 175 l 1,91,-1
 825 440 l 1,92,-1
 983 440 l 1,93,-1
 911 512 l 1,94,-1
 863 463 l 1,95,-1
 825 463 l 1,96,-1
 842 701 l 1,97,-1
 875 725 l 1,50,-1
EndSplineSet
Validated: 41
EndChar

StartChar: uniE02F
Encoding: 57391 57391 21
Width: 730
Flags: W
LayerCount: 2
Fore
SplineSet
504 490 m 1,0,-1
 482 244 l 1,1,-1
 215 244 l 1,2,-1
 254 490 l 1,3,-1
 504 490 l 1,0,-1
219 632 m 1,4,-1
 164 266 l 1,5,-1
 135 241 l 1,6,-1
 185 191 l 1,7,-1
 213 221 l 1,8,-1
 483 221 l 1,9,-1
 453 -43 l 1,10,-1
 509 -16 l 1,11,-1
 560 478 l 1,12,-1
 596 503 l 1,13,-1
 534 551 l 1,14,-1
 501 509 l 1,15,-1
 258 509 l 1,16,-1
 269 593 l 1,17,-1
 287 701 l 1,18,-1
 341 731 l 1,19,-1
 237 778 l 1,20,-1
 219 632 l 1,4,-1
EndSplineSet
Validated: 9
EndChar

StartChar: uniE030
Encoding: 57392 57392 22
Width: 907
Flags: W
LayerCount: 2
Fore
SplineSet
257 542 m 1,0,-1
 276 715 l 1,1,-1
 689 715 l 1,2,-1
 677 550 l 1,3,-1
 669 440 l 1,4,-1
 647 176 l 1,5,-1
 216 176 l 1,6,-1
 242 404 l 1,7,-1
 245 439 l 1,8,-1
 257 538 l 1,9,-1
 257 542 l 1,0,-1
773 725 m 1,10,-1
 711 775 l 1,11,-1
 680 736 l 1,12,-1
 282 736 l 1,13,-1
 224 779 l 1,14,-1
 195 461 l 1,15,-1
 183 358 l 1,16,-1
 164 190 l 1,17,-1
 135 164 l 1,18,-1
 192 118 l 1,19,-1
 218 154 l 1,20,-1
 648 154 l 1,21,22
 647 130 647 130 642.5 108 c 128,-1,23
 638 86 638 86 632 65 c 1,24,-1
 632 68 l 1,25,26
 629 58 629 58 620 50.5 c 128,-1,27
 611 43 611 43 600 41 c 0,28,29
 567 43 567 43 537 49 c 128,-1,30
 507 55 507 55 479 64 c 1,31,-1
 482 64 l 1,32,-1
 479 46 l 1,33,34
 534 23 534 23 559.5 0.5 c 128,-1,35
 585 -22 585 -22 579 -46 c 1,36,37
 602 -41 602 -41 620.5 -32 c 128,-1,38
 639 -23 639 -23 656 -10 c 0,39,40
 668 4 668 4 675.5 19 c 128,-1,41
 683 34 683 34 686 52 c 0,42,43
 690 71 690 71 694 96 c 128,-1,44
 698 121 698 121 701 151 c 2,45,-1
 704 173 l 1,46,-1
 723 458 l 1,47,-1
 728 535 l 1,48,-1
 740 695 l 1,49,-1
 773 725 l 1,10,-1
EndSplineSet
Validated: 37
EndChar

StartChar: uniE040
Encoding: 57408 57408 23
Width: 1089
Flags: W
LayerCount: 2
Fore
SplineSet
698 506 m 1,0,1
 677 419 677 419 646 342 c 128,-1,2
 615 265 615 265 576 194 c 1,3,-1
 579 200 l 1,4,-1
 383 259 l 1,5,6
 447 427 447 427 480 508 c 1,7,-1
 698 506 l 1,0,1
431 527 m 1,8,-1
 135 527 l 1,9,-1
 168 494 l 1,10,11
 188 500 188 500 209.5 503 c 128,-1,12
 231 506 231 506 254 506 c 0,13,14
 255 506 255 506 255 506 c 1,15,-1
 425 506 l 1,16,17
 399 428 399 428 372 362 c 128,-1,18
 345 296 345 296 317 235 c 1,19,-1
 323 250 l 1,20,21
 393 229 393 229 452.5 207 c 128,-1,22
 512 185 512 185 567 161 c 1,23,-1
 554 166 l 1,24,25
 519 131 519 131 478.5 102 c 128,-1,26
 438 73 438 73 395 50 c 1,27,-1
 392 49 l 1,28,29
 339 22 339 22 279 1 c 128,-1,30
 219 -20 219 -20 156 -35 c 2,31,-1
 149 -37 l 1,32,-1
 156 -53 l 1,33,34
 236 -40 236 -40 307 -17.5 c 128,-1,35
 378 5 378 5 444 35 c 1,36,-1
 437 32 l 1,37,38
 485 55 485 55 527 82.5 c 128,-1,39
 569 110 569 110 605 145 c 1,40,41
 663 118 663 118 715 85.5 c 128,-1,42
 767 53 767 53 812 14 c 0,43,44
 830 -2 830 -2 842 -10.5 c 128,-1,45
 854 -19 854 -19 861 -19 c 0,46,47
 867 -19 867 -19 871.5 -9 c 128,-1,48
 876 1 876 1 876 22 c 0,49,50
 876 46 876 46 863.5 64.5 c 128,-1,51
 851 83 851 83 830 94 c 0,52,53
 788 118 788 118 740 139.5 c 128,-1,54
 692 161 692 161 641 178 c 2,55,-1
 633 181 l 1,56,57
 672 250 672 250 704.5 330 c 128,-1,58
 737 410 737 410 759 496 c 2,59,-1
 762 506 l 1,60,-1
 954 506 l 1,61,-1
 875 586 l 1,62,-1
 818 527 l 1,63,-1
 485 527 l 1,64,-1
 558 724 l 1,65,-1
 590 742 l 1,66,-1
 503 791 l 1,67,68
 486 712 486 712 467.5 643.5 c 128,-1,69
 449 575 449 575 426 511 c 1,70,-1
 431 527 l 1,8,-1
EndSplineSet
Validated: 5
EndChar

StartChar: uniE042
Encoding: 57410 57410 24
Width: 604
Flags: W
LayerCount: 2
Fore
SplineSet
371 715 m 1,0,-1
 261 496 l 1,1,2
 290 473 290 473 314.5 447 c 128,-1,3
 339 421 339 421 359 391 c 1,4,-1
 360 389 l 1,5,6
 374 370 374 370 382 347.5 c 128,-1,7
 390 325 390 325 390 299 c 0,8,9
 390 298 390 298 390 298 c 2,10,11
 390 281 390 281 387 266 c 128,-1,12
 384 251 384 251 377 238 c 1,13,-1
 378 239 l 1,14,15
 374 230 374 230 367 224 c 128,-1,16
 360 218 360 218 351 215 c 0,17,18
 344 214 344 214 336.5 213 c 128,-1,19
 329 212 329 212 320 212 c 0,20,21
 293 212 293 212 267.5 214.5 c 128,-1,22
 242 217 242 217 216 220 c 1,23,-1
 221 218 l 1,24,-1
 221 205 l 1,25,26
 273 193 273 193 300 172.5 c 128,-1,27
 327 152 327 152 330 125 c 1,28,29
 362 131 362 131 386.5 148.5 c 128,-1,30
 411 166 411 166 428 191 c 0,31,32
 440 211 440 211 446.5 234 c 128,-1,33
 453 257 453 257 453 283 c 0,34,35
 453 286 453 286 453 289 c 128,-1,36
 453 292 453 292 453 295 c 0,37,38
 450 325 450 325 439 351 c 128,-1,39
 428 377 428 377 408 397 c 0,40,41
 383 427 383 427 353 451 c 128,-1,42
 323 475 323 475 290 494 c 2,43,-1
 287 496 l 1,44,45
 353 595 353 595 428 701 c 1,46,-1
 470 719 l 1,47,-1
 407 776 l 1,48,-1
 371 737 l 1,49,-1
 194 737 l 1,50,-1
 135 776 l 1,51,52
 135 751 135 751 137.5 658 c 128,-1,53
 140 565 140 565 140 404 c 0,54,55
 140 244 140 244 139 133 c 128,-1,56
 138 22 138 22 135 -40 c 1,57,-1
 197 -10 l 1,58,59
 195 11 195 11 194.5 33.5 c 128,-1,60
 194 56 194 56 194 80 c 2,61,-1
 194 715 l 1,62,-1
 371 715 l 1,0,-1
EndSplineSet
EndChar

StartChar: uniE044
Encoding: 57412 57412 25
Width: 1096
Flags: W
LayerCount: 2
Fore
SplineSet
548 749 m 1,0,-1
 470 791 l 1,1,2
 468 767 468 767 464.5 738.5 c 128,-1,3
 461 710 461 710 455 676 c 1,4,-1
 258 676 l 1,5,-1
 290 643 l 1,6,7
 309 649 309 649 330 651 c 128,-1,8
 351 653 351 653 372 653 c 0,9,10
 374 653 374 653 375.5 653 c 128,-1,11
 377 653 377 653 377 653 c 1,12,-1
 453 653 l 1,13,-1
 431 553 l 1,14,-1
 135 553 l 1,15,-1
 168 520 l 1,16,17
 188 526 188 526 209.5 529 c 128,-1,18
 231 532 231 532 254 532 c 0,19,20
 255 532 255 532 255 532 c 1,21,-1
 962 532 l 1,22,-1
 894 599 l 1,23,-1
 839 551 l 1,24,-1
 771 551 l 1,25,-1
 786 637 l 1,26,-1
 819 655 l 1,27,-1
 761 710 l 1,28,-1
 725 673 l 1,29,-1
 504 673 l 1,30,-1
 519 722 l 1,31,-1
 548 749 l 1,0,-1
345 446 m 1,32,-1
 750 446 l 1,33,-1
 750 356 l 1,34,-1
 345 356 l 1,35,-1
 345 446 l 1,32,-1
740 656 m 1,36,-1
 722 554 l 1,37,-1
 474 554 l 1,38,-1
 500 656 l 1,39,-1
 740 656 l 1,36,-1
932 107 m 1,40,-1
 866 175 l 1,41,-1
 816 128 l 1,42,-1
 576 128 l 1,43,-1
 576 221 l 1,44,-1
 866 221 l 1,45,-1
 804 287 l 1,46,-1
 758 244 l 1,47,-1
 576 244 l 1,48,-1
 576 334 l 1,49,-1
 750 334 l 1,50,-1
 750 305 l 1,51,-1
 800 323 l 1,52,53
 798 350 798 350 796.5 378 c 128,-1,54
 795 406 795 406 795 436 c 1,55,-1
 828 449 l 1,56,-1
 774 499 l 1,57,-1
 741 466 l 1,58,-1
 347 466 l 1,59,-1
 291 496 l 1,60,61
 291 473 291 473 293.5 449 c 128,-1,62
 296 425 296 425 296 400 c 0,63,64
 296 376 296 376 295 351 c 128,-1,65
 294 326 294 326 291 302 c 1,66,-1
 345 323 l 1,67,-1
 345 334 l 1,68,-1
 527 334 l 1,69,-1
 527 244 l 1,70,-1
 224 244 l 1,71,-1
 255 212 l 1,72,73
 275 217 275 217 296 220 c 128,-1,74
 317 223 317 223 339 223 c 2,75,76
 339 223 339 223 340.5 223 c 128,-1,77
 342 223 342 223 342 223 c 1,78,-1
 527 223 l 1,79,-1
 527 128 l 1,80,-1
 291 128 l 1,81,82
 299 146 299 146 310 160.5 c 128,-1,83
 321 175 321 175 335 187 c 1,84,-1
 272 218 l 1,85,86
 267 199 267 199 261 181.5 c 128,-1,87
 255 164 255 164 248 148 c 1,88,-1
 249 151 l 1,89,90
 242 139 242 139 233 129 c 128,-1,91
 224 119 224 119 212 112 c 1,92,-1
 266 76 l 1,93,-1
 288 107 l 1,94,-1
 527 107 l 1,95,96
 527 88 527 88 526 47.5 c 128,-1,97
 525 7 525 7 522 -55 c 1,98,-1
 581 -26 l 1,99,100
 578 1 578 1 577 34.5 c 128,-1,101
 576 68 576 68 576 107 c 1,102,-1
 932 107 l 1,40,-1
EndSplineSet
Validated: 5
EndChar

StartChar: uniE045
Encoding: 57413 57413 26
Width: 1108
Flags: W
LayerCount: 2
Fore
SplineSet
437 7 m 1,0,-1
 494 422 l 1,1,-1
 740 422 l 1,2,-1
 723 7 l 1,3,-1
 437 7 l 1,0,-1
827 437 m 1,4,-1
 765 481 l 1,5,-1
 729 448 l 1,6,-1
 498 448 l 1,7,-1
 530 689 l 1,8,-1
 584 719 l 1,9,-1
 483 767 l 1,10,-1
 443 446 l 1,11,-1
 209 446 l 1,12,-1
 245 410 l 1,13,14
 263 416 263 416 283 418.5 c 128,-1,15
 303 421 303 421 324 421 c 1,16,17
 324 421 324 421 324 421 c 1,18,-1
 440 421 l 1,19,-1
 381 5 l 1,20,-1
 135 5 l 1,21,-1
 171 -31 l 1,22,23
 189 -25 189 -25 209.5 -22 c 128,-1,24
 230 -19 230 -19 251 -19 c 1,25,26
 251 -19 251 -19 251 -19 c 1,27,-1
 974 -19 l 1,28,-1
 896 52 l 1,29,-1
 837 4 l 1,30,-1
 779 4 l 1,31,-1
 794 404 l 1,32,-1
 827 437 l 1,4,-1
EndSplineSet
Validated: 5
EndChar

StartChar: uniE046
Encoding: 57414 57414 27
Width: 1077
Flags: W
LayerCount: 2
Fore
SplineSet
374 44 m 1,0,1
 437 26 437 26 468.5 6.5 c 128,-1,2
 500 -13 500 -13 497 -35 c 1,3,4
 539 -22 539 -22 560 2 c 128,-1,5
 581 26 581 26 581 59 c 2,6,-1
 581 431 l 1,7,-1
 833 431 l 1,8,-1
 743 305 l 1,9,-1
 755 295 l 1,10,11
 884 421 884 421 942 418 c 1,12,-1
 873 496 l 1,13,-1
 830 452 l 1,14,-1
 591 452 l 1,15,16
 602 463 602 463 609.5 476.5 c 128,-1,17
 617 490 617 490 618 505 c 0,18,19
 618 518 618 518 605.5 533 c 128,-1,20
 593 548 593 548 566 565 c 1,21,22
 596 587 596 587 630.5 609 c 128,-1,23
 665 631 665 631 701 650 c 2,24,-1
 707 653 l 1,25,26
 734 671 734 671 766 681.5 c 128,-1,27
 798 692 798 692 833 692 c 1,28,-1
 765 772 l 1,29,-1
 716 731 l 1,30,-1
 240 731 l 1,31,-1
 273 698 l 1,32,33
 291 704 291 704 313 707 c 128,-1,34
 335 710 335 710 356 710 c 0,35,36
 357 710 357 710 358.5 710 c 128,-1,37
 360 710 360 710 362 710 c 2,38,-1
 716 710 l 1,39,40
 672 680 672 680 546 577 c 1,41,42
 516 590 516 590 481.5 603 c 128,-1,43
 447 616 447 616 410 625 c 1,44,-1
 405 625 l 1,45,-1
 402 611 l 1,46,47
 470 577 470 577 509.5 537 c 128,-1,48
 549 497 549 497 560 452 c 1,49,-1
 135 452 l 1,50,-1
 168 419 l 1,51,52
 188 425 188 425 209 427.5 c 128,-1,53
 230 430 230 430 251 430 c 0,54,55
 254 430 254 430 255 430 c 2,56,-1
 525 430 l 1,57,-1
 525 101 l 2,58,59
 525 76 525 76 517.5 64 c 128,-1,60
 510 52 510 52 495 49 c 0,61,62
 462 50 462 50 431.5 53 c 128,-1,63
 401 56 401 56 369 62 c 1,64,-1
 374 62 l 1,65,-1
 374 44 l 1,0,1
EndSplineSet
Validated: 37
EndChar

StartChar: uniE047
Encoding: 57415 57415 28
Width: 1086
Flags: W
LayerCount: 2
Fore
SplineSet
135 361 m 1,0,-1
 174 340 l 1,1,-1
 200 358 l 1,2,-1
 287 386 l 1,3,-1
 287 41 l 2,4,5
 287 -31 287 -31 366 -31 c 2,6,-1
 864 -31 l 2,7,8
 866 -31 866 -31 867 -31 c 0,9,10
 896 -31 896 -31 918.5 -16 c 128,-1,11
 941 -1 941 -1 951 23 c 1,12,13
 935 28 935 28 923.5 39 c 128,-1,14
 912 50 912 50 908 67 c 0,15,16
 905 92 905 92 902.5 120.5 c 128,-1,17
 900 149 900 149 900 179 c 0,18,19
 900 187 900 187 900 194.5 c 128,-1,20
 900 202 900 202 900 208 c 1,21,-1
 884 208 l 1,22,23
 884 205 884 205 884 203 c 0,24,25
 884 160 884 160 878 118.5 c 128,-1,26
 872 77 872 77 860 37 c 1,27,-1
 861 41 l 1,28,29
 854 26 854 26 845 19.5 c 128,-1,30
 836 13 836 13 825 13 c 2,31,-1
 399 13 l 2,32,33
 366 13 366 13 350.5 26.5 c 128,-1,34
 335 40 335 40 338 70 c 2,35,-1
 338 401 l 1,36,-1
 518 463 l 1,37,-1
 518 220 l 2,38,39
 518 197 518 197 518 168.5 c 128,-1,40
 518 140 518 140 515 109 c 1,41,-1
 572 137 l 1,42,43
 570 160 570 160 569.5 184 c 128,-1,44
 569 208 569 208 569 230 c 2,45,-1
 569 478 l 1,46,-1
 789 556 l 1,47,48
 779 310 779 310 762 287 c 0,49,50
 755 277 755 277 743 270 c 128,-1,51
 731 263 731 263 717 263 c 0,52,53
 714 263 714 263 713 263 c 0,54,55
 696 263 696 263 670.5 264.5 c 128,-1,56
 645 266 645 266 612 271 c 1,57,-1
 612 257 l 1,58,59
 710 227 710 227 710 185 c 1,60,61
 750 188 750 188 779.5 216 c 128,-1,62
 809 244 809 244 816 283 c 0,63,64
 827 344 827 344 833 414.5 c 128,-1,65
 839 485 839 485 840 559 c 1,66,-1
 869 587 l 1,67,-1
 804 628 l 1,68,-1
 782 581 l 1,69,-1
 569 502 l 1,70,-1
 569 704 l 1,71,-1
 597 730 l 1,72,-1
 515 766 l 1,73,74
 516 731 516 731 517 661.5 c 128,-1,75
 518 592 518 592 518 487 c 1,76,-1
 338 425 l 1,77,-1
 338 595 l 1,78,-1
 366 616 l 1,79,-1
 284 656 l 1,80,81
 284 610 284 610 285.5 549 c 128,-1,82
 287 488 287 488 287 410 c 1,83,-1
 135 361 l 1,0,-1
EndSplineSet
Validated: 41
EndChar

StartChar: uniE060
Encoding: 57440 57440 29
Width: 1107
Flags: W
LayerCount: 2
Fore
SplineSet
789 113 m 1,0,-1
 438 113 l 1,1,-1
 438 397 l 1,2,-1
 789 397 l 1,3,-1
 789 113 l 1,0,-1
438 4 m 1,4,-1
 438 92 l 1,5,-1
 789 92 l 1,6,-1
 789 -7 l 1,7,-1
 843 16 l 1,8,9
 839 101 839 101 839 380 c 1,10,-1
 872 406 l 1,11,-1
 810 454 l 1,12,-1
 782 415 l 1,13,-1
 441 415 l 1,14,-1
 413 428 l 1,15,16
 447 484 447 484 481.5 546 c 128,-1,17
 516 608 516 608 548 674 c 2,18,-1
 554 688 l 1,19,-1
 972 688 l 1,20,-1
 900 764 l 1,21,-1
 843 710 l 1,22,-1
 156 710 l 1,23,-1
 189 677 l 1,24,25
 204 682 204 682 221.5 685 c 128,-1,26
 239 688 239 688 257 688 c 2,27,-1
 489 688 l 1,28,29
 459 613 459 613 424 547.5 c 128,-1,30
 389 482 389 482 348 424 c 1,31,-1
 351 428 l 1,32,33
 305 359 305 359 251 299 c 128,-1,34
 197 239 197 239 137 187 c 1,35,-1
 135 185 l 1,36,-1
 141 175 l 1,37,38
 213 221 213 221 274.5 276.5 c 128,-1,39
 336 332 336 332 387 397 c 1,40,-1
 389 398 l 1,41,42
 389 70 389 70 384 -28 c 1,43,-1
 438 4 l 1,4,-1
EndSplineSet
Validated: 9
EndChar

StartChar: uniE061
Encoding: 57441 57441 30
Width: 1089
Flags: W
LayerCount: 2
Fore
SplineSet
954 688 m 1,0,-1
 878 764 l 1,1,-1
 824 710 l 1,2,-1
 147 710 l 1,3,-1
 180 677 l 1,4,5
 198 682 198 682 219 685 c 128,-1,6
 240 688 240 688 263 688 c 0,7,8
 264 688 264 688 265.5 688 c 128,-1,9
 267 688 267 688 269 688 c 2,10,-1
 485 688 l 1,11,12
 479 610 479 610 452 539.5 c 128,-1,13
 425 469 425 469 381 412 c 0,14,15
 332 353 332 353 271 306.5 c 128,-1,16
 210 260 210 260 140 227 c 1,17,-1
 135 226 l 1,18,-1
 143 211 l 1,19,20
 222 241 222 241 290.5 283.5 c 128,-1,21
 359 326 359 326 416 382 c 1,22,23
 470 443 470 443 506 520.5 c 128,-1,24
 542 598 542 598 552 685 c 1,25,-1
 552 688 l 1,26,-1
 954 688 l 1,0,-1
EndSplineSet
Validated: 9
EndChar

StartChar: uniE062
Encoding: 57442 57442 31
Width: 1114
Flags: W
LayerCount: 2
Fore
SplineSet
582 425 m 1,0,-1
 980 425 l 1,1,-1
 903 502 l 1,2,-1
 849 446 l 1,3,-1
 582 446 l 1,4,-1
 582 719 l 1,5,-1
 614 748 l 1,6,-1
 524 787 l 1,7,8
 524 751 524 751 526 727 c 128,-1,9
 528 703 528 703 528 689 c 2,10,-1
 528 446 l 1,11,-1
 135 446 l 1,12,-1
 168 415 l 1,13,14
 186 419 186 419 207 422 c 128,-1,15
 228 425 228 425 251 425 c 0,16,17
 254 425 254 425 255 425 c 2,18,-1
 530 425 l 1,19,-1
 530 64 l 2,20,21
 530 46 530 46 529 16.5 c 128,-1,22
 528 -13 528 -13 525 -52 c 1,23,-1
 587 -26 l 1,24,25
 585 8 585 8 584.5 33 c 128,-1,26
 584 58 584 58 584 74 c 2,27,-1
 582 425 l 1,0,-1
EndSplineSet
Validated: 9
EndChar

StartChar: uniE063
Encoding: 57443 57443 32
Width: 1083
Flags: W
LayerCount: 2
Fore
SplineSet
750 58 m 1,0,-1
 345 58 l 1,1,-1
 345 317 l 1,2,-1
 750 317 l 1,3,-1
 750 58 l 1,0,-1
833 325 m 1,4,-1
 779 374 l 1,5,-1
 743 338 l 1,6,-1
 566 338 l 1,7,-1
 566 563 l 1,8,-1
 948 563 l 1,9,-1
 876 635 l 1,10,-1
 827 586 l 1,11,-1
 566 586 l 1,12,-1
 566 722 l 1,13,-1
 597 748 l 1,14,-1
 513 787 l 1,15,16
 513 761 513 761 514.5 710 c 128,-1,17
 516 659 516 659 516 586 c 1,18,-1
 135 586 l 1,19,-1
 168 553 l 1,20,21
 186 557 186 557 207 560 c 128,-1,22
 228 563 228 563 251 563 c 0,23,24
 254 563 254 563 255 563 c 2,25,-1
 513 563 l 1,26,-1
 513 340 l 1,27,-1
 345 340 l 1,28,-1
 291 371 l 1,29,30
 291 322 291 322 292.5 268.5 c 128,-1,31
 294 215 294 215 294 160 c 0,32,33
 294 106 294 106 293.5 52.5 c 128,-1,34
 293 -1 293 -1 291 -50 c 1,35,-1
 345 -32 l 1,36,-1
 345 35 l 1,37,-1
 750 35 l 1,38,-1
 750 -40 l 1,39,-1
 804 -19 l 1,40,41
 801 7 801 7 800.5 30 c 128,-1,42
 800 53 800 53 800 76 c 2,43,-1
 800 299 l 1,44,-1
 833 325 l 1,4,-1
EndSplineSet
Validated: 9
EndChar

StartChar: uniE064
Encoding: 57444 57444 33
Width: 1050
Flags: W
LayerCount: 2
Fore
SplineSet
677 365 m 1,0,1
 683 352 683 352 688 346 c 128,-1,2
 693 340 693 340 699 340 c 0,3,4
 704 340 704 340 707 345 c 128,-1,5
 710 350 710 350 713 361 c 0,6,7
 716 368 716 368 718 376.5 c 128,-1,8
 720 385 720 385 720 394 c 0,9,10
 720 407 720 407 712.5 419 c 128,-1,11
 705 431 705 431 693 437 c 0,12,13
 672 451 672 451 648 463 c 128,-1,14
 624 475 624 475 599 485 c 1,15,-1
 594 485 l 1,16,-1
 588 475 l 1,17,18
 614 451 614 451 635.5 424.5 c 128,-1,19
 657 398 657 398 677 370 c 1,20,-1
 678 367 l 1,21,-1
 677 365 l 1,0,1
378 170 m 1,22,23
 386 155 386 155 391 147.5 c 128,-1,24
 396 140 396 140 399 140 c 0,25,26
 404 140 404 140 407.5 145.5 c 128,-1,27
 411 151 411 151 416 161 c 0,28,29
 420 169 420 169 422.5 177 c 128,-1,30
 425 185 425 185 425 194 c 0,31,32
 425 208 425 208 419 219 c 128,-1,33
 413 230 413 230 404 238 c 0,34,35
 381 254 381 254 355 267 c 128,-1,36
 329 280 329 280 299 287 c 1,37,-1
 296 277 l 1,38,39
 320 253 320 253 340 226 c 128,-1,40
 360 199 360 199 375 169 c 1,41,-1
 377 166 l 1,42,-1
 378 170 l 1,22,23
386 376 m 1,43,44
 392 359 392 359 398.5 351 c 128,-1,45
 405 343 405 343 410 343 c 0,46,47
 416 343 416 343 418 349 c 128,-1,48
 420 355 420 355 425 365 c 0,49,50
 429 373 429 373 432 382 c 128,-1,51
 435 391 435 391 437 401 c 1,52,53
 434 413 434 413 427 423.5 c 128,-1,54
 420 434 420 434 410 440 c 0,55,56
 387 457 387 457 361.5 470.5 c 128,-1,57
 336 484 336 484 309 494 c 1,58,-1
 306 494 l 1,59,-1
 299 484 l 1,60,61
 323 460 323 460 344.5 432 c 128,-1,62
 366 404 366 404 383 374 c 1,63,-1
 384 371 l 1,64,-1
 386 376 l 1,43,44
642 53 m 1,65,66
 698 43 698 43 727 23.5 c 128,-1,67
 756 4 756 4 758 -25 c 1,68,69
 792 -19 792 -19 815.5 8 c 128,-1,70
 839 35 839 35 839 71 c 0,71,72
 839 76 839 76 838 79.5 c 128,-1,73
 837 83 837 83 837 88 c 2,74,-1
 837 530 l 1,75,-1
 866 554 l 1,76,-1
 804 602 l 1,77,-1
 779 562 l 1,78,-1
 540 562 l 1,79,-1
 540 689 l 1,80,-1
 915 689 l 1,81,-1
 851 766 l 1,82,-1
 801 712 l 1,83,-1
 135 712 l 1,84,-1
 168 679 l 1,85,86
 186 685 186 685 208 687 c 128,-1,87
 230 689 230 689 252 689 c 0,88,89
 254 689 254 689 254 689 c 1,90,-1
 492 689 l 1,91,-1
 492 560 l 1,92,-1
 254 560 l 1,93,-1
 201 589 l 1,94,95
 204 494 204 494 204 280 c 0,96,97
 204 172 204 172 203.5 95.5 c 128,-1,98
 203 19 203 19 201 -26 c 1,99,-1
 255 4 l 1,100,-1
 255 538 l 1,101,-1
 494 538 l 1,102,103
 494 214 494 214 489 -11 c 1,104,-1
 543 17 l 1,105,106
 543 67 543 67 542 124 c 0,107,108
 542 181 542 181 541 245.5 c 128,-1,109
 540 310 540 310 540 383 c 2,110,-1
 540 538 l 1,111,-1
 786 538 l 1,112,-1
 786 95 l 2,113,114
 788 77 788 77 776.5 68 c 128,-1,115
 765 59 765 59 741 61 c 0,116,117
 716 62 716 62 692 63 c 128,-1,118
 668 64 668 64 642 67 c 1,119,-1
 642 53 l 1,65,66
681 158 m 1,120,121
 687 146 687 146 692.5 140 c 128,-1,122
 698 134 698 134 704 134 c 256,123,124
 710 134 710 134 712 138.5 c 128,-1,125
 714 143 714 143 717 151 c 0,126,127
 720 158 720 158 722.5 166.5 c 128,-1,128
 725 175 725 175 725 184 c 0,129,130
 723 197 723 197 716.5 208.5 c 128,-1,131
 710 220 710 220 699 226 c 0,132,133
 677 241 677 241 651.5 253 c 128,-1,134
 626 265 626 265 597 274 c 2,135,-1
 594 275 l 1,136,-1
 588 265 l 1,137,138
 614 239 614 239 637 213 c 128,-1,139
 660 187 660 187 680 157 c 1,140,-1
 681 155 l 1,141,-1
 681 158 l 1,120,121
EndSplineSet
Validated: 41
EndChar

StartChar: uniE067
Encoding: 57447 57447 34
Width: 1072
Flags: W
LayerCount: 2
Fore
SplineSet
135 280 m 1,0,-1
 140 269 l 1,1,2
 245 301 245 301 335.5 354 c 128,-1,3
 426 407 426 407 501 479 c 1,4,5
 513 460 513 460 524.5 437.5 c 128,-1,6
 536 415 536 415 543 391 c 1,7,-1
 545 388 l 1,8,9
 504 335 504 335 459 289 c 0,10,11
 414 242 414 242 364.5 201.5 c 128,-1,12
 315 161 315 161 260 127 c 0,13,14
 204 92 204 92 146 65 c 2,15,-1
 140 62 l 1,16,-1
 143 49 l 1,17,18
 207 68 207 68 266 97 c 0,19,20
 324 125 324 125 377.5 160.5 c 128,-1,21
 431 196 431 196 477 238 c 0,22,23
 524 280 524 280 564 329 c 1,24,-1
 566 331 l 1,25,26
 572 308 572 308 574 283.5 c 128,-1,27
 576 259 576 259 576 232 c 0,28,29
 576 230 576 230 576 228 c 128,-1,30
 576 226 576 226 576 223 c 1,31,32
 576 223 576 223 576 223 c 1,33,34
 576 193 576 193 571.5 163.5 c 128,-1,35
 567 134 567 134 558 107 c 1,36,-1
 558 110 l 1,37,38
 551 85 551 85 539 72 c 128,-1,39
 527 59 527 59 510 58 c 0,40,41
 473 58 473 58 437.5 61.5 c 128,-1,42
 402 65 402 65 369 71 c 1,43,-1
 374 70 l 1,44,-1
 374 55 l 1,45,46
 425 43 425 43 450.5 23.5 c 128,-1,47
 476 4 476 4 476 -23 c 1,48,49
 503 -20 503 -20 527 -9 c 128,-1,50
 551 2 551 2 569 19 c 0,51,52
 590 40 590 40 602 66 c 128,-1,53
 614 92 614 92 617 122 c 0,54,55
 620 155 620 155 621.5 179 c 128,-1,56
 623 203 623 203 623 218 c 0,57,58
 623 277 623 277 611 332.5 c 128,-1,59
 599 388 599 388 579 439 c 1,60,-1
 581 436 l 1,61,62
 591 440 591 440 604.5 447.5 c 128,-1,63
 618 455 618 455 635 464 c 1,64,65
 648 395 648 395 671.5 334.5 c 128,-1,66
 695 274 695 274 726 220 c 1,67,-1
 725 223 l 1,68,69
 750 178 750 178 782.5 139.5 c 128,-1,70
 815 101 815 101 854 71 c 1,71,-1
 855 70 l 1,72,73
 864 91 864 91 884.5 104.5 c 128,-1,74
 905 118 905 118 930 118 c 0,75,76
 932 118 932 118 934 118 c 128,-1,77
 936 118 936 118 938 116 c 1,78,-1
 938 131 l 1,79,80
 888 145 888 145 847.5 172 c 128,-1,81
 807 199 807 199 777 238 c 0,82,83
 737 287 737 287 707 345 c 128,-1,84
 677 403 677 403 659 467 c 1,85,-1
 657 472 l 1,86,87
 699 496 699 496 736 517.5 c 128,-1,88
 773 539 773 539 806 557 c 1,89,-1
 855 562 l 1,90,-1
 789 634 l 1,91,92
 767 608 767 608 743 584 c 128,-1,93
 719 560 719 560 693 539 c 2,94,-1
 692 538 l 2,95,96
 666 517 666 517 637.5 496 c 128,-1,97
 609 475 609 475 579 455 c 2,98,-1
 575 452 l 1,99,100
 545 493 545 493 512 526.5 c 128,-1,101
 479 560 479 560 441 589 c 1,102,-1
 440 590 l 1,103,-1
 555 689 l 1,104,-1
 900 689 l 1,105,-1
 833 760 l 1,106,-1
 771 712 l 1,107,-1
 158 712 l 1,108,-1
 189 679 l 1,109,110
 204 683 204 683 220.5 685.5 c 128,-1,111
 237 688 237 688 255 688 c 2,112,-1
 479 688 l 1,113,114
 449 653 449 653 414.5 623 c 128,-1,115
 380 593 380 593 342 568 c 1,116,-1
 341 565 l 1,117,118
 299 536 299 536 252.5 510 c 128,-1,119
 206 484 206 484 156 463 c 2,120,-1
 150 460 l 1,121,-1
 158 449 l 1,122,123
 233 472 233 472 299 504 c 128,-1,124
 365 536 365 536 425 578 c 1,125,-1
 422 577 l 1,126,127
 434 563 434 563 445 549 c 128,-1,128
 456 535 456 535 467 520 c 2,129,-1
 468 518 l 1,130,131
 401 442 401 442 318.5 382.5 c 128,-1,132
 236 323 236 323 141 281 c 1,133,-1
 135 280 l 1,0,-1
EndSplineSet
Validated: 5
EndChar

StartChar: uniE069
Encoding: 57449 57449 35
Width: 1114
Flags: W
LayerCount: 2
Fore
SplineSet
578 -20 m 1,0,1
 578 8 578 8 576.5 65 c 128,-1,2
 575 122 575 122 575 208 c 1,3,-1
 980 208 l 1,4,-1
 903 284 l 1,5,-1
 849 229 l 1,6,-1
 575 229 l 1,7,-1
 575 397 l 1,8,-1
 864 397 l 1,9,-1
 795 464 l 1,10,-1
 746 418 l 1,11,-1
 575 418 l 1,12,-1
 575 590 l 1,13,-1
 903 590 l 1,14,-1
 831 662 l 1,15,-1
 782 614 l 1,16,-1
 575 614 l 1,17,-1
 575 713 l 1,18,-1
 608 742 l 1,19,-1
 516 785 l 1,20,21
 519 752 519 752 520 729 c 128,-1,22
 521 706 521 706 521 692 c 2,23,-1
 521 613 l 1,24,-1
 185 613 l 1,25,-1
 216 580 l 1,26,27
 236 584 236 584 257 587 c 128,-1,28
 278 590 278 590 300 590 c 2,29,30
 300 590 300 590 301.5 590 c 128,-1,31
 303 590 303 590 303 590 c 1,32,-1
 521 590 l 1,33,-1
 521 418 l 1,34,-1
 239 418 l 1,35,-1
 272 385 l 1,36,37
 290 391 290 391 312.5 394 c 128,-1,38
 335 397 335 397 357 397 c 2,39,-1
 521 397 l 1,40,-1
 521 232 l 1,41,-1
 135 232 l 1,42,-1
 168 199 l 1,43,44
 188 203 188 203 209.5 206 c 128,-1,45
 231 209 231 209 254 209 c 2,46,47
 254 209 254 209 255 209 c 2,48,-1
 518 209 l 1,49,50
 518 131 518 131 518 67.5 c 128,-1,51
 518 4 518 4 515 -47 c 1,52,-1
 578 -20 l 1,0,1
EndSplineSet
Validated: 9
EndChar

StartChar: uniE068
Encoding: 57448 57448 36
Width: 1132
Flags: W
LayerCount: 2
Fore
SplineSet
431 581 m 1,0,1
 444 568 444 568 456 553 c 128,-1,2
 468 538 468 538 479 521 c 1,3,-1
 480 520 l 1,4,5
 410 440 410 440 324.5 376.5 c 128,-1,6
 239 313 239 313 141 269 c 1,7,-1
 135 268 l 1,8,-1
 138 256 l 1,9,10
 249 290 249 290 343.5 347 c 128,-1,11
 438 404 438 404 515 481 c 1,12,13
 530 460 530 460 544 438 c 128,-1,14
 558 416 558 416 570 394 c 2,15,-1
 572 389 l 1,16,17
 530 334 530 334 482 283 c 256,18,19
 434 232 434 232 380 187 c 128,-1,20
 326 142 326 142 267 104 c 0,21,22
 209 65 209 65 146 35 c 1,23,-1
 138 32 l 1,24,-1
 143 17 l 1,25,26
 210 41 210 41 273 73 c 0,27,28
 336 104 336 104 392.5 144.5 c 128,-1,29
 449 185 449 185 498 232 c 0,30,31
 548 280 548 280 588 334 c 1,32,-1
 590 335 l 1,33,34
 596 314 596 314 598 290 c 128,-1,35
 600 266 600 266 600 241 c 0,36,37
 600 230 600 230 599.5 219.5 c 128,-1,38
 599 209 599 209 599 200 c 0,39,40
 597 167 597 167 590.5 135.5 c 128,-1,41
 584 104 584 104 573 74 c 1,42,-1
 575 77 l 1,43,44
 557 28 557 28 525 28 c 0,45,46
 489 29 489 29 453 33 c 128,-1,47
 417 37 417 37 384 44 c 1,48,-1
 389 43 l 1,49,-1
 389 25 l 1,50,51
 441 13 441 13 467.5 -8 c 128,-1,52
 494 -29 494 -29 494 -58 c 1,53,54
 525 -53 525 -53 552 -38 c 128,-1,55
 579 -23 579 -23 599 -1 c 0,56,57
 621 25 621 25 635.5 73.5 c 128,-1,58
 650 122 650 122 657 197 c 0,59,60
 660 208 660 208 661 221.5 c 128,-1,61
 662 235 662 235 662 248 c 0,62,63
 662 299 662 299 647.5 347 c 128,-1,64
 633 395 633 395 608 436 c 1,65,-1
 609 434 l 1,66,-1
 630 445 l 1,67,68
 663 374 663 374 697.5 312.5 c 128,-1,69
 732 251 732 251 770 194 c 1,70,-1
 767 200 l 1,71,72
 797 155 797 155 832 117 c 128,-1,73
 867 79 867 79 911 47 c 1,74,75
 921 68 921 68 941.5 82.5 c 128,-1,76
 962 97 962 97 987 97 c 0,77,78
 990 97 990 97 993 97 c 128,-1,79
 996 97 996 97 998 95 c 1,80,-1
 998 112 l 1,81,82
 945 125 945 125 901.5 153 c 128,-1,83
 858 181 858 181 824 220 c 0,84,85
 774 271 774 271 729 328 c 128,-1,86
 684 385 684 385 647 446 c 1,87,-1
 644 452 l 1,88,89
 770 523 770 523 831 563 c 1,90,-1
 890 566 l 1,91,-1
 816 647 l 1,92,93
 792 620 792 620 766 595.5 c 128,-1,94
 740 571 740 571 711 547 c 1,95,-1
 710 545 l 1,96,97
 684 521 684 521 655.5 498.5 c 128,-1,98
 627 476 627 476 597 455 c 2,99,-1
 593 452 l 1,100,101
 561 494 561 494 526.5 531 c 128,-1,102
 492 568 492 568 453 599 c 1,103,-1
 452 601 l 1,104,105
 486 632 486 632 520.5 661.5 c 128,-1,106
 555 691 555 691 590 721 c 1,107,-1
 626 724 l 1,108,-1
 567 794 l 1,109,110
 527 742 527 742 482 695.5 c 128,-1,111
 437 649 437 649 386 608 c 1,112,-1
 383 607 l 1,113,114
 333 563 333 563 275.5 527 c 128,-1,115
 218 491 218 491 155 461 c 2,116,-1
 149 458 l 1,117,-1
 155 448 l 1,118,119
 234 472 234 472 303 506.5 c 128,-1,120
 372 541 372 541 434 584 c 1,121,-1
 431 581 l 1,0,1
EndSplineSet
Validated: 5
EndChar

StartChar: uniE06A
Encoding: 57450 57450 37
Width: 1065
Flags: W
LayerCount: 2
Fore
SplineSet
822 502 m 1,0,-1
 822 76 l 1,1,-1
 261 76 l 1,2,-1
 261 502 l 1,3,-1
 425 502 l 1,4,5
 425 500 425 500 425 498.5 c 128,-1,6
 425 497 425 497 425 496 c 0,7,8
 425 440 425 440 415 387.5 c 128,-1,9
 405 335 405 335 387 286 c 1,10,-1
 389 290 l 1,11,12
 369 247 369 247 341.5 210 c 128,-1,13
 314 173 314 173 281 143 c 1,14,-1
 287 131 l 1,15,16
 327 158 327 158 361.5 192 c 128,-1,17
 396 226 396 226 422 268 c 0,18,19
 446 311 446 311 459.5 363.5 c 128,-1,20
 473 416 473 416 473 472 c 0,21,22
 473 479 473 479 473 486.5 c 128,-1,23
 473 494 473 494 471 500 c 1,24,-1
 609 500 l 1,25,-1
 609 266 l 2,26,27
 608 236 608 236 623.5 222 c 128,-1,28
 639 208 639 208 674 208 c 2,29,-1
 750 208 l 2,30,31
 755 208 755 208 760 207 c 128,-1,32
 765 206 765 206 771 206 c 256,33,34
 777 206 777 206 783 207 c 128,-1,35
 789 208 789 208 794 208 c 0,36,37
 801 208 801 208 803.5 213 c 128,-1,38
 806 218 806 218 803 227 c 0,39,40
 800 235 800 235 796 242.5 c 128,-1,41
 792 250 792 250 786 254 c 0,42,43
 783 256 783 256 780 257.5 c 128,-1,44
 777 259 777 259 774 259 c 0,45,46
 770 259 770 259 767 257.5 c 128,-1,47
 764 256 764 256 761 254 c 0,48,49
 752 251 752 251 743 249 c 128,-1,50
 734 247 734 247 723 247 c 0,51,52
 722 247 722 247 722 247 c 1,53,-1
 678 247 l 2,54,55
 666 247 666 247 661 255 c 128,-1,56
 656 263 656 263 656 280 c 2,57,-1
 656 496 l 1,58,-1
 822 502 l 1,0,-1
609 523 m 1,59,-1
 471 523 l 1,60,-1
 471 692 l 1,61,-1
 609 692 l 1,62,-1
 609 523 l 1,59,-1
840 563 m 1,63,-1
 815 523 l 1,64,-1
 656 523 l 1,65,-1
 656 692 l 1,66,-1
 930 692 l 1,67,-1
 861 766 l 1,68,-1
 807 716 l 1,69,-1
 135 716 l 1,70,-1
 168 685 l 1,71,72
 183 688 183 688 200.5 690 c 128,-1,73
 218 692 218 692 236 692 c 2,74,75
 236 692 236 692 237 692 c 2,76,-1
 425 692 l 1,77,-1
 425 523 l 1,78,-1
 261 523 l 1,79,-1
 213 551 l 1,80,81
 213 515 213 515 214.5 443 c 128,-1,82
 216 371 216 371 216 263 c 0,83,84
 216 154 216 154 215.5 81 c 128,-1,85
 215 8 215 8 213 -29 c 1,86,-1
 261 -5 l 1,87,-1
 261 52 l 1,88,-1
 822 52 l 1,89,-1
 822 -20 l 1,90,-1
 872 5 l 1,91,92
 867 74 867 74 867 490 c 1,93,-1
 896 518 l 1,94,-1
 840 563 l 1,63,-1
EndSplineSet
Validated: 41
EndChar

StartChar: uniE035
Encoding: 57397 57397 38
Width: 961
Flags: W
LayerCount: 2
Fore
SplineSet
481.950195312 432.299804688 m 5,0,1
 507.690429688 396.599609375 507.690429688 396.599609375 530.504882812 360.049804688 c 132,-1,2
 553.3203125 323.5 553.3203125 323.5 574.379882812 277.599609375 c 4,3,4
 580.23046875 262.299804688 580.23046875 262.299804688 585.495117188 255.5 c 132,-1,5
 590.759765625 248.700195312 590.759765625 248.700195312 595.440429688 248.700195312 c 4,6,7
 602.459960938 248.700195312 602.459960938 248.700195312 607.724609375 266.549804688 c 132,-1,8
 612.990234375 284.400390625 612.990234375 284.400390625 620.009765625 320.099609375 c 4,9,10
 625.860351562 359.200195312 625.860351562 359.200195312 593.099609375 390.650390625 c 132,-1,11
 560.33984375 422.099609375 560.33984375 422.099609375 490.139648438 451 c 5,12,-1
 481.950195312 432.299804688 l 5,0,1
738.1796875 330.299804688 m 4,13,14
 727.650390625 401.700195312 727.650390625 401.700195312 721.21484375 483.299804688 c 132,-1,15
 714.780273438 564.900390625 714.780273438 564.900390625 714.780273438 649.900390625 c 4,16,17
 714.780273438 651.599609375 714.780273438 651.599609375 714.780273438 654.150390625 c 132,-1,18
 714.780273438 656.700195312 714.780273438 656.700195312 714.780273438 660.099609375 c 6,19,-1
 748.709960938 690.700195312 l 5,20,-1
 655.110351562 763.799804688 l 5,21,22
 657.450195312 665.200195312 657.450195312 665.200195312 662.71484375 569.150390625 c 132,-1,23
 667.98046875 473.099609375 667.98046875 473.099609375 676.169921875 379.599609375 c 5,24,-1
 675 396.599609375 l 5,25,26
 679.6796875 325.200195312 679.6796875 325.200195312 694.889648438 258.900390625 c 132,-1,27
 710.099609375 192.599609375 710.099609375 192.599609375 732.330078125 136.5 c 4,28,29
 748.709960938 94 748.709960938 94 772.110351562 56.599609375 c 132,-1,30
 795.509765625 19.2001953125 795.509765625 19.2001953125 823.58984375 -6.2998046875 c 6,31,-1
 825.9296875 -8 l 6,32,33
 839.969726562 -21.599609375 839.969726562 -21.599609375 854.594726562 -31.7998046875 c 132,-1,34
 869.219726562 -42 869.219726562 -42 889.110351562 -47.099609375 c 4,35,36
 897.299804688 -47.099609375 897.299804688 -47.099609375 899.0546875 -40.2998046875 c 132,-1,37
 900.809570312 -33.5 900.809570312 -33.5 897.299804688 -23.2998046875 c 4,38,39
 890.280273438 3.900390625 890.280273438 3.900390625 886.76953125 36.2001953125 c 132,-1,40
 883.259765625 68.5 883.259765625 68.5 883.259765625 99.099609375 c 4,41,42
 883.259765625 104.200195312 883.259765625 104.200195312 883.259765625 106.75 c 132,-1,43
 883.259765625 109.299804688 883.259765625 109.299804688 883.259765625 111 c 4,44,45
 885.599609375 165.400390625 885.599609375 165.400390625 889.110351562 216.400390625 c 132,-1,46
 892.620117188 267.400390625 892.620117188 267.400390625 897.299804688 318.400390625 c 5,47,-1
 897.299804688 309.900390625 l 5,48,-1
 879.75 315 l 5,49,-1
 832.950195312 94 l 5,50,51
 795.509765625 136.5 795.509765625 136.5 770.940429688 197.700195312 c 132,-1,52
 746.370117188 258.900390625 746.370117188 258.900390625 738.1796875 330.299804688 c 4,13,14
450.360351562 672 m 5,53,-1
 486.629882812 707.700195312 l 5,54,-1
 394.200195312 777.400390625 l 5,55,56
 398.879882812 707.700195312 398.879882812 707.700195312 398.879882812 155.200195312 c 4,57,58
 398.879882812 151.799804688 398.879882812 151.799804688 398.879882812 149.25 c 132,-1,59
 398.879882812 146.700195312 398.879882812 146.700195312 398.879882812 141.599609375 c 4,60,61
 398.879882812 121.200195312 398.879882812 121.200195312 394.78515625 103.349609375 c 132,-1,62
 390.690429688 85.5 390.690429688 85.5 381.330078125 73.599609375 c 5,63,-1
 432.809570312 -21.599609375 l 5,64,65
 465.5703125 48.099609375 465.5703125 48.099609375 507.690429688 102.5 c 132,-1,66
 549.809570312 156.900390625 549.809570312 156.900390625 597.780273438 197.700195312 c 6,67,-1
 601.290039062 201.099609375 l 5,68,-1
 591.9296875 218.099609375 l 5,69,-1
 448.01953125 124.599609375 l 5,70,-1
 450.360351562 672 l 5,53,-1
139.139648438 -28.400390625 m 5,71,72
 176.580078125 39.599609375 176.580078125 39.599609375 222.794921875 93.150390625 c 132,-1,73
 269.009765625 146.700195312 269.009765625 146.700195312 321.66015625 182.400390625 c 5,74,-1
 325.169921875 185.799804688 l 5,75,-1
 316.98046875 211.299804688 l 5,76,-1
 160.200195312 111 l 5,77,-1
 160.200195312 619.299804688 l 5,78,-1
 190.620117188 656.700195312 l 5,79,-1
 100.530273438 723 l 5,80,81
 106.379882812 661.799804688 106.379882812 661.799804688 106.379882812 139.900390625 c 4,82,83
 106.379882812 134.799804688 106.379882812 134.799804688 106.379882812 131.400390625 c 4,84,85
 106.379882812 111 106.379882812 111 101.700195312 92.2998046875 c 132,-1,86
 97.01953125 73.599609375 97.01953125 73.599609375 88.830078125 58.2998046875 c 5,87,-1
 139.139648438 -28.400390625 l 5,71,72
190.620117188 432.299804688 m 5,88,89
 215.190429688 400 215.190429688 400 236.25 364.299804688 c 132,-1,90
 257.309570312 328.599609375 257.309570312 328.599609375 274.860351562 284.400390625 c 4,91,92
 281.879882812 262.299804688 281.879882812 262.299804688 287.14453125 252.099609375 c 132,-1,93
 292.41015625 241.900390625 292.41015625 241.900390625 295.919921875 241.900390625 c 4,94,95
 300.599609375 241.900390625 300.599609375 241.900390625 304.110351562 249.549804688 c 132,-1,96
 307.620117188 257.200195312 307.620117188 257.200195312 313.469726562 272.5 c 4,97,98
 316.98046875 284.400390625 316.98046875 284.400390625 319.3203125 298.849609375 c 132,-1,99
 321.66015625 313.299804688 321.66015625 313.299804688 321.66015625 328.599609375 c 4,100,101
 320.490234375 349 320.490234375 349 311.71484375 365.150390625 c 132,-1,102
 302.940429688 381.299804688 302.940429688 381.299804688 290.0703125 391.5 c 4,103,104
 271.349609375 406.799804688 271.349609375 406.799804688 249.120117188 422.099609375 c 132,-1,105
 226.889648438 437.400390625 226.889648438 437.400390625 202.3203125 447.599609375 c 5,106,-1
 198.809570312 451 l 5,107,-1
 190.620117188 432.299804688 l 5,88,89
202.3203125 672 m 5,108,109
 230.400390625 641.400390625 230.400390625 641.400390625 253.21484375 604.849609375 c 132,-1,110
 276.030273438 568.299804688 276.030273438 568.299804688 295.919921875 524.099609375 c 4,111,112
 302.940429688 503.700195312 302.940429688 503.700195312 308.790039062 492.650390625 c 132,-1,113
 314.639648438 481.599609375 314.639648438 481.599609375 321.66015625 481.599609375 c 4,114,115
 327.509765625 481.599609375 327.509765625 481.599609375 331.01953125 489.25 c 132,-1,116
 334.530273438 496.900390625 334.530273438 496.900390625 338.040039062 512.200195312 c 4,117,118
 341.549804688 522.400390625 341.549804688 522.400390625 343.3046875 535.150390625 c 132,-1,119
 345.059570312 547.900390625 345.059570312 547.900390625 345.059570312 559.799804688 c 4,120,121
 342.719726562 583.599609375 342.719726562 583.599609375 333.9453125 599.75 c 132,-1,122
 325.169921875 615.900390625 325.169921875 615.900390625 313.469726562 626.099609375 c 4,123,124
 290.0703125 644.799804688 290.0703125 644.799804688 263.745117188 660.099609375 c 132,-1,125
 237.419921875 675.400390625 237.419921875 675.400390625 208.169921875 687.299804688 c 5,126,-1
 204.66015625 690.700195312 l 5,127,-1
 202.3203125 672 l 5,108,109
574.379882812 512.200195312 m 4,128,129
 583.740234375 493.5 583.740234375 493.5 589.58984375 485 c 132,-1,130
 595.440429688 476.5 595.440429688 476.5 601.290039062 476.5 c 4,131,132
 604.799804688 476.5 604.799804688 476.5 608.89453125 481.599609375 c 132,-1,133
 612.990234375 486.700195312 612.990234375 486.700195312 616.5 498.599609375 c 4,134,135
 620.009765625 508.799804688 620.009765625 508.799804688 622.934570312 519 c 132,-1,136
 625.860351562 529.200195312 625.860351562 529.200195312 625.860351562 542.799804688 c 4,137,138
 623.51953125 563.200195312 623.51953125 563.200195312 616.5 578.5 c 132,-1,139
 609.48046875 593.799804688 609.48046875 593.799804688 597.780273438 604 c 4,140,141
 574.379882812 626.099609375 574.379882812 626.099609375 548.0546875 643.099609375 c 132,-1,142
 521.73046875 660.099609375 521.73046875 660.099609375 493.650390625 670.299804688 c 6,143,-1
 490.139648438 672 l 5,144,-1
 486.629882812 655 l 5,145,146
 511.200195312 624.400390625 511.200195312 624.400390625 533.4296875 588.700195312 c 132,-1,147
 555.66015625 553 555.66015625 553 574.379882812 512.200195312 c 4,128,129
EndSplineSet
EndChar

StartChar: uniE033
Encoding: 57395 57395 39
Width: 654
Flags: W
LayerCount: 2
Fore
SplineSet
495 667 m 1,0,-1
 446 713 l 1,1,-1
 417 677 l 1,2,-1
 135 677 l 1,3,-1
 165 649 l 1,4,-1
 204 655 l 1,5,-1
 422 655 l 1,6,-1
 422 442 l 1,7,-1
 224 442 l 1,8,-1
 167 472 l 1,9,10
 168 431 168 431 169 391.5 c 128,-1,11
 170 352 170 352 170 313 c 2,12,-1
 170 142 l 2,13,14
 170 139 170 139 170.5 136 c 128,-1,15
 171 133 171 133 171 128 c 0,16,17
 171 112 171 112 166.5 96 c 128,-1,18
 162 80 162 80 155 65 c 1,19,-1
 156 67 l 1,20,-1
 189 4 l 1,21,22
 215 28 215 28 297.5 75 c 128,-1,23
 380 122 380 122 519 191 c 1,24,-1
 515 205 l 1,25,-1
 219 89 l 1,26,-1
 219 421 l 1,27,-1
 422 421 l 1,28,-1
 422 388 l 1,29,-1
 471 421 l 1,30,31
 468 451 468 451 467.5 506.5 c 128,-1,32
 467 562 467 562 467 641 c 1,33,-1
 495 667 l 1,0,-1
EndSplineSet
Validated: 9
EndChar

StartChar: uniE032
Encoding: 57394 57394 40
Width: 1017
Flags: W
LayerCount: 2
Fore
SplineSet
251 4 m 2,0,-1
 767 4 l 2,1,2
 782 4 782 4 796 5.5 c 128,-1,3
 810 7 810 7 822 8 c 0,4,5
 839 11 839 11 854.5 26 c 128,-1,6
 870 41 870 41 882 68 c 1,7,8
 854 79 854 79 839 124 c 128,-1,9
 824 169 824 169 822 250 c 1,10,-1
 803 250 l 1,11,12
 804 244 804 244 804 237 c 128,-1,13
 804 230 804 230 804 224 c 0,14,15
 804 188 804 188 801 154.5 c 128,-1,16
 798 121 798 121 794 86 c 1,17,-1
 794 92 l 1,18,19
 789 70 789 70 778 59.5 c 128,-1,20
 767 49 767 49 749 50 c 2,21,-1
 279 50 l 2,22,23
 251 50 251 50 236.5 63.5 c 128,-1,24
 222 77 222 77 222 104 c 2,25,-1
 222 413 l 1,26,-1
 684 413 l 1,27,-1
 684 355 l 1,28,-1
 741 382 l 1,29,30
 738 410 738 410 736.5 478.5 c 128,-1,31
 735 547 735 547 735 655 c 1,32,-1
 767 682 l 1,33,-1
 705 730 l 1,34,-1
 674 691 l 1,35,-1
 135 691 l 1,36,-1
 167 658 l 1,37,38
 186 664 186 664 208 667 c 128,-1,39
 230 670 230 670 254 670 c 1,40,41
 254 670 254 670 254 670 c 1,42,-1
 684 670 l 1,43,-1
 684 434 l 1,44,-1
 222 434 l 1,45,-1
 167 467 l 1,46,47
 170 427 170 427 170.5 338.5 c 128,-1,48
 171 250 171 250 171 113 c 1,49,50
 167 56 167 56 187 29 c 128,-1,51
 207 2 207 2 251 4 c 2,0,-1
EndSplineSet
Validated: 37
EndChar

StartChar: uniE036
Encoding: 57398 57398 41
Width: 1116
Flags: W
LayerCount: 2
Fore
SplineSet
735 83 m 1,0,1
 710 110 710 110 694 145.5 c 128,-1,2
 678 181 678 181 674 221 c 1,3,-1
 702 229 l 1,4,5
 737 206 737 206 766 181.5 c 128,-1,6
 795 157 795 157 822 131 c 0,7,8
 827 122 827 122 833 117.5 c 128,-1,9
 839 113 839 113 843 113 c 0,10,11
 849 113 849 113 852 120.5 c 128,-1,12
 855 128 855 128 860 143 c 0,13,14
 861 146 861 146 862 149 c 128,-1,15
 863 152 863 152 863 155 c 0,16,17
 863 169 863 169 854.5 178.5 c 128,-1,18
 846 188 846 188 834 193 c 0,19,20
 809 205 809 205 779.5 216 c 128,-1,21
 750 227 750 227 719 235 c 2,22,-1
 713 236 l 1,23,24
 747 251 747 251 786 261 c 128,-1,25
 825 271 825 271 867 275 c 1,26,-1
 869 277 l 1,27,-1
 815 331 l 1,28,29
 786 301 786 301 751 277 c 128,-1,30
 716 253 716 253 677 238 c 1,31,-1
 674 236 l 1,32,33
 674 250 674 250 673 264 c 128,-1,34
 672 278 672 278 672 295 c 0,35,36
 672 310 672 310 673 325 c 128,-1,37
 674 340 674 340 674 355 c 1,38,-1
 674 352 l 1,39,-1
 707 370 l 1,40,-1
 653 419 l 1,41,-1
 623 386 l 1,42,-1
 518 386 l 1,43,-1
 518 631 l 1,44,-1
 551 649 l 1,45,-1
 471 692 l 1,46,47
 473 656 473 656 473.5 597.5 c 128,-1,48
 474 539 474 539 474 461 c 2,49,-1
 474 385 l 1,50,-1
 360 385 l 1,51,-1
 360 577 l 1,52,53
 380 590 380 590 403 601.5 c 128,-1,54
 426 613 426 613 450 622 c 2,55,-1
 453 623 l 1,56,-1
 392 673 l 1,57,58
 377 649 377 649 357.5 629.5 c 128,-1,59
 338 610 338 610 314 595 c 0,60,61
 284 571 284 571 248.5 549 c 128,-1,62
 213 527 213 527 177 509 c 1,63,-1
 171 508 l 1,64,-1
 174 497 l 1,65,66
 215 511 215 511 249.5 526 c 128,-1,67
 284 541 284 541 315 554 c 1,68,-1
 315 388 l 1,69,-1
 135 388 l 1,70,-1
 168 356 l 1,71,72
 186 361 186 361 207 364 c 128,-1,73
 228 367 228 367 251 367 c 2,74,75
 251 367 251 367 252.5 367 c 128,-1,76
 254 367 254 367 255 367 c 2,77,-1
 315 367 l 1,78,79
 315 362 315 362 315 356 c 128,-1,80
 315 350 315 350 315 344 c 0,81,82
 315 281 315 281 303 221 c 128,-1,83
 291 161 291 161 269 106 c 1,84,-1
 270 110 l 1,85,86
 246 65 246 65 213 28.5 c 128,-1,87
 180 -8 180 -8 140 -37 c 1,88,-1
 138 -38 l 1,89,-1
 149 -49 l 1,90,91
 201 -17 201 -17 242.5 24 c 128,-1,92
 284 65 284 65 314 115 c 1,93,-1
 315 118 l 1,94,95
 336 164 336 164 348 217.5 c 128,-1,96
 360 271 360 271 360 328 c 0,97,98
 360 338 360 338 360 348 c 128,-1,99
 360 358 360 358 359 367 c 1,100,-1
 474 367 l 1,101,-1
 474 268 l 2,102,103
 474 166 474 166 474 88.5 c 128,-1,104
 474 11 474 11 471 -38 c 1,105,-1
 521 -2 l 1,106,107
 521 44 521 44 518.5 114 c 128,-1,108
 516 184 516 184 516 275 c 2,109,-1
 516 367 l 1,110,-1
 627 367 l 1,111,112
 626 353 626 353 625 339 c 128,-1,113
 624 325 624 325 624 310 c 0,114,115
 624 256 624 256 634 204 c 128,-1,116
 644 152 644 152 662 104 c 1,117,-1
 660 109 l 1,118,119
 680 67 680 67 713 35.5 c 128,-1,120
 746 4 746 4 789 -13 c 0,121,122
 825 -29 825 -29 868 -37.5 c 128,-1,123
 911 -46 911 -46 956 -46 c 0,124,125
 960 -46 960 -46 964.5 -46 c 128,-1,126
 969 -46 969 -46 972 -46 c 1,127,-1
 972 -31 l 1,128,129
 963 -16 963 -16 958 3.5 c 128,-1,130
 953 23 953 23 953 43 c 0,131,132
 953 44 953 44 953 45.5 c 128,-1,133
 953 47 953 47 953 49 c 0,134,135
 951 59 951 59 951 72 c 128,-1,136
 951 85 951 85 951 98 c 0,137,138
 951 110 951 110 951 123.5 c 128,-1,139
 951 137 951 137 953 148 c 1,140,-1
 938 148 l 1,141,-1
 909 4 l 1,142,143
 858 5 858 5 813 26 c 128,-1,144
 768 47 768 47 735 80 c 1,145,-1
 735 83 l 1,0,1
947 442 m 0,146,147
 947 452 947 452 946 465 c 128,-1,148
 945 478 945 478 945 490 c 0,149,150
 945 503 945 503 946 515 c 128,-1,151
 947 527 947 527 947 538 c 1,152,-1
 933 538 l 1,153,-1
 902 397 l 1,154,155
 869 401 869 401 839 412.5 c 128,-1,156
 809 424 809 424 783 442 c 1,157,-1
 785 440 l 1,158,159
 749 464 749 464 725.5 500 c 128,-1,160
 702 536 702 536 696 581 c 1,161,-1
 794 635 l 2,162,163
 816 650 816 650 842.5 660 c 128,-1,164
 869 670 869 670 899 676 c 1,165,-1
 834 730 l 1,166,167
 804 692 804 692 769 660 c 128,-1,168
 734 628 734 628 695 601 c 1,169,-1
 693 599 l 1,170,171
 692 613 692 613 692 628 c 128,-1,172
 692 643 692 643 692 658 c 256,173,174
 692 673 692 673 692 688 c 128,-1,175
 692 703 692 703 693 716 c 1,176,-1
 726 736 l 1,177,-1
 665 785 l 1,178,-1
 636 749 l 1,179,-1
 204 749 l 1,180,-1
 237 716 l 1,181,182
 255 721 255 721 276 724 c 128,-1,183
 297 727 297 727 320 727 c 0,184,185
 323 727 323 727 323 727 c 1,186,-1
 648 727 l 1,187,188
 647 712 647 712 646 694.5 c 128,-1,189
 645 677 645 677 645 661 c 0,190,191
 645 658 645 658 645 655.5 c 128,-1,192
 645 653 645 653 645 652 c 0,193,194
 645 623 645 623 647.5 595.5 c 128,-1,195
 650 568 650 568 654 541 c 1,196,-1
 654 545 l 1,197,198
 659 515 659 515 671.5 489 c 128,-1,199
 684 463 684 463 704 442 c 0,200,201
 725 418 725 418 752 399 c 128,-1,202
 779 380 779 380 812 368 c 0,203,204
 848 355 848 355 889 346 c 128,-1,205
 930 337 930 337 972 334 c 2,206,-1
 975 334 l 1,207,-1
 981 349 l 1,208,209
 966 368 966 368 957 392 c 128,-1,210
 948 416 948 416 947 442 c 0,146,147
746 571 m 1,211,212
 774 554 774 554 798 536 c 128,-1,213
 822 518 822 518 845 499 c 0,214,215
 851 491 851 491 857 487.5 c 128,-1,216
 863 484 863 484 866 484 c 0,217,218
 870 484 870 484 874.5 490 c 128,-1,219
 879 496 879 496 882 509 c 0,220,221
 882 511 882 511 883 513 c 128,-1,222
 884 515 884 515 884 517 c 0,223,224
 884 527 884 527 878 536 c 128,-1,225
 872 545 872 545 863 548 c 0,226,227
 837 560 837 560 809.5 568.5 c 128,-1,228
 782 577 782 577 753 581 c 1,229,-1
 750 581 l 1,230,-1
 746 571 l 1,211,212
EndSplineSet
Validated: 5
EndChar

StartChar: uniE06D
Encoding: 57453 57453 42
Width: 1110
Flags: W
LayerCount: 2
Fore
SplineSet
152 545 m 1,0,-1
 185 512 l 1,1,2
 204 518 204 518 226 520.5 c 128,-1,3
 248 523 248 523 270 523 c 2,4,5
 270 523 270 523 272 523 c 2,6,-1
 459 523 l 1,7,8
 459 518 459 518 459 513 c 128,-1,9
 459 508 459 508 459 502 c 0,10,11
 459 430 459 430 448 360 c 128,-1,12
 437 290 437 290 416 224 c 1,13,-1
 417 230 l 1,14,15
 399 184 399 184 372 144 c 128,-1,16
 345 104 345 104 309 71 c 0,17,18
 272 40 272 40 229 11.5 c 128,-1,19
 186 -17 186 -17 140 -40 c 2,20,-1
 135 -43 l 1,21,-1
 143 -53 l 1,22,23
 195 -34 195 -34 241.5 -10.5 c 128,-1,24
 288 13 288 13 330 41 c 1,25,-1
 327 40 l 1,26,27
 369 68 369 68 401.5 106.5 c 128,-1,28
 434 145 434 145 456 193 c 0,29,30
 506 292 506 292 506 521 c 1,31,-1
 593 521 l 1,32,-1
 593 79 l 2,33,34
 593 76 593 76 592 72 c 128,-1,35
 591 68 591 68 591 64 c 0,36,37
 591 32 591 32 613.5 9.5 c 128,-1,38
 636 -13 636 -13 668 -13 c 0,39,40
 671 -13 671 -13 674 -12 c 128,-1,41
 677 -11 677 -11 680 -11 c 2,42,-1
 876 -11 l 2,43,44
 879 -11 879 -11 881.5 -12 c 128,-1,45
 884 -13 884 -13 887 -13 c 0,46,47
 915 -13 915 -13 939 2 c 128,-1,48
 963 17 963 17 975 43 c 1,49,50
 953 50 953 50 939.5 68 c 128,-1,51
 926 86 926 86 926 110 c 0,52,53
 926 112 926 112 926 113 c 0,54,55
 924 142 924 142 923.5 166.5 c 128,-1,56
 923 191 923 191 923 212 c 1,57,-1
 908 212 l 1,58,59
 905 175 905 175 901 145 c 128,-1,60
 897 115 897 115 896 89 c 0,61,62
 893 64 893 64 884 50.5 c 128,-1,63
 875 37 875 37 861 34 c 2,64,-1
 711 34 l 2,65,66
 680 34 680 34 663.5 48 c 128,-1,67
 647 62 647 62 647 92 c 2,68,-1
 647 521 l 1,69,-1
 957 521 l 1,70,-1
 885 605 l 1,71,-1
 825 545 l 1,72,-1
 509 545 l 1,73,-1
 509 718 l 1,74,-1
 545 746 l 1,75,-1
 455 791 l 1,76,77
 458 743 458 743 458.5 681 c 128,-1,78
 459 619 459 619 459 545 c 1,79,-1
 152 545 l 1,0,-1
627 746 m 1,80,81
 663 721 663 721 693 692.5 c 128,-1,82
 723 664 723 664 749 632 c 1,83,-1
 750 631 l 1,84,85
 759 614 759 614 766.5 606 c 128,-1,86
 774 598 774 598 779 598 c 0,87,88
 785 598 785 598 788 603 c 128,-1,89
 791 608 791 608 795 617 c 0,90,91
 800 626 800 626 802 636 c 128,-1,92
 804 646 804 646 804 655 c 256,93,94
 804 664 804 664 802.5 671.5 c 128,-1,95
 801 679 801 679 798 685 c 0,96,97
 789 695 789 695 778.5 702.5 c 128,-1,98
 768 710 768 710 756 715 c 0,99,100
 731 725 731 725 701.5 735.5 c 128,-1,101
 672 746 672 746 641 755 c 2,102,-1
 635 757 l 1,103,-1
 627 746 l 1,80,81
EndSplineSet
Validated: 9
EndChar

StartChar: uniE06E
Encoding: 57454 57454 43
Width: 1096
Flags: W
LayerCount: 2
Fore
SplineSet
168 545 m 1,0,-1
 201 512 l 1,1,2
 219 518 219 518 240 520.5 c 128,-1,3
 261 523 261 523 284 523 c 0,4,5
 287 523 287 523 288 523 c 2,6,-1
 461 523 l 1,7,8
 456 448 456 448 441 376.5 c 128,-1,9
 426 305 426 305 402 238 c 1,10,-1
 405 245 l 1,11,12
 386 194 386 194 359 150 c 128,-1,13
 332 106 332 106 297 70 c 0,14,15
 263 35 263 35 223 7.5 c 128,-1,16
 183 -20 183 -20 140 -43 c 1,17,-1
 135 -44 l 1,18,-1
 143 -55 l 1,19,20
 201 -32 201 -32 253 -1.5 c 128,-1,21
 305 29 305 29 347 68 c 0,22,23
 386 103 386 103 414.5 146.5 c 128,-1,24
 443 190 443 190 461 239 c 1,25,-1
 461 242 l 1,26,27
 482 304 482 304 495.5 374.5 c 128,-1,28
 509 445 509 445 515 520 c 1,29,-1
 515 523 l 1,30,-1
 602 523 l 1,31,-1
 602 61 l 2,32,33
 602 22 602 22 623 2.5 c 128,-1,34
 644 -17 644 -17 681 -16 c 2,35,-1
 866 -16 l 2,36,37
 867 -16 867 -16 868.5 -16 c 128,-1,38
 870 -16 870 -16 872 -16 c 0,39,40
 902 -16 902 -16 926 0.5 c 128,-1,41
 950 17 950 17 962 44 c 1,42,43
 945 47 945 47 934.5 60 c 128,-1,44
 924 73 924 73 923 89 c 0,45,46
 918 116 918 116 915 146 c 128,-1,47
 912 176 912 176 912 208 c 2,48,49
 912 208 912 208 912 209.5 c 128,-1,50
 912 211 912 211 912 211 c 1,51,-1
 894 211 l 1,52,53
 894 176 894 176 891 142.5 c 128,-1,54
 888 109 888 109 882 74 c 1,55,-1
 884 82 l 1,56,57
 881 59 881 59 872 47 c 128,-1,58
 863 35 863 35 848 32 c 2,59,-1
 710 32 l 2,60,61
 680 32 680 32 665.5 46.5 c 128,-1,62
 651 61 651 61 653 94 c 2,63,-1
 653 526 l 1,64,-1
 927 526 l 1,65,-1
 848 605 l 1,66,-1
 791 545 l 1,67,-1
 515 545 l 1,68,69
 519 602 519 602 521.5 646.5 c 128,-1,70
 524 691 524 691 527 722 c 1,71,-1
 555 751 l 1,72,-1
 464 791 l 1,73,74
 464 731 464 731 464 670.5 c 128,-1,75
 464 610 464 610 461 550 c 1,76,-1
 168 545 l 1,0,-1
EndSplineSet
Validated: 41
EndChar

StartChar: uniE06F
Encoding: 57455 57455 44
Width: 1051
Flags: W
LayerCount: 2
Fore
SplineSet
846 515 m 1,0,-1
 792 572 l 1,1,-1
 752 533 l 1,2,-1
 447 533 l 1,3,4
 467 574 467 574 484 613.5 c 128,-1,5
 501 653 501 653 515 692 c 1,6,-1
 917 692 l 1,7,-1
 842 767 l 1,8,-1
 786 713 l 1,9,-1
 152 713 l 1,10,-1
 180 685 l 1,11,-1
 225 692 l 1,12,-1
 453 692 l 1,13,14
 434 626 434 626 409 567.5 c 128,-1,15
 384 509 384 509 351 455 c 1,16,-1
 354 460 l 1,17,18
 318 400 318 400 274.5 349 c 128,-1,19
 231 298 231 298 180 256 c 1,20,-1
 179 254 l 1,21,-1
 189 244 l 1,22,23
 246 281 246 281 295 326 c 128,-1,24
 344 371 344 371 386 424 c 1,25,26
 419 395 419 395 446 360 c 128,-1,27
 473 325 473 325 494 286 c 2,28,-1
 495 284 l 1,29,30
 501 263 501 263 508.5 253.5 c 128,-1,31
 516 244 516 244 524 244 c 0,32,33
 531 244 531 244 532.5 248.5 c 128,-1,34
 534 253 534 253 540 263 c 0,35,36
 546 272 546 272 549 282.5 c 128,-1,37
 552 293 552 293 552 305 c 1,38,39
 552 305 552 305 552 305 c 1,40,41
 551 320 551 320 545 332 c 128,-1,42
 539 344 539 344 530 355 c 0,43,44
 500 379 500 379 467 400 c 128,-1,45
 434 421 434 421 398 437 c 2,46,-1
 393 439 l 1,47,48
 402 452 402 452 414 470 c 128,-1,49
 426 488 426 488 441 512 c 1,50,-1
 755 512 l 1,51,52
 732 445 732 445 701.5 385.5 c 128,-1,53
 671 326 671 326 630 275 c 1,54,-1
 632 277 l 1,55,56
 590 223 590 223 538 179.5 c 128,-1,57
 486 136 486 136 428 103 c 1,58,-1
 425 101 l 1,59,60
 362 67 362 67 291.5 37.5 c 128,-1,61
 221 8 221 8 144 -14 c 1,62,-1
 135 -16 l 1,63,-1
 141 -31 l 1,64,65
 239 -8 239 -8 323.5 22.5 c 128,-1,66
 408 53 408 53 488 92 c 1,67,-1
 479 88 l 1,68,69
 540 118 540 118 592 158.5 c 128,-1,70
 644 199 644 199 686 250 c 0,71,72
 725 301 725 301 756.5 361 c 128,-1,73
 788 421 788 421 809 485 c 1,74,-1
 810 491 l 1,75,-1
 846 515 l 1,0,-1
EndSplineSet
Validated: 5
EndChar

StartChar: uniE070
Encoding: 57456 57456 45
Width: 1116
Flags: W
LayerCount: 2
Fore
SplineSet
677 220 m 1,0,-1
 431 220 l 1,1,-1
 431 349 l 1,2,-1
 677 349 l 1,3,-1
 677 220 l 1,0,-1
677 371 m 1,4,-1
 431 371 l 1,5,-1
 431 491 l 1,6,-1
 677 491 l 1,7,-1
 677 371 l 1,4,-1
677 512 m 1,8,-1
 431 512 l 1,9,-1
 431 628 l 1,10,-1
 677 628 l 1,11,-1
 677 512 l 1,8,-1
836 -22 m 0,12,13
 861 -55 861 -55 876 -55 c 0,14,15
 879 -55 879 -55 883 -50.5 c 128,-1,16
 887 -46 887 -46 890 -37 c 0,17,18
 894 -29 894 -29 895.5 -21 c 128,-1,19
 897 -13 897 -13 897 -4 c 0,20,21
 897 11 897 11 892 24.5 c 128,-1,22
 887 38 887 38 878 49 c 0,23,24
 867 62 867 62 810 93 c 128,-1,25
 753 124 753 124 648 173 c 1,26,-1
 638 163 l 1,27,28
 693 121 693 121 742 75 c 128,-1,29
 791 29 791 29 836 -22 c 0,12,13
317 65 m 0,30,31
 281 35 281 35 242.5 8 c 128,-1,32
 204 -19 204 -19 162 -43 c 1,33,-1
 158 -46 l 1,34,-1
 164 -56 l 1,35,36
 227 -37 227 -37 281 -8.5 c 128,-1,37
 335 20 335 20 384 55 c 1,38,-1
 381 52 l 1,39,40
 407 76 407 76 437.5 94 c 128,-1,41
 468 112 468 112 501 124 c 1,42,-1
 504 124 l 1,43,-1
 431 187 l 1,44,45
 408 151 408 151 379.5 121 c 128,-1,46
 351 91 351 91 317 65 c 0,30,31
431 650 m 1,47,-1
 431 730 l 1,48,-1
 459 752 l 1,49,-1
 377 787 l 1,50,51
 378 748 378 748 379 713.5 c 128,-1,52
 380 679 380 679 380 650 c 1,53,-1
 185 650 l 1,54,-1
 216 617 l 1,55,56
 236 623 236 623 257 625.5 c 128,-1,57
 278 628 278 628 300 628 c 2,58,59
 300 628 300 628 301.5 628 c 128,-1,60
 303 628 303 628 303 628 c 1,61,-1
 381 628 l 1,62,-1
 381 220 l 1,63,-1
 135 220 l 1,64,-1
 168 187 l 1,65,66
 188 193 188 193 209.5 196.5 c 128,-1,67
 231 200 231 200 255 200 c 2,68,-1
 981 200 l 1,69,-1
 899 284 l 1,70,-1
 837 220 l 1,71,-1
 726 220 l 1,72,-1
 726 628 l 1,73,-1
 936 628 l 1,74,-1
 866 701 l 1,75,-1
 816 652 l 1,76,-1
 726 652 l 1,77,-1
 726 722 l 1,78,-1
 755 752 l 1,79,-1
 674 791 l 1,80,81
 674 757 674 757 675.5 721.5 c 128,-1,82
 677 686 677 686 677 650 c 1,83,-1
 431 650 l 1,47,-1
EndSplineSet
Validated: 9
EndChar

StartChar: uniE072
Encoding: 57458 57458 46
Width: 1121
Flags: W
LayerCount: 2
Fore
SplineSet
675 181 m 1,0,1
 729 238 729 238 775.5 302.5 c 128,-1,2
 822 367 822 367 860 437 c 1,3,-1
 863 445 l 1,4,-1
 899 455 l 1,5,-1
 816 517 l 1,6,7
 801 472 801 472 783 433 c 128,-1,8
 765 394 765 394 744 358 c 1,9,-1
 746 361 l 1,10,11
 723 323 723 323 699 290 c 128,-1,12
 675 257 675 257 650 227 c 1,13,14
 623 302 623 302 606.5 387 c 128,-1,15
 590 472 590 472 588 563 c 1,16,-1
 957 563 l 1,17,-1
 885 635 l 1,18,-1
 836 586 l 1,19,-1
 585 586 l 1,20,21
 584 626 584 626 582.5 660.5 c 128,-1,22
 581 695 581 695 581 727 c 1,23,-1
 614 752 l 1,24,-1
 527 791 l 1,25,26
 528 764 528 764 530.5 713 c 128,-1,27
 533 662 533 662 534 586 c 1,28,-1
 303 586 l 1,29,-1
 249 619 l 1,30,31
 249 592 249 592 250 562.5 c 128,-1,32
 251 533 251 533 251 503 c 0,33,34
 251 445 251 445 248.5 387 c 128,-1,35
 246 329 246 329 242 272 c 1,36,-1
 243 283 l 1,37,38
 237 190 237 190 209.5 106.5 c 128,-1,39
 182 23 182 23 135 -49 c 1,40,-1
 137 -46 l 1,41,-1
 147 -53 l 1,42,43
 198 1 198 1 232.5 67.5 c 128,-1,44
 267 134 267 134 284 209 c 1,45,-1
 284 214 l 1,46,47
 294 277 294 277 299.5 349 c 128,-1,48
 305 421 305 421 305 496 c 0,49,50
 305 514 305 514 305 532 c 128,-1,51
 305 550 305 550 303 566 c 1,52,-1
 305 563 l 1,53,-1
 539 563 l 1,54,55
 543 463 543 463 561 367.5 c 128,-1,56
 579 272 579 272 611 182 c 1,57,-1
 608 191 l 1,58,59
 540 127 540 127 462 74.5 c 128,-1,60
 384 22 384 22 297 -16 c 2,61,-1
 290 -19 l 1,62,-1
 297 -32 l 1,63,64
 396 -1 396 -1 482.5 45 c 128,-1,65
 569 91 569 91 644 149 c 1,66,-1
 642 148 l 1,67,68
 684 98 684 98 736.5 59 c 128,-1,69
 789 20 789 20 849 -7 c 1,70,-1
 854 -8 l 1,71,72
 879 -19 879 -19 909 -27 c 128,-1,73
 939 -35 939 -35 972 -40 c 1,74,-1
 975 -40 l 2,75,76
 981 -40 981 -40 984 -40.5 c 128,-1,77
 987 -41 987 -41 986 -46 c 0,78,79
 984 -50 984 -50 982.5 -46.5 c 128,-1,80
 981 -43 981 -43 981 -37 c 2,81,-1
 974 -29 l 2,82,83
 960 -8 960 -8 952.5 16.5 c 128,-1,84
 945 41 945 41 945 70 c 0,85,86
 945 71 945 71 945 71 c 2,87,88
 944 88 944 88 944 106 c 128,-1,89
 944 124 944 124 944 142 c 0,90,91
 944 161 944 161 944 180 c 128,-1,92
 944 199 944 199 945 217 c 1,93,-1
 945 214 l 1,94,-1
 930 217 l 1,95,96
 923 175 923 175 914 129 c 128,-1,97
 905 83 905 83 894 32 c 1,98,99
 828 55 828 55 772.5 92.5 c 128,-1,100
 717 130 717 130 675 181 c 1,0,1
665 752 m 1,101,102
 695 727 695 727 722 699 c 128,-1,103
 749 671 749 671 771 641 c 1,104,-1
 773 640 l 1,105,106
 780 625 780 625 786 617.5 c 128,-1,107
 792 610 792 610 798 610 c 0,108,109
 803 610 803 610 806.5 614.5 c 128,-1,110
 810 619 810 619 816 628 c 0,111,112
 821 637 821 637 824 646.5 c 128,-1,113
 827 656 827 656 827 667 c 0,114,115
 827 668 827 668 827 669.5 c 128,-1,116
 827 671 827 671 827 671 c 2,117,118
 827 685 827 685 815.5 696 c 128,-1,119
 804 707 804 707 785 718 c 0,120,121
 762 728 762 728 735 738.5 c 128,-1,122
 708 749 708 749 680 760 c 2,123,-1
 672 763 l 1,124,-1
 665 752 l 1,101,102
EndSplineSet
Validated: 5
EndChar

StartChar: uniE074
Encoding: 57460 57460 47
Width: 1093
Flags: W
LayerCount: 2
Fore
SplineSet
866 277 m 1,0,1
 881 247 881 247 891.5 232.5 c 128,-1,2
 902 218 902 218 909 218 c 0,3,4
 917 218 917 218 919 223.5 c 128,-1,5
 921 229 921 229 927 238 c 0,6,7
 932 245 932 245 935 254 c 128,-1,8
 938 263 938 263 938 272 c 0,9,10
 935 289 935 289 929 304 c 128,-1,11
 923 319 923 319 912 331 c 0,12,13
 900 349 900 349 836.5 395.5 c 128,-1,14
 773 442 773 442 659 518 c 1,15,-1
 647 508 l 1,16,17
 708 457 708 457 762 400 c 128,-1,18
 816 343 816 343 861 280 c 1,19,-1
 866 277 l 1,0,1
603 523 m 1,20,-1
 542 559 l 1,21,22
 563 601 563 601 580 637 c 128,-1,23
 597 673 597 673 614 703 c 1,24,-1
 959 703 l 1,25,-1
 884 779 l 1,26,-1
 830 724 l 1,27,-1
 143 724 l 1,28,-1
 174 692 l 1,29,30
 192 698 192 698 213 700.5 c 128,-1,31
 234 703 234 703 255 703 c 0,32,33
 258 703 258 703 259.5 703 c 128,-1,34
 261 703 261 703 263 703 c 2,35,-1
 545 703 l 1,36,37
 510 614 510 614 465 537 c 128,-1,38
 420 460 420 460 363 392 c 1,39,-1
 365 394 l 1,40,41
 315 332 315 332 258 278 c 128,-1,42
 201 224 201 224 140 178 c 1,43,-1
 135 175 l 1,44,-1
 143 160 l 1,45,46
 200 194 200 194 252 232 c 0,47,48
 305 271 305 271 351.5 315 c 128,-1,49
 398 359 398 359 440 409 c 0,50,51
 480 457 480 457 516 511 c 2,52,-1
 519 515 l 1,53,-1
 519 197 l 2,54,55
 519 146 519 146 518.5 86 c 128,-1,56
 518 26 518 26 515 -43 c 1,57,-1
 576 -16 l 1,58,59
 575 13 575 13 574 54 c 128,-1,60
 573 95 573 95 573 149 c 2,61,-1
 573 496 l 1,62,-1
 603 523 l 1,20,-1
EndSplineSet
Validated: 9
EndChar

StartChar: uniE075
Encoding: 57461 57461 48
Width: 1105
Flags: W
LayerCount: 2
Fore
SplineSet
279 595 m 1,0,1
 294 599 294 599 312 602 c 128,-1,2
 330 605 330 605 348 605 c 2,3,-1
 524 605 l 1,4,-1
 524 457 l 1,5,-1
 135 457 l 1,6,-1
 168 425 l 1,7,8
 183 430 183 430 200.5 433 c 128,-1,9
 218 436 218 436 236 436 c 2,10,-1
 524 436 l 1,11,-1
 524 74 l 1,12,13
 470 98 470 98 425.5 132.5 c 128,-1,14
 381 167 381 167 347 211 c 1,15,-1
 345 212 l 1,16,17
 351 241 351 241 358 265 c 128,-1,18
 365 289 365 289 374 313 c 1,19,-1
 371 307 l 1,20,21
 377 317 377 317 383.5 324.5 c 128,-1,22
 390 332 390 332 401 338 c 1,23,-1
 321 388 l 1,24,25
 315 320 315 320 301 257 c 128,-1,26
 287 194 287 194 264 134 c 1,27,-1
 267 142 l 1,28,29
 245 88 245 88 212.5 43 c 128,-1,30
 180 -2 180 -2 140 -40 c 1,31,-1
 147 -50 l 1,32,33
 215 -8 215 -8 264.5 54 c 128,-1,34
 314 116 314 116 338 193 c 2,35,-1
 339 196 l 1,36,37
 365 157 365 157 395 122.5 c 128,-1,38
 425 88 425 88 459 58 c 1,39,40
 494 35 494 35 533.5 20 c 128,-1,41
 573 5 573 5 618 -1 c 0,42,43
 680 -11 680 -11 749.5 -18.5 c 128,-1,44
 819 -26 819 -26 891 -28 c 2,45,-1
 896 -28 l 1,46,47
 899 -2 899 -2 917.5 13.5 c 128,-1,48
 936 29 936 29 971 37 c 1,49,-1
 971 52 l 1,50,51
 930 47 930 47 890.5 45.5 c 128,-1,52
 851 44 851 44 812 44 c 0,53,54
 807 44 807 44 802 44 c 128,-1,55
 797 44 797 44 791 44 c 0,56,57
 734 44 734 44 677 48 c 128,-1,58
 620 52 620 52 564 61 c 1,59,-1
 572 59 l 1,60,-1
 572 241 l 1,61,-1
 876 241 l 1,62,-1
 807 313 l 1,63,-1
 753 263 l 1,64,-1
 572 263 l 1,65,-1
 572 374 l 1,66,-1
 605 398 l 1,67,-1
 533 436 l 1,68,-1
 948 436 l 1,69,-1
 879 511 l 1,70,-1
 822 457 l 1,71,-1
 572 457 l 1,72,-1
 572 605 l 1,73,-1
 851 605 l 1,74,-1
 782 682 l 1,75,-1
 732 626 l 1,76,-1
 572 626 l 1,77,-1
 572 725 l 1,78,-1
 605 751 l 1,79,-1
 518 791 l 1,80,81
 518 767 518 767 520 726.5 c 128,-1,82
 522 686 522 686 522 628 c 1,83,-1
 246 628 l 1,84,-1
 279 595 l 1,0,1
EndSplineSet
Validated: 5
EndChar

StartChar: uniE076
Encoding: 57462 57462 49
Width: 1099
Flags: W
LayerCount: 2
Fore
SplineSet
381 523 m 1,0,-1
 410 545 l 1,1,-1
 330 574 l 1,2,3
 324 530 324 530 311.5 491 c 128,-1,4
 299 452 299 452 281 416 c 1,5,-1
 281 419 l 1,6,7
 260 380 260 380 233.5 347 c 128,-1,8
 207 314 207 314 177 284 c 1,9,-1
 185 271 l 1,10,11
 215 290 215 290 240.5 312 c 128,-1,12
 266 334 266 334 290 359 c 0,13,14
 305 376 305 376 318.5 395.5 c 128,-1,15
 332 415 332 415 342 434 c 2,16,-1
 344 437 l 1,17,18
 366 415 366 415 386.5 388.5 c 128,-1,19
 407 362 407 362 422 334 c 2,20,-1
 423 332 l 2,21,22
 429 317 429 317 433.5 310.5 c 128,-1,23
 438 304 438 304 441 304 c 0,24,25
 446 304 446 304 449.5 309 c 128,-1,26
 453 314 453 314 458 325 c 0,27,28
 461 332 461 332 463 340.5 c 128,-1,29
 465 349 465 349 467 358 c 0,30,31
 464 371 464 371 456.5 383 c 128,-1,32
 449 395 449 395 437 403 c 0,33,34
 419 416 419 416 399.5 429 c 128,-1,35
 380 442 380 442 357 454 c 1,36,-1
 354 455 l 1,37,38
 362 473 362 473 369.5 490.5 c 128,-1,39
 377 508 377 508 381 523 c 1,0,-1
788 520 m 1,40,-1
 818 545 l 1,41,-1
 741 578 l 1,42,43
 738 547 738 547 732 518.5 c 128,-1,44
 726 490 726 490 717 463 c 1,45,-1
 719 467 l 1,46,47
 711 443 711 443 703 421.5 c 128,-1,48
 695 400 695 400 684 380 c 1,49,-1
 686 383 l 1,50,51
 675 361 675 361 662.5 342 c 128,-1,52
 650 323 650 323 636 308 c 1,53,54
 620 326 620 326 605.5 348.5 c 128,-1,55
 591 371 591 371 581 395 c 1,56,-1
 579 397 l 1,57,-1
 579 595 l 1,58,-1
 924 595 l 1,59,-1
 851 664 l 1,60,-1
 801 616 l 1,61,-1
 579 616 l 1,62,-1
 579 725 l 1,63,-1
 612 752 l 1,64,-1
 522 794 l 1,65,66
 524 766 524 766 524.5 741 c 128,-1,67
 525 716 525 716 525 697 c 2,68,-1
 525 614 l 1,69,-1
 180 614 l 1,70,-1
 213 581 l 1,71,72
 233 587 233 587 255.5 591 c 128,-1,73
 278 595 278 595 302 595 c 2,74,-1
 525 595 l 1,75,-1
 525 397 l 1,76,77
 491 337 491 337 451 283.5 c 128,-1,78
 411 230 411 230 365 184 c 0,79,80
 315 134 315 134 259 92 c 128,-1,81
 203 50 203 50 140 17 c 1,82,-1
 135 14 l 1,83,-1
 143 4 l 1,84,85
 195 25 195 25 241 49.5 c 128,-1,86
 287 74 287 74 327 104 c 1,87,-1
 326 103 l 1,88,89
 384 143 384 143 433.5 192 c 128,-1,90
 483 241 483 241 524 296 c 1,91,-1
 525 299 l 1,92,-1
 525 130 l 2,93,94
 525 101 525 101 525 55.5 c 128,-1,95
 525 10 525 10 522 -55 c 1,96,-1
 584 -29 l 1,97,98
 581 32 581 32 580 76.5 c 128,-1,99
 579 121 579 121 579 148 c 2,100,-1
 579 353 l 1,101,102
 600 307 600 307 626.5 266.5 c 128,-1,103
 653 226 653 226 684 191 c 0,104,105
 726 139 726 139 777 95.5 c 128,-1,106
 828 52 828 52 887 19 c 2,107,-1
 891 17 l 1,108,109
 900 37 900 37 919.5 49 c 128,-1,110
 939 61 939 61 962 61 c 0,111,112
 965 61 965 61 965 61 c 1,113,-1
 965 76 l 1,114,115
 887 97 887 97 821 136 c 128,-1,116
 755 175 755 175 702 229 c 0,117,118
 684 248 684 248 667 266 c 128,-1,119
 650 284 650 284 638 301 c 1,120,-1
 644 296 l 1,121,122
 680 322 680 322 707.5 356.5 c 128,-1,123
 735 391 735 391 755 433 c 1,124,125
 783 413 783 413 806.5 387.5 c 128,-1,126
 830 362 830 362 848 334 c 2,127,-1
 849 332 l 2,128,129
 857 317 857 317 863 310.5 c 128,-1,130
 869 304 869 304 875 304 c 0,131,132
 879 304 879 304 882 307.5 c 128,-1,133
 885 311 885 311 890 319 c 0,134,135
 893 325 893 325 894.5 332.5 c 128,-1,136
 896 340 896 340 896 347 c 0,137,138
 896 362 896 362 889 375 c 128,-1,139
 882 388 882 388 870 395 c 0,140,141
 846 413 846 413 819 427.5 c 128,-1,142
 792 442 792 442 762 452 c 1,143,-1
 759 454 l 1,144,-1
 788 520 l 1,40,-1
EndSplineSet
Validated: 9
EndChar

StartChar: uniE0A0
Encoding: 57504 57504 50
Width: 1114
Flags: W
LayerCount: 2
Fore
SplineSet
596 518 m 1,0,1
 608 448 608 448 633 383 c 0,2,3
 660 319 660 319 697 262 c 128,-1,4
 734 205 734 205 782 157 c 256,5,6
 830 109 830 109 887 71 c 1,7,-1
 888 70 l 1,8,9
 894 91 894 91 916.5 104.5 c 128,-1,10
 939 118 939 118 980 124 c 1,11,-1
 980 139 l 1,12,13
 719 203 719 203 614 518 c 1,14,-1
 959 518 l 1,15,-1
 879 598 l 1,16,-1
 825 539 l 1,17,-1
 578 539 l 1,18,-1
 578 721 l 1,19,-1
 615 749 l 1,20,-1
 521 791 l 1,21,22
 521 739 521 739 522.5 676.5 c 128,-1,23
 524 614 524 614 524 542 c 1,24,-1
 155 542 l 1,25,-1
 188 509 l 1,26,27
 206 514 206 514 227.5 517 c 128,-1,28
 249 520 249 520 270 520 c 0,29,30
 273 520 273 520 275 520 c 2,31,-1
 485 520 l 1,32,33
 458 449 458 449 422 383 c 256,34,35
 386 317 386 317 341.5 258.5 c 128,-1,36
 297 200 297 200 246 149 c 256,37,38
 195 98 195 98 138 55 c 1,39,-1
 135 52 l 1,40,-1
 143 41 l 1,41,42
 206 77 206 77 261 122 c 0,43,44
 318 169 318 169 365.5 221.5 c 128,-1,45
 413 274 413 274 452 334 c 256,46,47
 491 394 491 394 519 458 c 2,48,-1
 522 464 l 1,49,-1
 522 322 l 2,50,51
 522 251 522 251 521.5 186.5 c 128,-1,52
 521 122 521 122 521 62 c 0,53,54
 519 2 519 2 518 -52 c 1,55,-1
 579 -23 l 1,56,-1
 579 53 l 2,57,58
 579 101 579 101 578.5 168.5 c 128,-1,59
 578 236 578 236 578 323 c 2,60,-1
 578 518 l 1,61,-1
 596 518 l 1,0,1
EndSplineSet
Validated: 9
EndChar

StartChar: uniE0A6
Encoding: 57510 57510 51
Width: 1098
Flags: W
LayerCount: 2
Fore
SplineSet
219 631 m 1,0,1
 239 635 239 635 260.5 638 c 128,-1,2
 282 641 282 641 305 641 c 1,3,4
 305 641 305 641 305 641 c 1,5,-1
 521 641 l 1,6,-1
 521 52 l 1,7,-1
 135 52 l 1,8,-1
 168 20 l 1,9,10
 186 25 186 25 207 28 c 128,-1,11
 228 31 228 31 251 31 c 0,12,13
 254 31 254 31 255 31 c 2,14,-1
 963 31 l 1,15,-1
 879 113 l 1,16,-1
 819 52 l 1,17,-1
 576 52 l 1,18,-1
 576 644 l 1,19,-1
 914 644 l 1,20,-1
 840 718 l 1,21,-1
 786 662 l 1,22,-1
 186 662 l 1,23,-1
 219 631 l 1,0,1
EndSplineSet
Validated: 5
EndChar

StartChar: uniE0A7
Encoding: 57511 57511 52
Width: 1086
Flags: W
LayerCount: 2
Fore
SplineSet
779 208 m 1,0,-1
 558 208 l 1,1,-1
 558 338 l 1,2,-1
 779 338 l 1,3,-1
 779 208 l 1,0,-1
510 208 m 1,4,-1
 294 208 l 1,5,-1
 294 338 l 1,6,-1
 510 338 l 1,7,-1
 510 208 l 1,4,-1
779 359 m 1,8,-1
 558 359 l 1,9,-1
 558 482 l 1,10,-1
 779 482 l 1,11,-1
 779 359 l 1,8,-1
510 359 m 1,12,-1
 294 359 l 1,13,-1
 294 482 l 1,14,-1
 510 482 l 1,15,-1
 510 359 l 1,12,-1
651 772 m 1,16,17
 674 754 674 754 692 732 c 128,-1,18
 710 710 710 710 723 686 c 1,19,-1
 725 685 l 1,20,21
 731 668 731 668 737.5 660 c 128,-1,22
 744 652 744 652 749 652 c 0,23,24
 755 652 755 652 756.5 656.5 c 128,-1,25
 758 661 758 661 762 668 c 0,26,27
 765 674 765 674 768 682.5 c 128,-1,28
 771 691 771 691 771 698 c 0,29,30
 770 709 770 709 765.5 718 c 128,-1,31
 761 727 761 727 755 733 c 0,32,33
 734 751 734 751 709 763 c 128,-1,34
 684 775 684 775 656 782 c 1,35,-1
 651 772 l 1,16,17
644 19 m 1,36,37
 678 13 678 13 703.5 -8 c 128,-1,38
 729 -29 729 -29 743 -59 c 1,39,40
 761 -55 761 -55 776 -46.5 c 128,-1,41
 791 -38 791 -38 804 -28 c 0,42,43
 815 -17 815 -17 821 -3 c 128,-1,44
 827 11 827 11 827 28 c 0,45,46
 827 31 827 31 826 33 c 128,-1,47
 825 35 825 35 825 38 c 2,48,-1
 825 467 l 1,49,-1
 861 490 l 1,50,-1
 813 539 l 1,51,-1
 777 503 l 1,52,-1
 558 503 l 1,53,-1
 558 611 l 1,54,-1
 951 611 l 1,55,-1
 890 677 l 1,56,-1
 846 634 l 1,57,-1
 558 634 l 1,58,-1
 558 728 l 1,59,-1
 590 752 l 1,60,-1
 507 796 l 1,61,62
 509 760 509 760 509.5 718.5 c 128,-1,63
 510 677 510 677 510 634 c 1,64,-1
 135 634 l 1,65,-1
 167 601 l 1,66,67
 186 607 186 607 207 610 c 128,-1,68
 228 613 228 613 251 613 c 2,69,70
 251 613 251 613 252.5 613 c 128,-1,71
 254 613 254 613 254 613 c 1,72,-1
 510 613 l 1,73,-1
 510 503 l 1,74,-1
 294 503 l 1,75,-1
 245 533 l 1,76,77
 246 475 246 475 247.5 403.5 c 128,-1,78
 249 332 249 332 249 250 c 0,79,80
 249 166 249 166 248.5 88 c 128,-1,81
 248 10 248 10 245 -59 c 1,82,-1
 294 -35 l 1,83,-1
 294 185 l 1,84,-1
 510 185 l 1,85,86
 510 142 510 142 510 80.5 c 128,-1,87
 510 19 510 19 507 -61 c 1,88,-1
 561 -40 l 1,89,90
 560 -13 560 -13 559 43.5 c 128,-1,91
 558 100 558 100 558 185 c 1,92,-1
 779 185 l 1,93,-1
 779 55 l 2,94,95
 779 53 779 53 779 51.5 c 128,-1,96
 779 50 779 50 779 49 c 0,97,98
 779 38 779 38 770.5 30 c 128,-1,99
 762 22 762 22 752 22 c 0,100,101
 750 22 750 22 748.5 22 c 128,-1,102
 747 22 747 22 746 22 c 0,103,104
 717 23 717 23 691 26 c 128,-1,105
 665 29 665 29 639 34 c 1,106,-1
 644 32 l 1,107,-1
 644 19 l 1,36,37
EndSplineSet
Validated: 9
EndChar

StartChar: uniE0A8
Encoding: 57512 57512 53
Width: 1123
Flags: W
LayerCount: 2
Fore
SplineSet
294 334 m 1,0,1
 312 338 312 338 332.5 341 c 128,-1,2
 353 344 353 344 375 344 c 0,3,4
 377 344 377 344 377 344 c 1,5,-1
 861 344 l 1,6,-1
 785 421 l 1,7,-1
 729 367 l 1,8,-1
 261 367 l 1,9,-1
 294 334 l 1,0,1
240 623 m 1,10,11
 258 628 258 628 278.5 631 c 128,-1,12
 299 634 299 634 321 634 c 0,13,14
 323 634 323 634 323 634 c 1,15,-1
 933 634 l 1,16,-1
 858 710 l 1,17,-1
 804 655 l 1,18,-1
 207 655 l 1,19,-1
 240 623 l 1,10,11
167 26 m 1,20,21
 186 32 186 32 207 35 c 128,-1,22
 228 38 228 38 251 38 c 2,23,-1
 989 38 l 1,24,-1
 909 118 l 1,25,-1
 852 59 l 1,26,-1
 135 59 l 1,27,-1
 167 26 l 1,20,21
EndSplineSet
Validated: 9
EndChar

StartChar: uniE080
Encoding: 57472 57472 54
Width: 657
Flags: W
LayerCount: 2
Fore
SplineSet
393 481 m 1,0,-1
 423 506 l 1,1,-1
 374 538 l 1,2,3
 392 569 392 569 418 614 c 128,-1,4
 444 659 444 659 479 719 c 1,5,-1
 522 737 l 1,6,-1
 444 791 l 1,7,8
 410 707 410 707 371.5 635 c 128,-1,9
 333 563 333 563 291 496 c 1,10,-1
 297 505 l 1,11,12
 260 446 260 446 220 394.5 c 128,-1,13
 180 343 180 343 135 296 c 1,14,-1
 143 286 l 1,15,16
 200 329 200 329 248.5 380 c 128,-1,17
 297 431 297 431 338 488 c 1,18,-1
 341 491 l 1,19,-1
 341 122 l 2,20,21
 341 86 341 86 340 42.5 c 128,-1,22
 339 -1 339 -1 336 -53 c 1,23,-1
 398 -22 l 1,24,25
 396 8 396 8 395.5 45 c 128,-1,26
 395 82 395 82 395 122 c 2,27,-1
 393 481 l 1,0,-1
EndSplineSet
Validated: 9
EndChar

StartChar: uniE081
Encoding: 57473 57473 55
Width: 1070
Flags: W
LayerCount: 2
Fore
SplineSet
409 523 m 1,0,-1
 684 523 l 1,1,2
 654 463 654 463 619.5 409.5 c 128,-1,3
 585 356 585 356 546 308 c 1,4,-1
 547 311 l 1,5,6
 505 355 505 355 469 404.5 c 128,-1,7
 433 454 433 454 405 508 c 1,8,-1
 402 512 l 1,9,-1
 409 523 l 1,0,-1
742 136 m 1,10,11
 696 167 696 167 656 201 c 128,-1,12
 616 235 616 235 579 271 c 1,13,14
 612 308 612 308 642.5 349.5 c 128,-1,15
 673 391 673 391 702 434 c 2,16,-1
 706 440 l 2,17,18
 720 467 720 467 741 489.5 c 128,-1,19
 762 512 762 512 789 527 c 1,20,-1
 717 589 l 1,21,-1
 684 545 l 1,22,-1
 420 545 l 1,23,24
 430 566 430 566 442 589.5 c 128,-1,25
 454 613 454 613 469 638 c 0,26,27
 484 662 484 662 494 675.5 c 128,-1,28
 504 689 504 689 513 694 c 1,29,-1
 444 748 l 1,30,31
 427 682 427 682 403 622.5 c 128,-1,32
 379 563 379 563 348 509 c 1,33,-1
 351 515 l 1,34,35
 312 445 312 445 266 385.5 c 128,-1,36
 220 326 220 326 168 275 c 1,37,-1
 166 274 l 1,38,-1
 174 263 l 1,39,40
 238 311 238 311 291.5 368 c 128,-1,41
 345 425 345 425 385 493 c 1,42,-1
 387 496 l 1,43,44
 414 433 414 433 446 377.5 c 128,-1,45
 478 322 478 322 516 272 c 1,46,-1
 514 275 l 1,47,48
 435 190 435 190 341 121.5 c 128,-1,49
 247 53 247 53 142 4 c 2,50,-1
 135 1 l 1,51,-1
 138 -10 l 1,52,53
 258 29 258 29 359 93 c 128,-1,54
 460 157 460 157 543 239 c 1,55,56
 607 166 607 166 680.5 104.5 c 128,-1,57
 754 43 754 43 837 -7 c 1,58,-1
 843 -10 l 1,59,60
 856 8 856 8 875.5 19.5 c 128,-1,61
 895 31 895 31 919 31 c 0,62,63
 924 31 924 31 927 30 c 128,-1,64
 930 29 930 29 933 29 c 1,65,-1
 933 44 l 1,66,67
 879 59 879 59 831 82.5 c 128,-1,68
 783 106 783 106 739 137 c 1,69,-1
 742 136 l 1,10,11
EndSplineSet
Validated: 5
EndChar

StartChar: uniE082
Encoding: 57474 57474 56
Width: 1104
Flags: W
LayerCount: 2
Fore
SplineSet
684 574 m 1,0,1
 663 481 663 481 628.5 398.5 c 128,-1,2
 594 316 594 316 548 241 c 1,3,-1
 551 245 l 1,4,5
 498 316 498 316 459 397 c 128,-1,6
 420 478 420 478 396 568 c 1,7,-1
 395 574 l 1,8,-1
 684 574 l 1,0,1
405 791 m 1,9,10
 315 485 315 485 182 332 c 1,11,-1
 192 325 l 1,12,13
 248 376 248 376 293.5 436 c 128,-1,14
 339 496 339 496 374 562 c 1,15,-1
 375 566 l 1,16,17
 395 463 395 463 431 370.5 c 128,-1,18
 467 278 467 278 518 196 c 1,19,-1
 515 200 l 1,20,21
 437 119 437 119 343 57 c 128,-1,22
 249 -5 249 -5 141 -44 c 2,23,-1
 135 -46 l 1,24,-1
 141 -56 l 1,25,26
 263 -28 263 -28 366.5 27.5 c 128,-1,27
 470 83 470 83 555 161 c 1,28,-1
 554 160 l 1,29,30
 620 91 620 91 702.5 40 c 128,-1,31
 785 -11 785 -11 878 -41 c 1,32,-1
 882 -43 l 1,33,34
 894 -17 894 -17 917.5 -1.5 c 128,-1,35
 941 14 941 14 969 16 c 1,36,-1
 969 34 l 1,37,38
 858 41 858 41 760 85.5 c 128,-1,39
 662 130 662 130 587 200 c 1,40,41
 641 280 641 280 681.5 372 c 128,-1,42
 722 464 722 464 744 565 c 1,43,-1
 746 572 l 1,44,-1
 933 572 l 1,45,-1
 854 653 l 1,46,-1
 797 595 l 1,47,-1
 392 595 l 1,48,49
 413 640 413 640 428.5 670.5 c 128,-1,50
 444 701 444 701 453 718 c 1,51,-1
 492 736 l 1,52,-1
 405 791 l 1,9,10
EndSplineSet
Validated: 5
EndChar

StartChar: uniE083
Encoding: 57475 57475 57
Width: 1081
Flags: W
LayerCount: 2
Fore
SplineSet
293 484 m 0,0,1
 293 476 293 476 293 466.5 c 128,-1,2
 293 457 293 457 293 448 c 0,3,4
 293 385 293 385 287 324 c 128,-1,5
 281 263 281 263 270 205 c 1,6,-1
 272 212 l 1,7,8
 252 142 252 142 217 81 c 128,-1,9
 182 20 182 20 135 -29 c 1,10,-1
 143 -40 l 1,11,12
 191 -2 191 -2 230 46 c 128,-1,13
 269 94 269 94 296 148 c 1,14,-1
 297 151 l 1,15,16
 321 209 321 209 334.5 275 c 128,-1,17
 348 341 348 341 348 410 c 0,18,19
 348 419 348 419 347.5 427.5 c 128,-1,20
 347 436 347 436 347 442 c 1,21,-1
 632 442 l 1,22,-1
 632 292 l 2,23,24
 632 221 632 221 632 158 c 128,-1,25
 632 95 632 95 630 43 c 0,26,27
 630 -11 630 -11 629 -56 c 1,28,-1
 687 -28 l 1,29,30
 687 17 687 17 685 135 c 128,-1,31
 683 253 683 253 683 442 c 1,32,-1
 947 442 l 1,33,-1
 875 514 l 1,34,-1
 825 464 l 1,35,-1
 345 464 l 1,36,-1
 345 664 l 1,37,38
 507 679 507 679 779 722 c 1,39,-1
 822 719 l 1,40,-1
 764 794 l 1,41,42
 642 725 642 725 345 683 c 1,43,-1
 288 725 l 1,44,45
 288 685 288 685 289.5 624 c 128,-1,46
 291 563 291 563 293 484 c 0,0,1
EndSplineSet
Validated: 5
EndChar

StartChar: uniE084
Encoding: 57476 57476 58
Width: 1008
Flags: W
LayerCount: 2
Fore
SplineSet
294 539 m 1,0,1
 296 533 296 533 296 527 c 128,-1,2
 296 521 296 521 296 514 c 0,3,4
 296 434 296 434 287 357.5 c 128,-1,5
 278 281 278 281 261 208 c 1,6,-1
 263 217 l 1,7,8
 243 145 243 145 210 83.5 c 128,-1,9
 177 22 177 22 135 -29 c 1,10,-1
 143 -41 l 1,11,12
 201 7 201 7 243 68.5 c 128,-1,13
 285 130 285 130 308 202 c 1,14,-1
 309 206 l 2,15,16
 329 287 329 287 340 378.5 c 128,-1,17
 351 470 351 470 351 566 c 0,18,19
 351 587 351 587 350.5 606.5 c 128,-1,20
 350 626 350 626 348 647 c 1,21,-1
 350 643 l 1,22,23
 653 679 653 679 837 712 c 1,24,-1
 873 712 l 1,25,-1
 824 781 l 1,26,27
 792 766 792 766 747 751 c 0,28,29
 701 736 701 736 642.5 721.5 c 128,-1,30
 584 707 584 707 512 694 c 0,31,32
 440 682 440 682 354 668 c 1,33,-1
 291 701 l 1,34,35
 294 661 294 661 295 621 c 128,-1,36
 296 581 296 581 296 542 c 1,37,-1
 294 539 l 1,0,1
EndSplineSet
Validated: 9
EndChar

StartChar: uniE085
Encoding: 57477 57477 59
Width: 904
Flags: W
LayerCount: 2
Fore
SplineSet
683 71 m 1,0,-1
 191 71 l 1,1,-1
 191 328 l 1,2,-1
 683 328 l 1,3,-1
 683 71 l 1,0,-1
683 350 m 1,4,-1
 191 350 l 1,5,-1
 191 571 l 1,6,-1
 683 571 l 1,7,-1
 683 350 l 1,4,-1
770 574 m 1,8,-1
 711 632 l 1,9,-1
 672 592 l 1,10,-1
 314 592 l 1,11,12
 413 715 413 715 459 730 c 1,13,-1
 375 784 l 1,14,15
 359 730 359 730 337 682 c 128,-1,16
 315 634 315 634 287 592 c 1,17,-1
 290 595 l 1,18,-1
 191 595 l 1,19,-1
 135 619 l 1,20,21
 135 538 135 538 137.5 456 c 128,-1,22
 140 374 140 374 140 290 c 0,23,24
 140 208 140 208 139 124 c 128,-1,25
 138 40 138 40 135 -46 c 1,26,-1
 191 -23 l 1,27,-1
 191 50 l 1,28,-1
 683 50 l 1,29,-1
 683 -37 l 1,30,-1
 737 -19 l 1,31,32
 734 50 734 50 734 553 c 1,33,-1
 770 574 l 1,8,-1
EndSplineSet
Validated: 5
EndChar

StartChar: uniE086
Encoding: 57478 57478 60
Width: 1099
Flags: W
LayerCount: 2
Fore
SplineSet
570 -2 m 1,0,1
 569 16 569 16 568 41.5 c 128,-1,2
 567 67 567 67 567 98 c 2,3,-1
 567 667 l 1,4,5
 609 671 609 671 638.5 675 c 128,-1,6
 668 679 668 679 686 680 c 1,7,8
 708 238 708 238 878 8 c 1,9,10
 891 28 891 28 912 38.5 c 128,-1,11
 933 49 933 49 957 49 c 0,12,13
 959 49 959 49 961 49 c 128,-1,14
 963 49 963 49 965 49 c 1,15,-1
 965 59 l 1,16,17
 759 182 759 182 704 685 c 1,18,19
 740 694 740 694 780.5 700 c 128,-1,20
 821 706 821 706 863 709 c 1,21,-1
 867 710 l 1,22,-1
 806 779 l 1,23,24
 765 754 765 754 719.5 736.5 c 128,-1,25
 674 719 674 719 623 710 c 1,26,-1
 620 710 l 1,27,28
 566 697 566 697 502 686.5 c 128,-1,29
 438 676 438 676 372 670 c 1,30,-1
 365 670 l 1,31,-1
 309 710 l 1,32,33
 309 667 309 667 309 607 c 128,-1,34
 309 547 309 547 309 472 c 0,35,36
 309 400 309 400 299.5 331 c 128,-1,37
 290 262 290 262 272 196 c 1,38,-1
 273 203 l 1,39,40
 251 136 251 136 215.5 76.5 c 128,-1,41
 180 17 180 17 135 -31 c 1,42,-1
 143 -43 l 1,43,44
 207 5 207 5 254.5 69 c 128,-1,45
 302 133 302 133 327 209 c 1,46,-1
 329 212 l 1,47,48
 345 292 345 292 355 382 c 128,-1,49
 365 472 365 472 365 566 c 0,50,51
 365 587 365 587 364 609 c 128,-1,52
 363 631 363 631 363 652 c 1,53,-1
 363 649 l 1,54,55
 384 650 384 650 422.5 653 c 128,-1,56
 461 656 461 656 515 659 c 1,57,-1
 515 128 l 2,58,59
 515 100 515 100 514 59.5 c 128,-1,60
 513 19 513 19 510 -31 c 1,61,-1
 570 -2 l 1,0,1
EndSplineSet
Validated: 5
EndChar

StartChar: uniE087
Encoding: 57479 57479 61
Width: 945
Flags: W
LayerCount: 2
Fore
SplineSet
243 229 m 2,0,1
 246 215 246 215 252 207.5 c 128,-1,2
 258 200 258 200 264 200 c 0,3,4
 272 200 272 200 274 203 c 128,-1,5
 276 206 276 206 284 214 c 0,6,7
 290 220 290 220 293.5 228 c 128,-1,8
 297 236 297 236 297 245 c 0,9,10
 297 247 297 247 297 247 c 2,11,12
 297 254 297 254 295.5 260 c 128,-1,13
 294 266 294 266 291 271 c 0,14,15
 285 284 285 284 274.5 296 c 128,-1,16
 264 308 264 308 252 317 c 0,17,18
 233 335 233 335 210.5 351 c 128,-1,19
 188 367 188 367 164 380 c 2,20,-1
 161 382 l 1,21,-1
 153 370 l 1,22,23
 180 340 180 340 202.5 305.5 c 128,-1,24
 225 271 225 271 242 232 c 2,25,-1
 243 229 l 2,0,1
374 413 m 1,26,27
 402 383 402 383 425.5 347 c 128,-1,28
 449 311 449 311 467 272 c 1,29,-1
 467 269 l 1,30,31
 474 247 474 247 481.5 236.5 c 128,-1,32
 489 226 489 226 497 226 c 0,33,34
 498 226 498 226 502 229 c 128,-1,35
 506 232 506 232 513 238 c 0,36,37
 519 247 519 247 523 257.5 c 128,-1,38
 527 268 527 268 527 278 c 0,39,40
 527 281 527 281 527 281 c 2,41,42
 527 296 527 296 516.5 314 c 128,-1,43
 506 332 506 332 482 352 c 0,44,45
 458 371 458 371 434.5 389 c 128,-1,46
 411 407 411 407 389 424 c 1,47,-1
 374 413 l 1,26,27
500 482 m 1,48,49
 414 469 414 469 323.5 460 c 128,-1,50
 233 451 233 451 135 446 c 1,51,-1
 135 428 l 1,52,53
 243 430 243 430 341.5 435 c 128,-1,54
 440 440 440 440 528 449 c 0,55,56
 618 458 618 458 684 463.5 c 128,-1,57
 750 469 750 469 797 472 c 1,58,-1
 747 554 l 1,59,60
 693 526 693 526 631 507 c 128,-1,61
 569 488 569 488 503 482 c 1,62,-1
 500 482 l 1,48,49
810 377 m 1,63,-1
 735 431 l 1,64,65
 707 362 707 362 671 303 c 128,-1,66
 635 244 635 244 591 193 c 1,67,-1
 603 182 l 1,68,69
 632 208 632 208 657.5 234 c 128,-1,70
 683 260 683 260 705 289 c 1,71,-1
 707 290 l 1,72,73
 728 319 728 319 753.5 340.5 c 128,-1,74
 779 362 779 362 809 376 c 1,75,-1
 810 377 l 1,63,-1
EndSplineSet
Validated: 9
EndChar

StartChar: uniE08A
Encoding: 57482 57482 62
Width: 1116
Flags: W
LayerCount: 2
Fore
SplineSet
771 422 m 1,0,1
 858 563 858 563 920 571 c 1,2,-1
 843 644 l 1,3,-1
 807 595 l 1,4,-1
 374 595 l 1,5,6
 390 620 390 620 406 651 c 128,-1,7
 422 682 422 682 435 715 c 1,8,-1
 440 722 l 1,9,-1
 471 737 l 1,10,-1
 384 791 l 1,11,12
 369 730 369 730 347 671 c 0,13,14
 324 613 324 613 297 558 c 128,-1,15
 270 503 270 503 239 452 c 0,16,17
 206 403 206 403 170 355 c 1,18,-1
 171 358 l 1,19,-1
 185 349 l 1,20,21
 237 398 237 398 283 453.5 c 128,-1,22
 329 509 329 509 366 571 c 1,23,-1
 369 575 l 1,24,-1
 816 575 l 1,25,-1
 759 431 l 1,26,-1
 771 422 l 1,0,1
615 487 m 1,27,-1
 518 536 l 1,28,29
 492 269 492 269 408 157 c 0,30,31
 354 91 354 91 286 40 c 128,-1,32
 218 -11 218 -11 140 -44 c 2,33,-1
 135 -46 l 1,34,-1
 138 -56 l 1,35,36
 219 -35 219 -35 289.5 3 c 128,-1,37
 360 41 360 41 420 92 c 1,38,-1
 419 91 l 1,39,40
 525 185 525 185 567 421 c 1,41,42
 587 337 587 337 623 262.5 c 128,-1,43
 659 188 659 188 707 125 c 0,44,45
 746 73 746 73 792.5 28.5 c 128,-1,46
 839 -16 839 -16 893 -52 c 1,47,-1
 896 -53 l 1,48,49
 906 -28 906 -28 929.5 -13 c 128,-1,50
 953 2 953 2 981 4 c 1,51,-1
 981 17 l 1,52,53
 911 35 911 35 851 71 c 128,-1,54
 791 107 791 107 744 158 c 0,55,56
 687 220 687 220 645 295 c 128,-1,57
 603 370 603 370 579 454 c 2,58,-1
 578 458 l 1,59,-1
 615 487 l 1,27,-1
EndSplineSet
Validated: 5
EndChar

StartChar: uniE08B
Encoding: 57483 57483 63
Width: 1065
Flags: W
LayerCount: 2
Fore
SplineSet
552 685 m 1,0,1
 392 653 392 653 219 635 c 1,2,-1
 219 620 l 1,3,4
 402 632 402 632 519 643 c 1,5,-1
 519 361 l 1,6,-1
 135 361 l 1,7,-1
 168 328 l 1,8,9
 186 334 186 334 207 336 c 128,-1,10
 228 338 228 338 251 338 c 0,11,12
 254 338 254 338 255 338 c 2,13,-1
 518 338 l 1,14,-1
 518 14 l 1,15,-1
 189 14 l 1,16,-1
 222 -19 l 1,17,18
 240 -14 240 -14 262 -11 c 128,-1,19
 284 -8 284 -8 306 -8 c 2,20,-1
 887 -8 l 1,21,-1
 812 68 l 1,22,-1
 756 14 l 1,23,-1
 573 14 l 1,24,-1
 573 340 l 1,25,-1
 930 340 l 1,26,-1
 851 419 l 1,27,-1
 792 361 l 1,28,-1
 573 361 l 1,29,-1
 573 650 l 1,30,31
 792 679 792 679 848 679 c 1,32,-1
 782 755 l 1,33,34
 732 730 732 730 675 712 c 128,-1,35
 618 694 618 694 557 685 c 1,36,-1
 552 685 l 1,0,1
EndSplineSet
Validated: 9
EndChar

StartChar: uniE08D
Encoding: 57485 57485 64
Width: 1097
Flags: W
LayerCount: 2
Fore
SplineSet
565 713 m 1,0,1
 496 700 496 700 413.5 688 c 128,-1,2
 331 676 331 676 244 668 c 1,3,-1
 234 668 l 1,4,-1
 234 653 l 1,5,6
 369 656 369 656 517 668 c 1,7,8
 517 616 517 616 515 558 c 128,-1,9
 513 500 513 500 510 440 c 1,10,-1
 141 440 l 1,11,-1
 174 409 l 1,12,13
 193 413 193 413 215 416 c 128,-1,14
 237 419 237 419 259 419 c 2,15,16
 259 419 259 419 261 419 c 2,17,-1
 507 419 l 1,18,19
 496 343 496 343 466 277 c 128,-1,20
 436 211 436 211 391 157 c 0,21,22
 339 98 339 98 275 51.5 c 128,-1,23
 211 5 211 5 139 -28 c 1,24,-1
 135 -29 l 1,25,-1
 141 -44 l 1,26,27
 228 -11 228 -11 302 36 c 128,-1,28
 376 83 376 83 436 145 c 0,29,30
 487 199 487 199 519.5 268.5 c 128,-1,31
 552 338 552 338 559 419 c 1,32,-1
 589 419 l 1,33,34
 598 361 598 361 617 308.5 c 128,-1,35
 636 256 636 256 663 208 c 1,36,-1
 661 211 l 1,37,38
 702 140 702 140 753 80 c 128,-1,39
 804 20 804 20 865 -28 c 1,40,-1
 867 -29 l 1,41,42
 879 -8 879 -8 900.5 5.5 c 128,-1,43
 922 19 922 19 948 19 c 0,44,45
 951 19 951 19 954 18 c 128,-1,46
 957 17 957 17 960 17 c 1,47,-1
 960 32 l 1,48,49
 903 55 903 55 853.5 87 c 128,-1,50
 804 119 804 119 763 160 c 0,51,52
 711 212 711 212 672.5 276.5 c 128,-1,53
 634 341 634 341 612 415 c 1,54,-1
 612 419 l 1,55,-1
 957 419 l 1,56,-1
 873 502 l 1,57,-1
 813 440 l 1,58,-1
 565 440 l 1,59,60
 570 508 570 508 571.5 566.5 c 128,-1,61
 573 625 573 625 573 676 c 1,62,63
 783 704 783 704 852 709 c 1,64,-1
 781 781 l 1,65,66
 735 755 735 755 681 738 c 128,-1,67
 627 721 627 721 570 713 c 1,68,-1
 565 713 l 1,0,1
EndSplineSet
Validated: 9
EndChar

StartChar: uniE08E
Encoding: 57486 57486 65
Width: 1059
Flags: W
LayerCount: 2
Fore
SplineSet
924 316 m 1,0,-1
 858 362 l 1,1,-1
 830 323 l 1,2,-1
 356 323 l 1,3,-1
 356 637 l 1,4,-1
 701 637 l 1,5,6
 701 592 701 592 694 548.5 c 128,-1,7
 687 505 687 505 674 463 c 1,8,-1
 675 467 l 1,9,10
 671 455 671 455 659.5 447.5 c 128,-1,11
 648 440 648 440 633 440 c 0,12,13
 632 440 632 440 629.5 440 c 128,-1,14
 627 440 627 440 626 440 c 0,15,16
 599 443 599 443 573.5 447.5 c 128,-1,17
 548 452 548 452 524 458 c 1,18,-1
 528 457 l 1,19,-1
 528 442 l 1,20,21
 578 424 578 424 602 404.5 c 128,-1,22
 626 385 626 385 621 362 c 1,23,24
 657 368 657 368 684 390 c 128,-1,25
 711 412 711 412 723 445 c 0,26,27
 735 485 735 485 742.5 531 c 128,-1,28
 750 577 750 577 752 626 c 1,29,-1
 788 652 l 1,30,-1
 726 698 l 1,31,-1
 698 659 l 1,32,-1
 453 659 l 1,33,34
 471 691 471 691 495 715 c 128,-1,35
 519 739 519 739 549 757 c 1,36,-1
 473 791 l 1,37,38
 467 754 467 754 456.5 720 c 128,-1,39
 446 686 446 686 431 655 c 1,40,-1
 432 658 l 1,41,-1
 356 658 l 1,42,-1
 299 692 l 1,43,44
 299 664 299 664 300.5 575.5 c 128,-1,45
 302 487 302 487 302 338 c 1,46,-1
 278 317 l 1,47,-1
 332 268 l 1,48,-1
 356 301 l 1,49,-1
 837 301 l 1,50,51
 819 26 819 26 762 28 c 0,52,53
 725 29 725 29 689.5 33.5 c 128,-1,54
 654 38 654 38 621 44 c 1,55,-1
 627 44 l 1,56,-1
 627 26 l 1,57,58
 687 10 687 10 715.5 -11 c 128,-1,59
 744 -32 744 -32 743 -58 c 1,60,61
 780 -52 780 -52 809.5 -28 c 128,-1,62
 839 -4 839 -4 851 31 c 0,63,64
 867 89 867 89 877.5 153.5 c 128,-1,65
 888 218 888 218 891 289 c 1,66,-1
 924 316 l 1,0,-1
168 142 m 1,67,68
 185 146 185 146 204.5 148.5 c 128,-1,69
 224 151 224 151 245 151 c 0,70,71
 246 151 246 151 249 151 c 128,-1,72
 252 151 252 151 255 151 c 2,73,-1
 771 151 l 1,74,-1
 702 223 l 1,75,-1
 648 175 l 1,76,-1
 135 175 l 1,77,-1
 168 142 l 1,67,68
EndSplineSet
Validated: 37
EndChar

StartChar: uniE0A1
Encoding: 57505 57505 66
Width: 1070
Flags: W
LayerCount: 2
Fore
SplineSet
135 101 m 1,0,-1
 146 91 l 1,1,2
 182 116 182 116 213.5 144.5 c 128,-1,3
 245 173 245 173 272 206 c 0,4,5
 299 241 299 241 326.5 276 c 128,-1,6
 354 311 354 311 381 349 c 0,7,8
 408 385 408 385 427 406.5 c 128,-1,9
 446 428 446 428 461 431 c 1,10,-1
 381 481 l 1,11,12
 336 370 336 370 274.5 274.5 c 128,-1,13
 213 179 213 179 135 101 c 1,0,-1
366 32 m 1,14,15
 425 14 425 14 455 -7.5 c 128,-1,16
 485 -29 485 -29 485 -55 c 1,17,18
 522 -46 522 -46 547.5 -16.5 c 128,-1,19
 573 13 573 13 576 52 c 2,20,-1
 576 571 l 1,21,-1
 933 571 l 1,22,-1
 858 647 l 1,23,-1
 804 595 l 1,24,-1
 576 595 l 1,25,-1
 576 715 l 1,26,-1
 615 742 l 1,27,-1
 518 788 l 1,28,29
 519 734 519 734 520 685.5 c 128,-1,30
 521 637 521 637 521 592 c 1,31,-1
 156 592 l 1,32,-1
 189 559 l 1,33,34
 209 565 209 565 230.5 568 c 128,-1,35
 252 571 252 571 275 571 c 0,36,37
 276 571 276 571 276 571 c 1,38,-1
 522 571 l 1,39,-1
 522 82 l 2,40,41
 522 64 522 64 515.5 53.5 c 128,-1,42
 509 43 509 43 495 41 c 0,43,44
 491 40 491 40 486.5 40 c 128,-1,45
 482 40 482 40 477 40 c 0,46,47
 449 40 449 40 420.5 43.5 c 128,-1,48
 392 47 392 47 365 55 c 1,49,-1
 368 53 l 1,50,-1
 366 32 l 1,14,15
846 176 m 1,51,52
 860 148 860 148 870.5 133.5 c 128,-1,53
 881 119 881 119 890 119 c 0,54,55
 893 119 893 119 896.5 125 c 128,-1,56
 900 131 900 131 905 145 c 0,57,58
 908 152 908 152 909.5 162.5 c 128,-1,59
 911 173 911 173 912 184 c 0,60,61
 909 205 909 205 900 223.5 c 128,-1,62
 891 242 891 242 878 256 c 0,63,64
 819 308 819 308 757.5 358.5 c 128,-1,65
 696 409 696 409 630 454 c 1,66,-1
 623 458 l 1,67,-1
 612 448 l 1,68,69
 678 389 678 389 736 323 c 128,-1,70
 794 257 794 257 843 185 c 1,71,-1
 848 181 l 1,72,-1
 846 176 l 1,51,52
EndSplineSet
Validated: 9
EndChar

StartChar: uniE0A4
Encoding: 57508 57508 67
Width: 1096
Flags: W
LayerCount: 2
Fore
SplineSet
168 323 m 1,0,1
 189 328 189 328 211.5 331 c 128,-1,2
 234 334 234 334 258 334 c 0,3,4
 260 334 260 334 263 334 c 128,-1,5
 266 334 266 334 267 334 c 2,6,-1
 962 334 l 1,7,-1
 882 413 l 1,8,-1
 810 355 l 1,9,-1
 135 355 l 1,10,-1
 168 323 l 1,0,1
EndSplineSet
Validated: 9
EndChar

StartChar: uniE0A9
Encoding: 57513 57513 68
Width: 1068
Flags: W
LayerCount: 2
Fore
SplineSet
782 484 m 1,0,-1
 723 520 l 1,1,2
 717 499 717 499 708 479.5 c 128,-1,3
 699 460 699 460 687 445 c 1,4,5
 668 458 668 458 644.5 468.5 c 128,-1,6
 621 479 621 479 594 487 c 1,7,-1
 590 473 l 1,8,9
 612 460 612 460 632.5 446.5 c 128,-1,10
 653 433 653 433 671 418 c 1,11,-1
 669 419 l 1,12,13
 648 388 648 388 625.5 360 c 128,-1,14
 603 332 603 332 579 307 c 1,15,-1
 587 296 l 1,16,17
 618 317 618 317 646 341 c 128,-1,18
 674 365 674 365 699 394 c 1,19,20
 713 379 713 379 725 362.5 c 128,-1,21
 737 346 737 346 747 328 c 1,22,-1
 749 326 l 1,23,24
 749 320 749 320 752 318 c 128,-1,25
 755 316 755 316 759 316 c 0,26,27
 762 316 762 316 764.5 319 c 128,-1,28
 767 322 767 322 770 329 c 0,29,30
 773 335 773 335 774.5 341 c 128,-1,31
 776 347 776 347 777 355 c 0,32,33
 776 362 776 362 773 369 c 128,-1,34
 770 376 770 376 765 380 c 0,35,36
 755 392 755 392 743 402 c 128,-1,37
 731 412 731 412 717 419 c 1,38,-1
 759 475 l 1,39,-1
 782 484 l 1,0,-1
500 263 m 1,40,-1
 446 299 l 1,41,42
 440 278 440 278 431 260 c 128,-1,43
 422 242 422 242 410 226 c 1,44,45
 389 239 389 239 364 249.5 c 128,-1,46
 339 260 339 260 314 266 c 1,47,-1
 311 266 l 1,48,-1
 308 256 l 1,49,50
 327 242 327 242 348 228 c 128,-1,51
 369 214 369 214 390 197 c 1,52,53
 368 166 368 166 345.5 138 c 128,-1,54
 323 110 323 110 297 85 c 1,55,-1
 303 71 l 1,56,57
 336 92 336 92 364 118.5 c 128,-1,58
 392 145 392 145 416 176 c 1,59,60
 431 160 431 160 445 143.5 c 128,-1,61
 459 127 459 127 473 109 c 1,62,-1
 474 107 l 2,63,64
 477 100 477 100 480 96 c 128,-1,65
 483 92 483 92 485 92 c 0,66,67
 486 92 486 92 489 96 c 128,-1,68
 492 100 492 100 495 107 c 0,69,70
 498 113 498 113 500.5 119 c 128,-1,71
 503 125 503 125 503 133 c 0,72,73
 503 140 503 140 499 147.5 c 128,-1,74
 495 155 495 155 489 161 c 0,75,76
 479 173 479 173 466 183.5 c 128,-1,77
 453 194 453 194 438 205 c 1,78,-1
 474 248 l 1,79,-1
 500 263 l 1,40,-1
497 476 m 1,80,-1
 438 517 l 1,81,82
 435 494 435 494 427 475.5 c 128,-1,83
 419 457 419 457 407 440 c 1,84,85
 386 455 386 455 362 466.5 c 128,-1,86
 338 478 338 478 311 487 c 1,87,-1
 308 487 l 1,88,-1
 305 473 l 1,89,90
 329 458 329 458 350.5 444 c 128,-1,91
 372 430 372 430 392 413 c 1,92,-1
 390 415 l 1,93,94
 366 383 366 383 342 354.5 c 128,-1,95
 318 326 318 326 293 299 c 1,96,-1
 300 289 l 1,97,98
 333 311 333 311 361.5 337.5 c 128,-1,99
 390 364 390 364 414 392 c 2,100,-1
 416 394 l 1,101,102
 431 379 431 379 443.5 361.5 c 128,-1,103
 456 344 456 344 468 326 c 1,104,-1
 470 325 l 1,105,106
 473 317 473 317 476 314 c 128,-1,107
 479 311 479 311 480 311 c 0,108,109
 482 311 482 311 485 314 c 128,-1,110
 488 317 488 317 491 325 c 0,111,112
 494 331 494 331 496 337 c 128,-1,113
 498 343 498 343 498 350 c 0,114,115
 497 358 497 358 494 364.5 c 128,-1,116
 491 371 491 371 486 376 c 0,117,118
 474 388 474 388 461.5 398.5 c 128,-1,119
 449 409 449 409 435 418 c 2,120,-1
 434 419 l 1,121,-1
 470 469 l 1,122,-1
 497 476 l 1,80,-1
656 707 m 1,123,124
 699 688 699 688 733.5 670.5 c 128,-1,125
 768 653 768 653 794 640 c 0,126,127
 819 626 819 626 840 610.5 c 128,-1,128
 861 595 861 595 879 578 c 0,129,130
 887 571 887 571 892 567 c 128,-1,131
 897 563 897 563 902 563 c 0,132,133
 905 563 905 563 909.5 571.5 c 128,-1,134
 914 580 914 580 915 598 c 0,135,136
 915 601 915 601 915 602 c 0,137,138
 915 619 915 619 906 634 c 128,-1,139
 897 649 897 649 881 655 c 0,140,141
 834 676 834 676 780 693 c 128,-1,142
 726 710 726 710 669 721 c 2,143,-1
 662 722 l 1,144,-1
 656 707 l 1,123,124
569 -26 m 1,145,146
 567 7 567 7 565.5 38.5 c 128,-1,147
 564 70 564 70 564 101 c 2,148,-1
 564 538 l 1,149,-1
 818 538 l 1,150,-1
 818 65 l 2,151,152
 816 49 816 49 811 40 c 128,-1,153
 806 31 806 31 798 28 c 0,154,155
 795 28 795 28 792 28 c 128,-1,156
 789 28 789 28 785 28 c 0,157,158
 762 28 762 28 740.5 30 c 128,-1,159
 719 32 719 32 696 37 c 1,160,-1
 699 35 l 1,161,-1
 699 22 l 1,162,163
 747 7 747 7 770.5 -11 c 128,-1,164
 794 -29 794 -29 794 -50 c 1,165,166
 825 -44 825 -44 845.5 -19.5 c 128,-1,167
 866 5 866 5 866 38 c 2,168,169
 866 38 866 38 866 40 c 2,170,-1
 866 520 l 1,171,-1
 894 538 l 1,172,-1
 846 587 l 1,173,-1
 813 559 l 1,174,-1
 567 559 l 1,175,-1
 567 725 l 1,176,-1
 933 725 l 1,177,-1
 872 787 l 1,178,-1
 828 748 l 1,179,-1
 164 748 l 1,180,-1
 192 719 l 1,181,-1
 266 725 l 1,182,-1
 399 725 l 1,183,184
 372 698 372 698 341.5 675.5 c 128,-1,185
 311 653 311 653 276 637 c 1,186,-1
 275 635 l 1,187,188
 237 617 237 617 201 601.5 c 128,-1,189
 165 586 165 586 135 571 c 1,190,-1
 138 556 l 1,191,192
 194 572 194 572 240.5 589.5 c 128,-1,193
 287 607 287 607 330 626 c 1,194,-1
 320 622 l 1,195,196
 347 634 347 634 380 645 c 128,-1,197
 413 656 413 656 447 667 c 1,198,-1
 456 668 l 1,199,-1
 399 725 l 1,200,-1
 521 725 l 1,201,-1
 521 560 l 1,202,-1
 279 560 l 1,203,-1
 225 581 l 1,204,205
 225 550 225 550 226.5 517.5 c 128,-1,206
 228 485 228 485 228 455 c 2,207,-1
 228 101 l 2,208,209
 228 71 228 71 228 34.5 c 128,-1,210
 228 -2 228 -2 225 -46 c 1,211,-1
 275 -20 l 1,212,-1
 275 538 l 1,213,-1
 521 538 l 1,214,-1
 521 125 l 2,215,216
 521 89 521 89 521 46.5 c 128,-1,217
 521 4 521 4 518 -47 c 1,218,-1
 569 -26 l 1,145,146
779 242 m 1,219,-1
 723 281 l 1,220,221
 716 260 716 260 706 240.5 c 128,-1,222
 696 221 696 221 684 206 c 1,223,224
 665 220 665 220 641.5 230.5 c 128,-1,225
 618 241 618 241 593 248 c 1,226,-1
 590 250 l 1,227,-1
 584 235 l 1,228,229
 608 223 608 223 629.5 208.5 c 128,-1,230
 651 194 651 194 671 179 c 1,231,-1
 669 181 l 1,232,233
 648 149 648 149 625.5 121.5 c 128,-1,234
 603 94 603 94 579 68 c 1,235,-1
 587 55 l 1,236,237
 618 77 618 77 646 103.5 c 128,-1,238
 674 130 674 130 698 158 c 1,239,-1
 699 160 l 1,240,241
 717 137 717 137 729 121.5 c 128,-1,242
 741 106 741 106 749 94 c 0,243,244
 752 89 752 89 755.5 86 c 128,-1,245
 759 83 759 83 762 83 c 0,246,247
 767 83 767 83 767.5 87 c 128,-1,248
 768 91 768 91 771 98 c 0,249,250
 773 103 773 103 774.5 108 c 128,-1,251
 776 113 776 113 777 119 c 0,252,253
 776 130 776 130 772 138 c 128,-1,254
 768 146 768 146 761 152 c 0,255,256
 750 160 750 160 739.5 168 c 128,-1,257
 729 176 729 176 717 184 c 2,258,-1
 716 185 l 1,259,260
 726 203 726 203 742 217.5 c 128,-1,261
 758 232 758 232 777 241 c 2,262,-1
 779 242 l 1,219,-1
EndSplineSet
Validated: 5
EndChar

StartChar: uniE0C0
Encoding: 57536 57536 69
Width: 1104
Flags: W
LayerCount: 2
Fore
SplineSet
228 647 m 1,0,1
 246 652 246 652 268.5 655 c 128,-1,2
 291 658 291 658 314 658 c 1,3,4
 314 658 314 658 314 658 c 1,5,-1
 524 658 l 1,6,-1
 524 371 l 1,7,-1
 240 371 l 1,8,-1
 272 340 l 1,9,10
 290 344 290 344 308.5 346.5 c 128,-1,11
 327 349 327 349 348 349 c 0,12,13
 351 349 351 349 354 349 c 128,-1,14
 357 349 357 349 360 349 c 2,15,-1
 524 349 l 1,16,-1
 524 37 l 1,17,-1
 135 37 l 1,18,-1
 168 5 l 1,19,20
 186 10 186 10 207 13 c 128,-1,21
 228 16 228 16 251 16 c 2,22,23
 251 16 251 16 252.5 16 c 128,-1,24
 254 16 254 16 254 16 c 1,25,-1
 969 16 l 1,26,-1
 902 88 l 1,27,-1
 852 38 l 1,28,-1
 576 38 l 1,29,-1
 576 349 l 1,30,-1
 876 349 l 1,31,-1
 815 413 l 1,32,-1
 771 370 l 1,33,-1
 573 370 l 1,34,-1
 573 658 l 1,35,-1
 918 658 l 1,36,-1
 854 730 l 1,37,-1
 800 680 l 1,38,-1
 192 680 l 1,39,-1
 228 647 l 1,0,1
EndSplineSet
Validated: 5
EndChar

StartChar: uniE0C2
Encoding: 57538 57538 70
Width: 1105
Flags: W
LayerCount: 2
Fore
SplineSet
147 536 m 1,0,-1
 176 508 l 1,1,-1
 225 515 l 1,2,-1
 510 515 l 1,3,4
 507 452 507 452 496 393.5 c 128,-1,5
 485 335 485 335 467 280 c 1,6,-1
 470 287 l 1,7,8
 450 230 450 230 419.5 182 c 128,-1,9
 389 134 389 134 348 95 c 0,10,11
 303 53 303 53 250.5 18.5 c 128,-1,12
 198 -16 198 -16 140 -40 c 1,13,-1
 135 -43 l 1,14,-1
 138 -56 l 1,15,16
 221 -32 221 -32 292 10 c 128,-1,17
 363 52 363 52 420 109 c 0,18,19
 525 215 525 215 560 436 c 1,20,21
 579 359 579 359 610.5 293 c 128,-1,22
 642 227 642 227 684 169 c 1,23,-1
 681 172 l 1,24,25
 723 112 723 112 774 62.5 c 128,-1,26
 825 13 825 13 885 -25 c 1,27,-1
 888 -26 l 1,28,29
 900 -5 900 -5 921 7 c 128,-1,30
 942 19 942 19 968 19 c 1,31,-1
 968 34 l 1,32,33
 884 55 884 55 815.5 102 c 128,-1,34
 747 149 747 149 699 217 c 0,35,36
 656 274 656 274 623 340.5 c 128,-1,37
 590 407 590 407 569 479 c 2,38,-1
 567 485 l 1,39,-1
 567 515 l 1,40,-1
 971 515 l 1,41,-1
 891 595 l 1,42,-1
 834 536 l 1,43,-1
 567 536 l 1,44,-1
 567 724 l 1,45,-1
 596 752 l 1,46,-1
 509 791 l 1,47,48
 510 758 510 758 511 694.5 c 128,-1,49
 512 631 512 631 512 535 c 1,50,-1
 147 536 l 1,0,-1
EndSplineSet
Validated: 9
EndChar

StartChar: uniE0C3
Encoding: 57539 57539 71
Width: 1000
VWidth: 1000
Flags: W
LayerCount: 2
Fore
SplineSet
865 85 m 1,0,1
 924 41 924 41 961 7 c 1,2,3
 957 -9 957 -9 934 -9 c 2,4,-1
 199 -9 l 1,5,-1
 169 -48 l 1,6,-1
 86 5 l 1,7,8
 94 11 94 11 104 17 c 0,9,10
 116 24 116 24 126 28 c 1,11,-1
 126 775 l 1,12,-1
 203 732 l 1,13,-1
 772 732 l 1,14,-1
 820 793 l 1,15,16
 875 751 875 751 909 719 c 1,17,18
 905 703 905 703 883 703 c 2,19,-1
 191 703 l 1,20,-1
 191 21 l 1,21,-1
 813 21 l 1,22,-1
 865 85 l 1,0,1
EndSplineSet
EndChar

StartChar: uniE0C6
Encoding: 57542 57542 72
Width: 1044
Flags: W
LayerCount: 2
Fore
SplineSet
765 68 m 1,0,-1
 269 68 l 1,1,-1
 269 187 l 1,2,-1
 765 187 l 1,3,-1
 765 68 l 1,0,-1
404 542 m 1,4,5
 404 539 404 539 404 537 c 128,-1,6
 404 535 404 535 404 532 c 0,7,8
 404 451 404 451 371.5 379.5 c 128,-1,9
 339 308 339 308 284 256 c 1,10,-1
 291 245 l 1,11,12
 363 292 363 292 406.5 367.5 c 128,-1,13
 450 443 450 443 450 533 c 0,14,15
 450 535 450 535 450 537 c 128,-1,16
 450 539 450 539 450 541 c 1,17,-1
 576 541 l 1,18,-1
 576 379 l 2,19,20
 573 341 573 341 586.5 323 c 128,-1,21
 600 305 600 305 630 302 c 2,22,-1
 722 302 l 2,23,24
 735 301 735 301 742.5 304.5 c 128,-1,25
 750 308 750 308 750 317 c 0,26,27
 749 325 749 325 747.5 331 c 128,-1,28
 746 337 746 337 743 343 c 0,29,30
 740 352 740 352 732.5 354 c 128,-1,31
 725 356 725 356 714 353 c 0,32,33
 702 349 702 349 689.5 346.5 c 128,-1,34
 677 344 677 344 663 344 c 0,35,36
 662 344 662 344 659 344 c 128,-1,37
 656 344 656 344 654 344 c 0,38,39
 636 344 636 344 628.5 353 c 128,-1,40
 621 362 621 362 623 379 c 2,41,-1
 623 541 l 1,42,-1
 765 541 l 1,43,-1
 765 209 l 1,44,-1
 269 209 l 1,45,-1
 269 542 l 1,46,-1
 404 542 l 1,4,5
576 563 m 1,47,-1
 450 563 l 1,48,-1
 450 697 l 1,49,-1
 576 697 l 1,50,-1
 576 563 l 1,47,-1
168 686 m 1,51,52
 185 691 185 691 203 694 c 128,-1,53
 221 697 221 697 240 697 c 2,54,-1
 404 697 l 1,55,-1
 404 563 l 1,56,-1
 269 563 l 1,57,-1
 219 596 l 1,58,59
 224 517 224 517 224 284 c 0,60,61
 224 169 224 169 223 91 c 128,-1,62
 222 13 222 13 219 -29 c 1,63,-1
 269 -8 l 1,64,-1
 269 47 l 1,65,-1
 765 47 l 1,66,-1
 765 -37 l 1,67,-1
 813 -11 l 1,68,69
 810 137 810 137 810 530 c 1,70,-1
 840 556 l 1,71,-1
 789 599 l 1,72,-1
 764 563 l 1,73,-1
 623 563 l 1,74,-1
 623 697 l 1,75,-1
 909 697 l 1,76,-1
 840 773 l 1,77,-1
 789 719 l 1,78,-1
 135 719 l 1,79,-1
 168 686 l 1,51,52
EndSplineSet
Validated: 41
EndChar

StartChar: uniE0C8
Encoding: 57544 57544 73
Width: 1111
Flags: W
LayerCount: 2
Fore
SplineSet
627 737 m 1,0,1
 651 713 651 713 670.5 687.5 c 128,-1,2
 690 662 690 662 705 634 c 1,3,-1
 707 632 l 1,4,5
 716 614 716 614 724 605 c 128,-1,6
 732 596 732 596 740 596 c 0,7,8
 744 596 744 596 748 598.5 c 128,-1,9
 752 601 752 601 755 604 c 0,10,11
 761 608 761 608 765.5 615.5 c 128,-1,12
 770 623 770 623 771 632 c 0,13,14
 771 634 771 634 771 636 c 128,-1,15
 771 638 771 638 771 641 c 0,16,17
 771 653 771 653 766 663.5 c 128,-1,18
 761 674 761 674 752 682 c 0,19,20
 728 701 728 701 698.5 718.5 c 128,-1,21
 669 736 669 736 638 748 c 2,22,-1
 635 749 l 1,23,-1
 627 737 l 1,0,1
741 85 m 0,24,25
 707 107 707 107 679 136.5 c 128,-1,26
 651 166 651 166 629 199 c 1,27,-1
 627 200 l 1,28,29
 726 280 726 280 837 388 c 1,30,-1
 875 397 l 1,31,-1
 801 469 l 1,32,33
 788 439 788 439 770.5 413.5 c 128,-1,34
 753 388 753 388 731 367 c 0,35,36
 701 332 701 332 668.5 301.5 c 128,-1,37
 636 271 636 271 602 244 c 2,38,-1
 599 242 l 1,39,40
 572 302 572 302 554 372 c 128,-1,41
 536 442 536 442 530 517 c 1,42,-1
 530 520 l 1,43,-1
 963 545 l 1,44,-1
 894 614 l 1,45,-1
 851 560 l 1,46,-1
 525 542 l 1,47,48
 522 587 522 587 519 631.5 c 128,-1,49
 516 676 516 676 515 719 c 1,50,-1
 545 742 l 1,51,-1
 455 787 l 1,52,53
 459 740 459 740 464.5 677 c 128,-1,54
 470 614 470 614 477 538 c 1,55,-1
 135 517 l 1,56,-1
 179 484 l 1,57,58
 194 490 194 490 212 494.5 c 128,-1,59
 230 499 230 499 248 502 c 2,60,-1
 251 502 l 1,61,-1
 479 517 l 1,62,63
 486 431 486 431 507 353 c 128,-1,64
 528 275 528 275 561 203 c 1,65,-1
 558 209 l 1,66,67
 480 149 480 149 390 99.5 c 128,-1,68
 300 50 300 50 203 16 c 2,69,-1
 194 13 l 1,70,-1
 200 -2 l 1,71,72
 308 28 308 28 404 73 c 128,-1,73
 500 118 500 118 585 173 c 1,74,-1
 579 170 l 1,75,76
 618 106 618 106 676 58 c 128,-1,77
 734 10 734 10 804 -14 c 1,78,-1
 807 -16 l 1,79,80
 840 -26 840 -26 879 -35 c 128,-1,81
 918 -44 918 -44 959 -49 c 1,82,-1
 963 -49 l 1,83,84
 963 -50 963 -50 964.5 -50 c 128,-1,85
 966 -50 966 -50 968 -50 c 0,86,87
 969 -50 969 -50 970.5 -50 c 128,-1,88
 972 -50 972 -50 974 -49 c 2,89,-1
 977 -44 l 1,90,-1
 974 -37 l 1,91,92
 957 -19 957 -19 948 5 c 128,-1,93
 939 29 939 29 939 56 c 0,94,95
 939 58 939 58 939 59 c 0,96,97
 939 61 939 61 939 63 c 128,-1,98
 939 65 939 65 939 68 c 0,99,100
 939 103 939 103 942 137.5 c 128,-1,101
 945 172 945 172 951 205 c 1,102,-1
 950 200 l 1,103,-1
 936 200 l 1,104,-1
 887 20 l 1,105,106
 846 29 846 29 809.5 45.5 c 128,-1,107
 773 62 773 62 741 85 c 0,24,25
EndSplineSet
Validated: 5
EndChar

StartChar: uniE0C9
Encoding: 57545 57545 74
Width: 1098
Flags: W
LayerCount: 2
Fore
SplineSet
215 605 m 1,0,-1
 243 577 l 1,1,-1
 287 583 l 1,2,-1
 521 583 l 1,3,4
 518 529 518 529 515.5 483 c 128,-1,5
 513 437 513 437 509 398 c 1,6,-1
 150 398 l 1,7,-1
 183 367 l 1,8,9
 201 371 201 371 222 374 c 128,-1,10
 243 377 243 377 266 377 c 2,11,12
 266 377 266 377 267.5 377 c 128,-1,13
 269 377 269 377 270 377 c 2,14,-1
 504 377 l 1,15,16
 489 302 489 302 455.5 237.5 c 128,-1,17
 422 173 422 173 372 122 c 0,18,19
 323 73 323 73 264.5 33 c 128,-1,20
 206 -7 206 -7 141 -37 c 1,21,-1
 135 -38 l 1,22,-1
 143 -53 l 1,23,24
 224 -23 224 -23 293.5 19.5 c 128,-1,25
 363 62 363 62 422 115 c 0,26,27
 474 166 474 166 510 232.5 c 128,-1,28
 546 299 546 299 558 374 c 1,29,-1
 558 377 l 1,30,-1
 584 377 l 1,31,32
 602 304 602 304 631 240 c 128,-1,33
 660 176 660 176 699 119 c 1,34,-1
 698 122 l 1,35,36
 734 74 734 74 778 35 c 128,-1,37
 822 -4 822 -4 875 -34 c 1,38,-1
 876 -35 l 1,39,40
 890 -14 890 -14 910 -2 c 128,-1,41
 930 10 930 10 954 10 c 0,42,43
 957 10 957 10 959.5 9 c 128,-1,44
 962 8 962 8 963 8 c 1,45,-1
 963 23 l 1,46,47
 894 37 894 37 835.5 70 c 128,-1,48
 777 103 777 103 732 151 c 0,49,50
 690 199 690 199 657 254.5 c 128,-1,51
 624 310 624 310 603 371 c 1,52,-1
 602 376 l 1,53,-1
 956 376 l 1,54,-1
 876 455 l 1,55,-1
 819 397 l 1,56,-1
 563 397 l 1,57,58
 566 434 566 434 569 480.5 c 128,-1,59
 572 527 572 527 573 581 c 1,60,-1
 891 581 l 1,61,-1
 822 650 l 1,62,-1
 776 601 l 1,63,-1
 573 601 l 1,64,-1
 573 724 l 1,65,-1
 605 749 l 1,66,-1
 515 791 l 1,67,68
 515 752 515 752 517 705.5 c 128,-1,69
 519 659 519 659 519 607 c 1,70,-1
 215 605 l 1,0,-1
EndSplineSet
Validated: 9
EndChar

StartChar: uniE0CA
Encoding: 57546 57546 75
Width: 1116
Flags: W
LayerCount: 2
Fore
SplineSet
782 296 m 1,0,-1
 578 296 l 1,1,-1
 578 415 l 1,2,-1
 780 415 l 1,3,-1
 782 296 l 1,0,-1
663 550 m 1,4,-1
 450 550 l 1,5,-1
 450 653 l 1,6,-1
 663 653 l 1,7,-1
 663 550 l 1,4,-1
530 296 m 1,8,-1
 332 296 l 1,9,-1
 332 415 l 1,10,-1
 530 415 l 1,11,-1
 530 296 l 1,8,-1
981 140 m 1,12,-1
 912 214 l 1,13,-1
 863 164 l 1,14,-1
 578 164 l 1,15,-1
 578 274 l 1,16,-1
 780 274 l 1,17,-1
 780 242 l 1,18,-1
 836 271 l 1,19,20
 836 299 836 299 833.5 332 c 128,-1,21
 831 365 831 365 831 401 c 1,22,-1
 860 419 l 1,23,-1
 806 473 l 1,24,-1
 770 437 l 1,25,-1
 578 437 l 1,26,-1
 578 527 l 1,27,-1
 662 527 l 1,28,-1
 662 502 l 1,29,-1
 711 527 l 1,30,31
 711 542 711 542 709.5 573.5 c 128,-1,32
 708 605 708 605 708 653 c 1,33,-1
 939 653 l 1,34,-1
 876 722 l 1,35,-1
 833 676 l 1,36,-1
 710 676 l 1,37,-1
 710 725 l 1,38,-1
 740 742 l 1,39,-1
 659 782 l 1,40,41
 662 755 662 755 662.5 728 c 128,-1,42
 663 701 663 701 663 674 c 1,43,-1
 450 674 l 1,44,-1
 450 730 l 1,45,-1
 480 752 l 1,46,-1
 399 791 l 1,47,48
 401 763 401 763 402.5 733.5 c 128,-1,49
 404 704 404 704 404 676 c 1,50,-1
 185 676 l 1,51,-1
 216 643 l 1,52,53
 236 649 236 649 257 651 c 128,-1,54
 278 653 278 653 300 653 c 2,55,56
 300 653 300 653 301.5 653 c 128,-1,57
 303 653 303 653 303 653 c 1,58,-1
 405 653 l 1,59,60
 405 617 405 617 404.5 576 c 128,-1,61
 404 535 404 535 401 491 c 1,62,-1
 450 514 l 1,63,-1
 450 527 l 1,64,-1
 530 527 l 1,65,-1
 530 437 l 1,66,-1
 332 437 l 1,67,-1
 275 469 l 1,68,69
 276 439 276 439 277 409 c 128,-1,70
 278 379 278 379 278 349 c 256,71,72
 278 319 278 319 278 289 c 128,-1,73
 278 259 278 259 275 227 c 1,74,-1
 329 253 l 1,75,-1
 329 274 l 1,76,-1
 525 274 l 1,77,-1
 525 163 l 1,78,-1
 135 163 l 1,79,-1
 168 130 l 1,80,81
 186 134 186 134 208.5 137 c 128,-1,82
 231 140 231 140 254 140 c 1,83,84
 254 140 254 140 254 140 c 1,85,-1
 530 140 l 1,86,87
 530 92 530 92 529 42.5 c 128,-1,88
 528 -7 528 -7 525 -56 c 1,89,-1
 584 -28 l 1,90,91
 582 10 582 10 580.5 52 c 128,-1,92
 579 94 579 94 579 139 c 1,93,-1
 981 140 l 1,12,-1
EndSplineSet
Validated: 5
EndChar

StartChar: uniE0CB
Encoding: 57547 57547 76
Width: 1132
Flags: W
LayerCount: 2
Fore
SplineSet
506 458 m 1,0,1
 516 476 516 476 525 495.5 c 128,-1,2
 534 515 534 515 542 535 c 1,3,-1
 542 538 l 1,4,-1
 582 538 l 1,5,6
 588 515 588 515 597 495 c 128,-1,7
 606 475 606 475 618 458 c 1,8,-1
 506 458 l 1,0,1
621 754 m 1,9,-1
 542 791 l 1,10,11
 542 791 542 791 542 789.5 c 128,-1,12
 542 788 542 788 542 787 c 0,13,14
 542 755 542 755 537.5 723.5 c 128,-1,15
 533 692 533 692 524 662 c 1,16,-1
 524 665 l 1,17,-1
 246 665 l 1,18,-1
 282 629 l 1,19,20
 299 634 299 634 317.5 637 c 128,-1,21
 336 640 336 640 356 640 c 0,22,23
 357 640 357 640 358.5 640 c 128,-1,24
 360 640 360 640 362 640 c 2,25,-1
 521 640 l 1,26,27
 515 617 515 617 509 598.5 c 128,-1,28
 503 580 503 580 494 562 c 1,29,-1
 495 563 l 1,30,-1
 303 563 l 1,31,-1
 341 527 l 1,32,33
 357 533 357 533 376 536 c 128,-1,34
 395 539 395 539 414 539 c 0,35,36
 416 539 416 539 417.5 539 c 128,-1,37
 419 539 419 539 420 539 c 2,38,-1
 488 539 l 1,39,40
 480 515 480 515 471 495.5 c 128,-1,41
 462 476 462 476 450 458 c 1,42,-1
 188 458 l 1,43,-1
 224 422 l 1,44,45
 240 428 240 428 259 431 c 128,-1,46
 278 434 278 434 297 434 c 0,47,48
 299 434 299 434 300.5 434 c 128,-1,49
 302 434 302 434 305 434 c 2,50,-1
 441 434 l 1,51,52
 419 403 419 403 393.5 376 c 128,-1,53
 368 349 368 349 341 326 c 1,54,-1
 339 325 l 1,55,56
 296 290 296 290 245.5 260 c 128,-1,57
 195 230 195 230 141 208 c 2,58,-1
 135 206 l 1,59,-1
 140 191 l 1,60,61
 200 209 200 209 254 234 c 128,-1,62
 308 259 308 259 356 292 c 1,63,-1
 353 289 l 1,64,65
 398 317 398 317 434 354 c 128,-1,66
 470 391 470 391 495 436 c 1,67,-1
 497 437 l 1,68,-1
 635 437 l 1,69,70
 663 391 663 391 698.5 351 c 128,-1,71
 734 311 734 311 774 280 c 1,72,-1
 776 278 l 1,73,74
 809 254 809 254 845.5 234.5 c 128,-1,75
 882 215 882 215 921 202 c 2,76,-1
 926 200 l 1,77,78
 935 220 935 220 954.5 232 c 128,-1,79
 974 244 974 244 996 244 c 0,80,81
 998 244 998 244 998 244 c 1,82,-1
 998 262 l 1,83,84
 944 266 944 266 895 280.5 c 128,-1,85
 846 295 846 295 801 319 c 1,86,-1
 804 319 l 1,87,88
 767 340 767 340 735.5 368.5 c 128,-1,89
 704 397 704 397 680 431 c 1,90,-1
 965 431 l 1,91,-1
 900 496 l 1,92,-1
 864 455 l 1,93,-1
 657 455 l 1,94,95
 642 473 642 473 628.5 492.5 c 128,-1,96
 615 512 615 512 605 533 c 2,97,-1
 603 536 l 1,98,-1
 852 536 l 1,99,-1
 788 604 l 1,100,-1
 752 563 l 1,101,-1
 555 563 l 1,102,103
 561 578 561 578 566.5 597 c 128,-1,104
 572 616 572 616 576 635 c 1,105,-1
 576 640 l 1,106,-1
 909 640 l 1,107,-1
 842 704 l 1,108,-1
 806 664 l 1,109,-1
 579 664 l 1,110,111
 582 680 582 680 586.5 697.5 c 128,-1,112
 591 715 591 715 596 733 c 1,113,-1
 621 754 l 1,9,-1
EndSplineSet
Validated: 5
EndChar

StartChar: uniE0CC
Encoding: 57548 57548 77
Width: 1099
Flags: W
LayerCount: 2
Fore
SplineSet
135 496 m 1,0,-1
 171 467 l 1,1,-1
 221 478 l 1,2,-1
 521 496 l 1,3,4
 530 416 530 416 551.5 344 c 128,-1,5
 573 272 573 272 605 206 c 1,6,-1
 603 212 l 1,7,8
 630 157 630 157 668.5 112 c 128,-1,9
 707 67 707 67 755 32 c 1,10,-1
 756 31 l 1,11,12
 788 5 788 5 826 -13 c 128,-1,13
 864 -31 864 -31 908 -41 c 0,14,15
 936 -44 936 -44 950.5 -42 c 128,-1,16
 965 -40 965 -40 965 -35 c 0,17,18
 965 -32 965 -32 962 -29 c 128,-1,19
 959 -26 959 -26 954 -20 c 0,20,21
 938 -7 938 -7 932 45 c 128,-1,22
 926 97 926 97 932 185 c 1,23,-1
 914 187 l 1,24,25
 893 94 893 94 875 32 c 1,26,27
 834 49 834 49 799.5 72 c 128,-1,28
 765 95 765 95 737 124 c 0,29,30
 702 158 702 158 675 198 c 128,-1,31
 648 238 648 238 630 281 c 2,32,-1
 629 284 l 1,33,34
 609 331 609 331 595 383.5 c 128,-1,35
 581 436 581 436 573 491 c 1,36,-1
 573 496 l 1,37,-1
 933 518 l 1,38,-1
 851 583 l 1,39,-1
 801 533 l 1,40,-1
 570 518 l 1,41,42
 566 559 566 559 561.5 607.5 c 128,-1,43
 557 656 557 656 552 716 c 1,44,-1
 587 742 l 1,45,-1
 489 778 l 1,46,47
 492 742 492 742 496 709 c 128,-1,48
 500 676 500 676 503 649 c 256,49,50
 506 622 506 622 508 588 c 128,-1,51
 510 554 510 554 513 515 c 1,52,-1
 135 496 l 1,0,-1
638 731 m 1,53,54
 668 709 668 709 694 682.5 c 128,-1,55
 720 656 720 656 741 628 c 1,56,-1
 743 626 l 1,57,58
 752 611 752 611 758.5 603.5 c 128,-1,59
 765 596 765 596 771 596 c 256,60,61
 777 596 777 596 781 600 c 128,-1,62
 785 604 785 604 789 610 c 0,63,64
 795 617 795 617 799 626 c 128,-1,65
 803 635 803 635 803 646 c 0,66,67
 803 659 803 659 796 669.5 c 128,-1,68
 789 680 789 680 779 688 c 0,69,70
 750 703 750 703 717 717 c 128,-1,71
 684 731 684 731 650 740 c 1,72,-1
 645 742 l 1,73,-1
 638 731 l 1,53,54
EndSplineSet
Validated: 41
EndChar

StartChar: uniE0CD
Encoding: 57549 57549 78
Width: 1116
Flags: W
LayerCount: 2
Fore
SplineSet
630 229 m 1,0,-1
 480 229 l 1,1,-1
 480 374 l 1,2,-1
 632 374 l 1,3,-1
 630 229 l 1,0,-1
630 395 m 1,4,-1
 480 395 l 1,5,-1
 480 533 l 1,6,-1
 632 533 l 1,7,-1
 630 395 l 1,4,-1
837 50 m 1,8,-1
 677 50 l 1,9,-1
 677 533 l 1,10,-1
 836 533 l 1,11,-1
 837 50 l 1,8,-1
432 50 m 1,12,-1
 276 50 l 1,13,-1
 276 533 l 1,14,-1
 431 533 l 1,15,-1
 432 50 l 1,12,-1
629 50 m 1,16,-1
 480 50 l 1,17,-1
 480 208 l 1,18,-1
 632 208 l 1,19,-1
 629 50 l 1,16,-1
276 554 m 1,20,-1
 222 583 l 1,21,22
 227 472 227 472 225 274 c 0,23,24
 225 77 225 77 222 -49 c 1,25,-1
 276 -23 l 1,26,-1
 276 25 l 1,27,-1
 837 25 l 1,28,-1
 837 -46 l 1,29,-1
 891 -20 l 1,30,31
 887 196 887 196 887 521 c 1,32,-1
 912 547 l 1,33,-1
 855 589 l 1,34,-1
 830 553 l 1,35,-1
 474 553 l 1,36,37
 494 587 494 587 512 615.5 c 128,-1,38
 530 644 530 644 549 671 c 1,39,-1
 548 668 l 1,40,-1
 584 680 l 1,41,-1
 530 710 l 1,42,-1
 981 710 l 1,43,-1
 915 785 l 1,44,-1
 858 731 l 1,45,-1
 135 731 l 1,46,-1
 168 698 l 1,47,48
 188 704 188 704 209.5 707 c 128,-1,49
 231 710 231 710 254 710 c 0,50,51
 257 710 257 710 258.5 710 c 128,-1,52
 260 710 260 710 261 710 c 2,53,-1
 492 710 l 1,54,55
 485 665 485 665 475 625.5 c 128,-1,56
 465 586 465 586 450 548 c 1,57,-1
 453 554 l 1,58,-1
 276 554 l 1,20,-1
EndSplineSet
Validated: 37
EndChar

StartChar: uniE0CE
Encoding: 57550 57550 79
Width: 1129
Flags: W
LayerCount: 2
Fore
SplineSet
789 284 m 1,0,-1
 576 284 l 1,1,-1
 576 389 l 1,2,-1
 789 389 l 1,3,-1
 789 284 l 1,0,-1
530 284 m 1,4,-1
 324 284 l 1,5,-1
 324 389 l 1,6,-1
 530 389 l 1,7,-1
 530 284 l 1,4,-1
789 412 m 1,8,-1
 576 412 l 1,9,-1
 576 527 l 1,10,-1
 789 527 l 1,11,-1
 789 412 l 1,8,-1
530 412 m 1,12,-1
 324 412 l 1,13,-1
 324 527 l 1,14,-1
 530 527 l 1,15,-1
 530 412 l 1,12,-1
273 215 m 1,16,-1
 323 232 l 1,17,-1
 323 265 l 1,18,-1
 528 265 l 1,19,-1
 528 149 l 1,20,-1
 135 149 l 1,21,-1
 167 116 l 1,22,23
 182 121 182 121 200 124 c 128,-1,24
 218 127 218 127 236 127 c 2,25,-1
 528 127 l 1,26,27
 528 64 528 64 528 18 c 128,-1,28
 528 -28 528 -28 525 -56 c 1,29,-1
 579 -38 l 1,30,31
 578 7 578 7 577 48 c 128,-1,32
 576 89 576 89 576 127 c 1,33,-1
 995 127 l 1,34,-1
 920 200 l 1,35,-1
 863 146 l 1,36,-1
 576 146 l 1,37,-1
 576 263 l 1,38,-1
 789 263 l 1,39,-1
 789 220 l 1,40,-1
 839 242 l 1,41,42
 837 272 837 272 836.5 340.5 c 128,-1,43
 836 409 836 409 836 512 c 1,44,-1
 872 535 l 1,45,-1
 816 589 l 1,46,-1
 777 550 l 1,47,-1
 576 550 l 1,48,-1
 576 640 l 1,49,-1
 945 640 l 1,50,-1
 882 707 l 1,51,-1
 833 658 l 1,52,-1
 576 658 l 1,53,-1
 576 733 l 1,54,-1
 620 766 l 1,55,-1
 525 794 l 1,56,57
 528 760 528 760 529 727 c 128,-1,58
 530 694 530 694 530 661 c 1,59,-1
 185 661 l 1,60,-1
 218 628 l 1,61,62
 233 634 233 634 250 636 c 128,-1,63
 267 638 267 638 287 640 c 2,64,-1
 533 640 l 1,65,-1
 533 550 l 1,66,-1
 323 550 l 1,67,-1
 275 578 l 1,68,69
 275 548 275 548 276.5 503 c 128,-1,70
 278 458 278 458 278 395 c 256,71,72
 278 332 278 332 276.5 286.5 c 128,-1,73
 275 241 275 241 273 215 c 1,16,-1
EndSplineSet
Validated: 9
EndChar

StartChar: uniE0CF
Encoding: 57551 57551 80
Width: 1017
Flags: W
LayerCount: 2
Fore
SplineSet
728 271 m 1,0,-1
 537 271 l 1,1,-1
 537 353 l 1,2,-1
 728 353 l 1,3,-1
 728 271 l 1,0,-1
494 271 m 1,4,-1
 306 271 l 1,5,-1
 306 353 l 1,6,-1
 491 353 l 1,7,-1
 494 271 l 1,4,-1
728 376 m 1,8,-1
 537 376 l 1,9,-1
 537 463 l 1,10,-1
 728 463 l 1,11,-1
 728 376 l 1,8,-1
494 376 m 1,12,-1
 306 376 l 1,13,-1
 306 463 l 1,14,-1
 491 463 l 1,15,-1
 494 376 l 1,12,-1
804 466 m 1,16,-1
 755 512 l 1,17,-1
 726 484 l 1,18,-1
 537 484 l 1,19,-1
 537 545 l 1,20,-1
 882 545 l 1,21,-1
 810 617 l 1,22,-1
 761 568 l 1,23,-1
 537 568 l 1,24,-1
 537 599 l 1,25,-1
 570 625 l 1,26,-1
 486 661 l 1,27,28
 488 632 488 632 489.5 608 c 128,-1,29
 491 584 491 584 491 566 c 1,30,-1
 146 566 l 1,31,-1
 179 535 l 1,32,33
 197 539 197 539 218 542 c 128,-1,34
 239 545 239 545 261 545 c 0,35,36
 263 545 263 545 264.5 545 c 128,-1,37
 266 545 266 545 267 545 c 2,38,-1
 491 545 l 1,39,-1
 491 484 l 1,40,-1
 309 484 l 1,41,-1
 255 512 l 1,42,43
 257 476 257 476 258.5 435.5 c 128,-1,44
 260 395 260 395 260 353 c 0,45,46
 260 313 260 313 259 273 c 128,-1,47
 258 233 258 233 255 194 c 1,48,-1
 305 217 l 1,49,-1
 305 250 l 1,50,-1
 489 250 l 1,51,-1
 489 151 l 1,52,53
 350 142 350 142 261.5 137.5 c 128,-1,54
 173 133 173 133 135 133 c 1,55,-1
 164 76 l 1,56,57
 192 85 192 85 225 91.5 c 128,-1,58
 258 98 258 98 293 101 c 2,59,-1
 296 101 l 1,60,-1
 768 149 l 1,61,62
 788 137 788 137 805 125 c 128,-1,63
 822 113 822 113 837 101 c 0,64,65
 842 95 842 95 848.5 91.5 c 128,-1,66
 855 88 855 88 863 88 c 0,67,68
 866 88 866 88 870 97 c 0,69,70
 872 100 872 100 872.5 105 c 128,-1,71
 873 110 873 110 873 115 c 0,72,73
 873 116 873 116 873 116 c 2,74,75
 873 124 873 124 871.5 130.5 c 128,-1,76
 870 137 870 137 867 143 c 0,77,78
 866 151 866 151 854.5 160.5 c 128,-1,79
 843 170 843 170 824 179 c 0,80,81
 789 194 789 194 750 206 c 128,-1,82
 711 218 711 218 669 227 c 1,83,-1
 663 229 l 1,84,-1
 660 218 l 1,85,86
 687 203 687 203 709 190.5 c 128,-1,87
 731 178 731 178 747 169 c 1,88,-1
 537 158 l 1,89,-1
 537 250 l 1,90,-1
 728 250 l 1,91,-1
 728 224 l 1,92,-1
 782 247 l 1,93,94
 779 283 779 283 776.5 324 c 128,-1,95
 774 365 774 365 774 407 c 0,96,97
 774 416 774 416 774 426 c 128,-1,98
 774 436 774 436 774 443 c 1,99,-1
 804 466 l 1,16,-1
EndSplineSet
Validated: 9
EndChar

StartChar: uniE0E0
Encoding: 57568 57568 81
Width: 1114
Flags: W
LayerCount: 2
Fore
SplineSet
530 418 m 1,0,-1
 203 418 l 1,1,-1
 236 385 l 1,2,3
 254 391 254 391 276.5 394 c 128,-1,4
 299 397 299 397 321 397 c 2,5,-1
 530 397 l 1,6,-1
 530 29 l 1,7,-1
 135 29 l 1,8,-1
 168 -4 l 1,9,10
 183 -1 183 -1 201 1.5 c 128,-1,11
 219 4 219 4 239 4 c 0,12,13
 243 4 243 4 247.5 4 c 128,-1,14
 252 4 252 4 258 4 c 2,15,-1
 980 4 l 1,16,-1
 900 83 l 1,17,-1
 842 25 l 1,18,-1
 582 25 l 1,19,-1
 582 397 l 1,20,-1
 914 397 l 1,21,-1
 842 470 l 1,22,-1
 792 421 l 1,23,-1
 582 421 l 1,24,-1
 582 674 l 1,25,-1
 614 703 l 1,26,-1
 524 742 l 1,27,28
 524 692 524 692 526 650 c 128,-1,29
 528 608 528 608 528 577 c 2,30,-1
 530 418 l 1,0,-1
EndSplineSet
Validated: 9
EndChar

StartChar: uniE0E1
Encoding: 57569 57569 82
Width: 1096
Flags: W
LayerCount: 2
Fore
SplineSet
962 349 m 1,0,-1
 882 427 l 1,1,-1
 825 370 l 1,2,-1
 707 370 l 1,3,4
 729 392 729 392 750 415.5 c 128,-1,5
 771 439 771 439 794 464 c 0,6,7
 807 482 807 482 824.5 497 c 128,-1,8
 842 512 842 512 864 523 c 1,9,-1
 795 581 l 1,10,11
 764 520 764 520 725.5 467.5 c 128,-1,12
 687 415 687 415 644 368 c 1,13,-1
 563 368 l 1,14,-1
 563 487 l 1,15,-1
 735 487 l 1,16,-1
 674 556 l 1,17,-1
 632 506 l 1,18,-1
 563 506 l 1,19,-1
 563 604 l 1,20,-1
 594 628 l 1,21,-1
 504 671 l 1,22,23
 504 637 504 637 505.5 597 c 128,-1,24
 507 557 507 557 507 509 c 1,25,-1
 272 509 l 1,26,-1
 305 476 l 1,27,28
 323 482 323 482 344 484.5 c 128,-1,29
 365 487 365 487 387 487 c 0,30,31
 390 487 390 487 392 487 c 2,32,-1
 507 487 l 1,33,-1
 507 368 l 1,34,-1
 143 368 l 1,35,-1
 176 335 l 1,36,37
 195 341 195 341 217 344 c 128,-1,38
 239 347 239 347 263 349 c 2,39,-1
 624 349 l 1,40,41
 573 296 573 296 514 253.5 c 128,-1,42
 455 211 455 211 390 178 c 2,43,-1
 386 176 l 2,44,45
 333 149 333 149 271.5 125 c 128,-1,46
 210 101 210 101 146 83 c 2,47,-1
 135 80 l 1,48,-1
 140 67 l 1,49,50
 225 83 225 83 302.5 110 c 128,-1,51
 380 137 380 137 452 172 c 1,52,-1
 444 169 l 1,53,54
 516 205 516 205 577.5 250 c 128,-1,55
 639 295 639 295 690 347 c 2,56,-1
 692 349 l 1,57,-1
 962 349 l 1,0,-1
EndSplineSet
Validated: 9
EndChar

StartChar: uniE0E3
Encoding: 57571 57571 83
Width: 1096
Flags: W
LayerCount: 2
Fore
SplineSet
515 415 m 1,0,-1
 135 415 l 1,1,-1
 168 383 l 1,2,3
 188 388 188 388 209 391 c 128,-1,4
 230 394 230 394 251 394 c 0,5,6
 254 394 254 394 255 394 c 2,7,-1
 515 394 l 1,8,-1
 515 17 l 1,9,-1
 212 17 l 1,10,-1
 245 -16 l 1,11,12
 263 -10 263 -10 284 -7 c 128,-1,13
 305 -4 305 -4 327 -4 c 0,14,15
 330 -4 330 -4 332 -4 c 2,16,-1
 899 -4 l 1,17,-1
 822 71 l 1,18,-1
 768 17 l 1,19,-1
 567 17 l 1,20,-1
 567 394 l 1,21,-1
 962 394 l 1,22,-1
 882 473 l 1,23,-1
 825 415 l 1,24,-1
 567 415 l 1,25,-1
 567 683 l 1,26,-1
 600 712 l 1,27,-1
 510 752 l 1,28,29
 510 712 510 712 511.5 681 c 128,-1,30
 513 650 513 650 513 628 c 2,31,-1
 515 415 l 1,0,-1
EndSplineSet
Validated: 9
EndChar

StartChar: uniE0E6
Encoding: 57574 57574 84
Width: 1096
Flags: W
LayerCount: 2
Fore
SplineSet
575 -23 m 1,0,1
 570 74 570 74 572 395 c 1,2,-1
 590 395 l 1,3,4
 626 278 626 278 700 185 c 128,-1,5
 774 92 774 92 875 32 c 1,6,-1
 878 31 l 1,7,8
 888 52 888 52 908.5 64.5 c 128,-1,9
 929 77 929 77 953 77 c 0,10,11
 956 77 956 77 958 77 c 128,-1,12
 960 77 960 77 962 77 c 1,13,-1
 962 92 l 1,14,15
 902 109 902 109 848 137 c 0,16,17
 794 166 794 166 748 205 c 128,-1,18
 702 244 702 244 666 292 c 256,19,20
 630 340 630 340 605 394 c 1,21,-1
 603 397 l 1,22,-1
 939 397 l 1,23,-1
 864 472 l 1,24,-1
 809 418 l 1,25,-1
 572 418 l 1,26,-1
 572 598 l 1,27,-1
 854 598 l 1,28,-1
 780 670 l 1,29,-1
 731 620 l 1,30,-1
 572 620 l 1,31,-1
 572 724 l 1,32,-1
 608 749 l 1,33,-1
 513 791 l 1,34,35
 513 727 513 727 515.5 683.5 c 128,-1,36
 518 640 518 640 518 619 c 1,37,-1
 242 619 l 1,38,-1
 275 586 l 1,39,40
 294 590 294 590 316 593 c 128,-1,41
 338 596 338 596 360 596 c 0,42,43
 362 596 362 596 362 596 c 1,44,-1
 519 596 l 1,45,-1
 519 419 l 1,46,-1
 149 419 l 1,47,-1
 180 386 l 1,48,49
 200 392 200 392 221 394.5 c 128,-1,50
 242 397 242 397 264 397 c 0,51,52
 267 397 267 397 269 397 c 2,53,-1
 480 397 l 1,54,55
 450 340 450 340 413 289 c 0,56,57
 375 238 375 238 332.5 192 c 128,-1,58
 290 146 290 146 242 107 c 0,59,60
 194 67 194 67 140 35 c 2,61,-1
 135 32 l 1,62,-1
 143 22 l 1,63,64
 201 49 201 49 255 83 c 0,65,66
 308 118 308 118 355 158.5 c 128,-1,67
 402 199 402 199 443 245 c 0,68,69
 483 293 483 293 516 344 c 2,70,-1
 519 349 l 1,71,72
 519 101 519 101 515 -56 c 1,73,-1
 575 -23 l 1,0,1
EndSplineSet
Validated: 41
EndChar

StartChar: uniE0E8
Encoding: 57576 57576 85
Width: 1125
Flags: W
LayerCount: 2
Fore
SplineSet
990 406 m 1,0,-1
 912 485 l 1,1,-1
 854 428 l 1,2,-1
 579 428 l 1,3,-1
 579 692 l 1,4,-1
 905 692 l 1,5,-1
 836 764 l 1,6,-1
 789 715 l 1,7,-1
 203 715 l 1,8,-1
 239 685 l 1,9,10
 255 689 255 689 274 691.5 c 128,-1,11
 293 694 293 694 312 694 c 0,12,13
 315 694 315 694 317.5 693 c 128,-1,14
 320 692 320 692 323 692 c 2,15,-1
 525 692 l 1,16,-1
 525 425 l 1,17,-1
 135 425 l 1,18,-1
 167 392 l 1,19,20
 186 398 186 398 207 401 c 128,-1,21
 228 404 228 404 249 404 c 0,22,23
 251 404 251 404 252.5 404 c 128,-1,24
 254 404 254 404 254 404 c 1,25,-1
 525 404 l 1,26,-1
 525 241 l 2,27,28
 525 184 525 184 524.5 115.5 c 128,-1,29
 524 47 524 47 521 -29 c 1,30,-1
 582 4 l 1,31,32
 581 29 581 29 580 79.5 c 128,-1,33
 579 130 579 130 579 206 c 2,34,-1
 579 406 l 1,35,-1
 990 406 l 1,0,-1
EndSplineSet
Validated: 9
EndChar

StartChar: uniE0E7
Encoding: 57575 57575 86
Width: 1107
Flags: W
LayerCount: 2
Fore
SplineSet
600 412 m 1,0,1
 641 298 641 298 714.5 206.5 c 128,-1,2
 788 115 788 115 887 55 c 1,3,-1
 890 52 l 1,4,5
 896 73 896 73 916 85 c 128,-1,6
 936 97 936 97 972 101 c 1,7,-1
 972 116 l 1,8,9
 746 166 746 166 618 409 c 1,10,-1
 875 409 l 1,11,-1
 803 482 l 1,12,-1
 753 433 l 1,13,-1
 587 433 l 1,14,-1
 587 595 l 1,15,-1
 954 595 l 1,16,-1
 879 671 l 1,17,-1
 825 617 l 1,18,-1
 587 617 l 1,19,-1
 587 712 l 1,20,-1
 623 742 l 1,21,-1
 530 791 l 1,22,23
 531 748 531 748 532 705 c 128,-1,24
 533 662 533 662 533 619 c 1,25,-1
 159 619 l 1,26,-1
 192 586 l 1,27,28
 210 590 210 590 229 592.5 c 128,-1,29
 248 595 248 595 269 595 c 0,30,31
 270 595 270 595 273 595 c 128,-1,32
 276 595 276 595 279 595 c 2,33,-1
 531 595 l 1,34,-1
 531 431 l 1,35,-1
 243 431 l 1,36,-1
 275 400 l 1,37,38
 294 404 294 404 315 407 c 128,-1,39
 336 410 336 410 359 410 c 0,40,41
 362 410 362 410 362 410 c 1,42,-1
 492 410 l 1,43,44
 459 352 459 352 420 299 c 0,45,46
 381 247 381 247 337 199.5 c 128,-1,47
 293 152 293 152 243 112 c 0,48,49
 194 71 194 71 138 37 c 1,50,-1
 135 34 l 1,51,-1
 141 23 l 1,52,53
 203 53 203 53 258 89 c 0,54,55
 312 125 312 125 361 168.5 c 128,-1,56
 410 212 410 212 453 260 c 0,57,58
 495 310 495 310 530 365 c 1,59,-1
 533 368 l 1,60,61
 533 109 533 109 528 -55 c 1,62,-1
 590 -26 l 1,63,64
 590 22 590 22 588.5 130.5 c 128,-1,65
 587 239 587 239 587 412 c 1,66,-1
 600 412 l 1,0,1
EndSplineSet
Validated: 9
EndChar

StartChar: uniE0E9
Encoding: 57577 57577 87
Width: 1116
Flags: W
LayerCount: 2
Fore
SplineSet
135 52 m 1,0,-1
 146 41 l 1,1,2
 225 100 225 100 290.5 169.5 c 128,-1,3
 356 239 356 239 407 319 c 1,4,-1
 410 323 l 1,5,-1
 446 338 l 1,6,-1
 366 392 l 1,7,8
 324 292 324 292 265.5 208 c 128,-1,9
 207 124 207 124 135 52 c 1,0,-1
171 454 m 1,10,11
 189 458 189 458 211 461 c 128,-1,12
 233 464 233 464 254 464 c 0,13,14
 257 464 257 464 258 464 c 2,15,-1
 533 464 l 1,16,-1
 533 101 l 2,17,18
 533 80 533 80 525.5 69 c 128,-1,19
 518 58 518 58 501 56 c 0,20,21
 500 56 500 56 500 56 c 2,22,23
 465 56 465 56 430 59 c 128,-1,24
 395 62 395 62 360 67 c 1,25,-1
 366 65 l 1,26,-1
 366 52 l 1,27,28
 426 37 426 37 457.5 13 c 128,-1,29
 489 -11 489 -11 492 -41 c 1,30,31
 542 -28 542 -28 566 0 c 128,-1,32
 590 28 590 28 587 67 c 2,33,-1
 587 466 l 1,34,-1
 981 466 l 1,35,-1
 909 542 l 1,36,-1
 855 487 l 1,37,-1
 140 487 l 1,38,-1
 171 454 l 1,10,11
282 689 m 1,39,40
 302 695 302 695 323 698 c 128,-1,41
 344 701 344 701 365 701 c 0,42,43
 366 701 366 701 367.5 701 c 128,-1,44
 369 701 369 701 369 701 c 1,45,-1
 887 701 l 1,46,-1
 815 776 l 1,47,-1
 761 722 l 1,48,-1
 251 722 l 1,49,-1
 282 689 l 1,39,40
674 361 m 1,50,51
 707 328 707 328 737.5 292.5 c 128,-1,52
 768 257 768 257 797 220 c 1,53,-1
 800 217 l 1,54,55
 819 191 819 191 837 163.5 c 128,-1,56
 855 136 855 136 872 106 c 2,57,-1
 875 101 l 2,58,59
 881 85 881 85 887.5 77.5 c 128,-1,60
 894 70 894 70 900 70 c 0,61,62
 905 70 905 70 909.5 75 c 128,-1,63
 914 80 914 80 920 91 c 0,64,65
 924 100 924 100 927 111 c 128,-1,66
 930 122 930 122 930 134 c 0,67,68
 930 136 930 136 930 137.5 c 128,-1,69
 930 139 930 139 930 140 c 0,70,71
 923 164 923 164 908.5 184.5 c 128,-1,72
 894 205 894 205 875 220 c 0,73,74
 831 259 831 259 785.5 295.5 c 128,-1,75
 740 332 740 332 690 367 c 2,76,-1
 684 371 l 1,77,-1
 674 361 l 1,50,51
EndSplineSet
Validated: 41
EndChar

StartChar: uniE0EA
Encoding: 57578 57578 88
Width: 1117
Flags: W
LayerCount: 2
Fore
SplineSet
741 208 m 1,0,-1
 539 208 l 1,1,-1
 539 479 l 1,2,-1
 741 479 l 1,3,-1
 741 208 l 1,0,-1
275 598 m 2,4,-1
 275 499 l 1,5,-1
 135 499 l 1,6,-1
 168 467 l 1,7,8
 186 472 186 472 208.5 475 c 128,-1,9
 231 478 231 478 254 478 c 1,10,11
 254 478 254 478 254 478 c 1,12,-1
 276 478 l 1,13,-1
 276 29 l 1,14,-1
 246 4 l 1,15,-1
 303 -46 l 1,16,-1
 329 -14 l 1,17,-1
 980 -14 l 1,18,-1
 903 67 l 1,19,-1
 845 13 l 1,20,-1
 326 13 l 1,21,-1
 326 479 l 1,22,-1
 488 479 l 1,23,-1
 488 184 l 2,24,25
 488 176 488 176 487 156 c 128,-1,26
 486 136 486 136 485 104 c 1,27,-1
 539 125 l 1,28,-1
 539 185 l 1,29,-1
 741 185 l 1,30,-1
 741 113 l 1,31,-1
 795 139 l 1,32,33
 795 163 795 163 793 178 c 128,-1,34
 791 193 791 193 791 200 c 2,35,-1
 791 479 l 1,36,-1
 983 479 l 1,37,-1
 908 554 l 1,38,-1
 852 500 l 1,39,-1
 791 500 l 1,40,-1
 791 713 l 1,41,-1
 828 739 l 1,42,-1
 737 779 l 1,43,44
 738 746 738 746 739.5 715.5 c 128,-1,45
 741 685 741 685 741 655 c 2,46,-1
 741 500 l 1,47,-1
 539 500 l 1,48,-1
 539 706 l 1,49,-1
 572 736 l 1,50,-1
 485 772 l 1,51,52
 486 742 486 742 487 712.5 c 128,-1,53
 488 683 488 683 488 652 c 2,54,-1
 488 500 l 1,55,-1
 326 500 l 1,56,-1
 326 644 l 1,57,-1
 357 670 l 1,58,-1
 272 709 l 1,59,60
 273 685 273 685 274 656.5 c 128,-1,61
 275 628 275 628 275 598 c 2,4,-1
EndSplineSet
Validated: 5
EndChar

StartChar: uniE0EB
Encoding: 57579 57579 89
Width: 1105
Flags: W
LayerCount: 2
Fore
SplineSet
239 692 m 1,0,1
 258 698 258 698 280 701 c 128,-1,2
 302 704 302 704 324 704 c 0,3,4
 326 704 326 704 326 704 c 1,5,-1
 618 704 l 1,6,-1
 618 479 l 1,7,-1
 315 479 l 1,8,9
 332 517 332 517 344 542.5 c 128,-1,10
 356 568 356 568 365 583 c 0,11,12
 371 598 371 598 380 610 c 128,-1,13
 389 622 389 622 401 632 c 1,14,-1
 329 670 l 1,15,16
 323 638 323 638 314 609.5 c 128,-1,17
 305 581 305 581 291 556 c 1,18,-1
 293 557 l 1,19,20
 284 533 284 533 268 513 c 128,-1,21
 252 493 252 493 231 479 c 1,22,-1
 279 424 l 1,23,-1
 312 457 l 1,24,-1
 566 457 l 1,25,26
 527 389 527 389 480 326 c 0,27,28
 432 265 432 265 379 211 c 128,-1,29
 326 157 326 157 266 109 c 0,30,31
 206 62 206 62 141 22 c 1,32,-1
 135 19 l 1,33,-1
 143 8 l 1,34,35
 218 43 218 43 285 86 c 0,36,37
 351 131 351 131 411 183 c 128,-1,38
 471 235 471 235 521 296 c 0,39,40
 572 356 572 356 614 424 c 1,41,-1
 615 428 l 1,42,-1
 615 83 l 2,43,44
 615 82 615 82 615 80 c 0,45,46
 615 67 615 67 605.5 56.5 c 128,-1,47
 596 46 596 46 581 46 c 0,48,49
 579 46 579 46 577 46 c 128,-1,50
 575 46 575 46 572 47 c 0,51,52
 551 49 551 49 522.5 50.5 c 128,-1,53
 494 52 494 52 458 53 c 1,54,-1
 458 40 l 1,55,56
 515 28 515 28 545 7 c 128,-1,57
 575 -14 575 -14 576 -44 c 1,58,59
 615 -35 615 -35 640.5 -4.5 c 128,-1,60
 666 26 666 26 666 67 c 0,61,62
 666 68 666 68 666 68 c 1,63,-1
 666 457 l 1,64,-1
 971 457 l 1,65,-1
 894 536 l 1,66,-1
 833 479 l 1,67,-1
 669 479 l 1,68,-1
 669 703 l 1,69,-1
 944 703 l 1,70,-1
 869 782 l 1,71,-1
 813 724 l 1,72,-1
 206 724 l 1,73,-1
 239 692 l 1,0,1
EndSplineSet
Validated: 9
EndChar

StartChar: uniE0EC
Encoding: 57580 57580 90
Width: 1113
Flags: W
LayerCount: 2
Fore
SplineSet
470 794 m 1,0,1
 456 751 456 751 441 713.5 c 128,-1,2
 426 676 426 676 408 640 c 1,3,-1
 411 647 l 1,4,-1
 198 647 l 1,5,-1
 234 614 l 1,6,7
 249 619 249 619 266.5 622 c 128,-1,8
 284 625 284 625 302 625 c 2,9,-1
 407 625 l 1,10,11
 386 578 386 578 365.5 539 c 128,-1,12
 345 500 345 500 324 464 c 1,13,-1
 327 472 l 1,14,15
 314 443 314 443 293.5 421.5 c 128,-1,16
 273 400 273 400 248 383 c 1,17,-1
 303 328 l 1,18,-1
 339 365 l 1,19,-1
 536 365 l 1,20,-1
 536 187 l 1,21,-1
 135 187 l 1,22,-1
 168 155 l 1,23,24
 183 160 183 160 201 163 c 128,-1,25
 219 166 219 166 239 166 c 2,26,-1
 534 166 l 1,27,28
 534 121 534 121 533.5 64.5 c 128,-1,29
 533 8 533 8 531 -58 c 1,30,-1
 593 -40 l 1,31,32
 590 7 590 7 589 58.5 c 128,-1,33
 588 110 588 110 588 166 c 1,34,-1
 978 166 l 1,35,-1
 906 242 l 1,36,-1
 852 187 l 1,37,-1
 588 187 l 1,38,-1
 588 365 l 1,39,-1
 875 365 l 1,40,-1
 806 440 l 1,41,-1
 756 386 l 1,42,-1
 588 386 l 1,43,-1
 588 517 l 1,44,-1
 618 545 l 1,45,-1
 530 581 l 1,46,47
 531 553 531 553 532 503.5 c 128,-1,48
 533 454 533 454 533 385 c 1,49,-1
 336 385 l 1,50,-1
 470 623 l 1,51,-1
 917 623 l 1,52,-1
 849 697 l 1,53,-1
 795 649 l 1,54,-1
 474 649 l 1,55,56
 498 695 498 695 517.5 720 c 128,-1,57
 537 745 537 745 549 746 c 1,58,-1
 470 794 l 1,0,1
EndSplineSet
Validated: 9
EndChar

StartChar: uniE0ED
Encoding: 57581 57581 91
Width: 1086
Flags: W
LayerCount: 2
Fore
SplineSet
347 296 m 1,0,1
 318 203 318 203 267 125 c 128,-1,2
 216 47 216 47 146 -13 c 1,3,-1
 153 -23 l 1,4,5
 228 23 228 23 286 89 c 128,-1,6
 344 155 344 155 380 235 c 1,7,-1
 381 238 l 1,8,9
 438 386 438 386 438 688 c 1,10,-1
 615 688 l 1,11,-1
 615 124 l 2,12,13
 612 23 612 23 705 26 c 2,14,-1
 836 26 l 2,15,16
 837 26 837 26 839.5 26 c 128,-1,17
 842 26 842 26 843 26 c 0,18,19
 878 26 878 26 905 44 c 128,-1,20
 932 62 932 62 944 91 c 1,21,22
 927 95 927 95 915 108.5 c 128,-1,23
 903 122 903 122 900 140 c 0,24,25
 897 166 897 166 895.5 193.5 c 128,-1,26
 894 221 894 221 894 251 c 0,27,28
 894 257 894 257 894 263 c 128,-1,29
 894 269 894 269 894 274 c 1,30,-1
 879 274 l 1,31,32
 876 230 876 230 872.5 189.5 c 128,-1,33
 869 149 869 149 861 110 c 1,34,-1
 863 118 l 1,35,36
 858 95 858 95 846 83 c 128,-1,37
 834 71 834 71 813 71 c 2,38,-1
 728 71 l 2,39,40
 666 71 666 71 669 137 c 2,41,-1
 669 688 l 1,42,-1
 951 688 l 1,43,-1
 884 760 l 1,44,-1
 828 712 l 1,45,-1
 135 712 l 1,46,-1
 170 677 l 1,47,48
 188 682 188 682 209 685 c 128,-1,49
 230 688 230 688 252 688 c 0,50,51
 254 688 254 688 254 688 c 1,52,-1
 384 688 l 1,53,54
 384 676 384 676 385 662.5 c 128,-1,55
 386 649 386 649 386 635 c 0,56,57
 386 545 386 545 375.5 456.5 c 128,-1,58
 365 368 365 368 344 284 c 1,59,-1
 347 293 l 1,60,-1
 347 296 l 1,0,1
EndSplineSet
Validated: 37
EndChar

StartChar: uniE0EF
Encoding: 57583 57583 92
Width: 1080
Flags: W
LayerCount: 2
Fore
SplineSet
255 631 m 1,0,1
 272 634 272 634 290 636 c 128,-1,2
 308 638 308 638 327 638 c 2,3,-1
 515 638 l 1,4,-1
 515 554 l 1,5,-1
 294 554 l 1,6,-1
 327 521 l 1,7,8
 342 524 342 524 359.5 526.5 c 128,-1,9
 377 529 377 529 395 529 c 2,10,-1
 515 529 l 1,11,-1
 515 446 l 1,12,-1
 135 446 l 1,13,-1
 168 415 l 1,14,15
 183 416 183 416 200.5 418.5 c 128,-1,16
 218 421 218 421 236 421 c 2,17,-1
 945 421 l 1,18,-1
 881 490 l 1,19,-1
 837 446 l 1,20,-1
 566 446 l 1,21,-1
 566 529 l 1,22,-1
 807 529 l 1,23,-1
 746 598 l 1,24,-1
 698 554 l 1,25,-1
 566 554 l 1,26,-1
 566 638 l 1,27,-1
 861 638 l 1,28,-1
 800 706 l 1,29,-1
 753 662 l 1,30,-1
 566 662 l 1,31,-1
 566 703 l 1,32,-1
 597 728 l 1,33,-1
 512 760 l 1,34,35
 513 740 513 740 514 722 c 128,-1,36
 515 704 515 704 515 685 c 2,37,-1
 515 662 l 1,38,-1
 222 662 l 1,39,-1
 255 631 l 1,0,1
EndSplineSet
Validated: 9
EndChar

StartChar: uniE0F0
Encoding: 57584 57584 93
Width: 1104
Flags: W
LayerCount: 2
Fore
SplineSet
272 352 m 1,0,1
 290 361 290 361 311 368.5 c 128,-1,2
 332 376 332 376 354 380 c 1,3,-1
 357 382 l 1,4,5
 392 389 392 389 433 395 c 128,-1,6
 474 401 474 401 518 406 c 1,7,-1
 524 406 l 1,8,-1
 524 236 l 1,9,-1
 228 236 l 1,10,-1
 260 203 l 1,11,12
 279 209 279 209 300 212 c 128,-1,13
 321 215 321 215 344 215 c 2,14,15
 344 215 344 215 345.5 215 c 128,-1,16
 347 215 347 215 347 215 c 1,17,-1
 524 215 l 1,18,-1
 524 17 l 1,19,-1
 135 17 l 1,20,-1
 168 -16 l 1,21,22
 186 -10 186 -10 208 -7 c 128,-1,23
 230 -4 230 -4 252 -4 c 0,24,25
 254 -4 254 -4 254 -4 c 1,26,-1
 969 -4 l 1,27,-1
 897 77 l 1,28,-1
 833 16 l 1,29,-1
 579 16 l 1,30,-1
 579 214 l 1,31,-1
 882 214 l 1,32,-1
 810 293 l 1,33,-1
 753 235 l 1,34,-1
 579 235 l 1,35,-1
 579 410 l 1,36,-1
 776 431 l 1,37,38
 789 416 789 416 800.5 402 c 128,-1,39
 812 388 812 388 824 374 c 0,40,41
 827 367 827 367 830.5 363 c 128,-1,42
 834 359 834 359 837 359 c 0,43,44
 842 359 842 359 848 366 c 128,-1,45
 854 373 854 373 860 386 c 0,46,47
 863 394 863 394 864.5 401.5 c 128,-1,48
 866 409 866 409 866 416 c 0,49,50
 866 422 866 422 865 426.5 c 128,-1,51
 864 431 864 431 863 436 c 0,52,53
 855 452 855 452 842.5 465.5 c 128,-1,54
 830 479 830 479 813 488 c 0,55,56
 771 515 771 515 721.5 541.5 c 128,-1,57
 672 568 672 568 620 592 c 1,58,-1
 608 596 l 1,59,-1
 600 586 l 1,60,61
 644 554 644 554 683 520.5 c 128,-1,62
 722 487 722 487 756 449 c 1,63,64
 525 434 525 434 302 424 c 1,65,66
 336 449 336 449 367 477 c 128,-1,67
 398 505 398 505 428 533 c 0,68,69
 449 556 449 556 481 592 c 128,-1,70
 513 628 513 628 557 676 c 1,71,-1
 936 676 l 1,72,-1
 861 752 l 1,73,-1
 803 698 l 1,74,-1
 171 698 l 1,75,-1
 203 667 l 1,76,77
 222 671 222 671 243 674 c 128,-1,78
 264 677 264 677 287 677 c 0,79,80
 290 677 290 677 290 677 c 1,81,-1
 482 677 l 1,82,83
 461 638 461 638 437 604.5 c 128,-1,84
 413 571 413 571 386 542 c 0,85,86
 366 520 366 520 346 500.5 c 128,-1,87
 326 481 326 481 303 463 c 0,88,89
 287 451 287 451 268 443.5 c 128,-1,90
 249 436 249 436 228 436 c 1,91,-1
 272 352 l 1,0,1
EndSplineSet
Validated: 9
EndChar

StartChar: uniE0F1
Encoding: 57585 57585 94
Width: 1098
Flags: W
LayerCount: 2
Fore
SplineSet
963 316 m 1,0,-1
 899 385 l 1,1,-1
 849 335 l 1,2,-1
 381 335 l 1,3,-1
 381 457 l 1,4,-1
 819 457 l 1,5,-1
 758 521 l 1,6,-1
 714 479 l 1,7,-1
 381 479 l 1,8,-1
 381 583 l 1,9,-1
 812 583 l 1,10,-1
 753 644 l 1,11,-1
 714 604 l 1,12,-1
 381 604 l 1,13,-1
 381 713 l 1,14,-1
 858 713 l 1,15,-1
 800 775 l 1,16,-1
 761 736 l 1,17,-1
 384 736 l 1,18,-1
 323 767 l 1,19,20
 323 728 323 728 325 620 c 128,-1,21
 327 512 327 512 327 338 c 1,22,-1
 135 338 l 1,23,-1
 168 305 l 1,24,25
 188 310 188 310 209.5 313 c 128,-1,26
 231 316 231 316 254 316 c 2,27,28
 254 316 254 316 255 316 c 2,29,-1
 303 316 l 1,30,-1
 303 74 l 2,31,32
 303 59 303 59 299.5 45 c 128,-1,33
 296 31 296 31 290 19 c 1,34,-1
 339 -38 l 1,35,36
 384 5 384 5 435 45.5 c 128,-1,37
 486 86 486 86 539 121 c 1,38,-1
 545 124 l 1,39,-1
 542 136 l 1,40,-1
 360 44 l 1,41,-1
 360 316 l 1,42,-1
 500 316 l 1,43,44
 528 248 528 248 568.5 192 c 128,-1,45
 609 136 609 136 660 91 c 1,46,-1
 662 89 l 1,47,48
 710 52 710 52 764.5 22 c 128,-1,49
 819 -8 819 -8 878 -29 c 2,50,-1
 884 -31 l 1,51,52
 891 -10 891 -10 910.5 3 c 128,-1,53
 930 16 930 16 963 17 c 1,54,-1
 963 32 l 1,55,56
 918 35 918 35 875.5 44 c 128,-1,57
 833 53 833 53 794 70 c 1,58,-1
 797 68 l 1,59,60
 753 86 753 86 715 108.5 c 128,-1,61
 677 131 677 131 644 160 c 1,62,-1
 645 158 l 1,63,64
 686 182 686 182 734 198 c 128,-1,65
 782 214 782 214 836 220 c 1,66,-1
 788 289 l 1,67,68
 753 256 753 256 716.5 226.5 c 128,-1,69
 680 197 680 197 639 172 c 1,70,-1
 635 170 l 1,71,72
 600 200 600 200 571.5 236 c 128,-1,73
 543 272 543 272 522 313 c 1,74,-1
 521 316 l 1,75,-1
 963 316 l 1,0,-1
EndSplineSet
Validated: 5
EndChar

StartChar: uniE0F2
Encoding: 57586 57586 95
Width: 1098
Flags: W
LayerCount: 2
Fore
SplineSet
671 176 m 1,0,1
 701 149 701 149 727 118.5 c 128,-1,2
 753 88 753 88 777 55 c 2,3,-1
 779 52 l 1,4,-1
 309 41 l 1,5,6
 350 70 350 70 386 97.5 c 128,-1,7
 422 125 422 125 455 155 c 1,8,-1
 453 154 l 1,9,10
 480 179 480 179 512.5 198 c 128,-1,11
 545 217 545 217 581 229 c 1,12,-1
 584 229 l 1,13,-1
 534 278 l 1,14,-1
 963 278 l 1,15,-1
 902 349 l 1,16,-1
 858 305 l 1,17,-1
 392 305 l 1,18,-1
 392 433 l 1,19,-1
 825 433 l 1,20,-1
 771 491 l 1,21,-1
 735 455 l 1,22,-1
 390 455 l 1,23,-1
 390 574 l 1,24,-1
 818 574 l 1,25,-1
 767 632 l 1,26,-1
 731 596 l 1,27,-1
 392 596 l 1,28,-1
 392 709 l 1,29,-1
 863 709 l 1,30,-1
 804 769 l 1,31,-1
 765 730 l 1,32,-1
 396 730 l 1,33,-1
 335 779 l 1,34,35
 335 683 335 683 336.5 564.5 c 128,-1,36
 338 446 338 446 338 305 c 1,37,-1
 135 305 l 1,38,-1
 168 274 l 1,39,40
 186 278 186 278 207 281 c 128,-1,41
 228 284 228 284 251 284 c 0,42,43
 254 284 254 284 255 284 c 2,44,-1
 504 284 l 1,45,46
 474 244 474 244 443.5 208.5 c 128,-1,47
 413 173 413 173 380 142 c 0,48,49
 332 91 332 91 296 69 c 128,-1,50
 260 47 260 47 236 52 c 1,51,-1
 263 -23 l 1,52,53
 276 -17 276 -17 315 -10 c 0,54,55
 356 -4 356 -4 422 3.5 c 128,-1,56
 488 11 488 11 581 19 c 0,57,58
 674 26 674 26 794 35 c 1,59,60
 807 14 807 14 817.5 0.5 c 128,-1,61
 828 -13 828 -13 834 -22 c 0,62,63
 842 -29 842 -29 846.5 -33.5 c 128,-1,64
 851 -38 851 -38 855 -38 c 0,65,66
 858 -38 858 -38 862 -32 c 128,-1,67
 866 -26 866 -26 870 -16 c 0,68,69
 875 -8 875 -8 877 -0.5 c 128,-1,70
 879 7 879 7 879 17 c 0,71,72
 878 35 878 35 867.5 51.5 c 128,-1,73
 857 68 857 68 842 79 c 0,74,75
 807 106 807 106 768 133 c 128,-1,76
 729 160 729 160 689 185 c 2,77,-1
 681 190 l 1,78,-1
 671 176 l 1,0,1
EndSplineSet
Validated: 41
EndChar

StartChar: uniE0F3
Encoding: 57587 57587 96
Width: 1114
Flags: W
LayerCount: 2
Fore
SplineSet
797 421 m 0,0,1
 753 376 753 376 703.5 336 c 128,-1,2
 654 296 654 296 600 265 c 1,3,-1
 596 262 l 1,4,-1
 603 251 l 1,5,6
 696 293 696 293 774 348.5 c 128,-1,7
 852 404 852 404 918 475 c 1,8,-1
 962 485 l 1,9,-1
 903 554 l 1,10,11
 879 517 879 517 852 484 c 128,-1,12
 825 451 825 451 797 421 c 0,0,1
914 721 m 1,13,-1
 857 782 l 1,14,15
 833 743 833 743 806.5 710 c 128,-1,16
 780 677 780 677 752 647 c 0,17,18
 719 611 719 611 683 579.5 c 128,-1,19
 647 548 647 548 606 520 c 1,20,-1
 605 518 l 1,21,-1
 611 508 l 1,22,23
 687 547 687 547 753 596.5 c 128,-1,24
 819 646 819 646 875 704 c 1,25,-1
 914 721 l 1,13,-1
336 208 m 1,26,27
 375 265 375 265 401 265 c 1,28,-1
 336 308 l 1,29,-1
 636 308 l 1,30,-1
 572 377 l 1,31,-1
 516 331 l 1,32,-1
 293 331 l 1,33,-1
 293 439 l 1,34,-1
 567 439 l 1,35,-1
 506 508 l 1,36,-1
 452 458 l 1,37,-1
 293 458 l 1,38,-1
 293 556 l 1,39,-1
 575 556 l 1,40,-1
 513 625 l 1,41,-1
 464 575 l 1,42,-1
 293 575 l 1,43,-1
 293 685 l 1,44,-1
 603 685 l 1,45,-1
 542 749 l 1,46,-1
 492 706 l 1,47,-1
 296 706 l 1,48,-1
 239 739 l 1,49,50
 240 709 240 709 241 606 c 128,-1,51
 242 503 242 503 242 331 c 1,52,-1
 135 331 l 1,53,-1
 170 299 l 1,54,55
 188 304 188 304 209.5 307 c 128,-1,56
 231 310 231 310 252 310 c 0,57,58
 255 310 255 310 257 310 c 2,59,-1
 321 310 l 1,60,61
 306 263 306 263 286 222.5 c 128,-1,62
 266 182 266 182 239 146 c 1,63,-1
 240 149 l 1,64,65
 218 119 218 119 200.5 103.5 c 128,-1,66
 183 88 183 88 170 85 c 1,67,-1
 213 17 l 1,68,69
 225 25 225 25 238.5 32.5 c 128,-1,70
 252 40 252 40 267 46 c 0,71,72
 320 61 320 61 384.5 75 c 128,-1,73
 449 89 449 89 516 100 c 1,74,-1
 530 101 l 1,75,76
 536 85 536 85 542.5 70 c 128,-1,77
 549 55 549 55 554 40 c 0,78,79
 558 31 558 31 562 26.5 c 128,-1,80
 566 22 566 22 569 22 c 256,81,82
 572 22 572 22 578 26.5 c 128,-1,83
 584 31 584 31 590 40 c 256,84,85
 596 49 596 49 599.5 58.5 c 128,-1,86
 603 68 603 68 603 79 c 0,87,88
 603 80 603 80 603 82.5 c 128,-1,89
 603 85 603 85 603 85 c 2,90,91
 600 104 600 104 590.5 119 c 128,-1,92
 581 134 581 134 567 145 c 0,93,94
 543 166 543 166 517 187 c 128,-1,95
 491 208 491 208 464 226 c 1,96,-1
 461 229 l 1,97,-1
 449 221 l 1,98,99
 468 199 468 199 485.5 174 c 128,-1,100
 503 149 503 149 516 122 c 1,101,-1
 518 119 l 1,102,-1
 239 92 l 1,103,104
 263 118 263 118 287 146.5 c 128,-1,105
 311 175 311 175 333 205 c 1,106,-1
 336 208 l 1,26,27
779 122 m 1,107,108
 729 76 729 76 670.5 37 c 128,-1,109
 612 -2 612 -2 548 -32 c 2,110,-1
 542 -35 l 1,111,-1
 546 -46 l 1,112,113
 663 -8 663 -8 761.5 57 c 128,-1,114
 860 122 860 122 936 211 c 1,115,-1
 980 221 l 1,116,-1
 923 290 l 1,117,118
 893 242 893 242 857 200 c 128,-1,119
 821 158 821 158 780 124 c 1,120,-1
 779 122 l 1,107,108
EndSplineSet
Validated: 9
EndChar

StartChar: uniE100
Encoding: 57600 57600 97
Width: 604
Flags: W
LayerCount: 2
Fore
SplineSet
135 521 m 1,0,1
 168 499 168 499 196 472 c 128,-1,2
 224 445 224 445 246 415 c 1,3,-1
 248 413 l 1,4,5
 255 398 255 398 261 391.5 c 128,-1,6
 267 385 267 385 273 385 c 0,7,8
 278 385 278 385 281 391 c 128,-1,9
 284 397 284 397 287 410 c 0,10,11
 290 418 290 418 292 427 c 128,-1,12
 294 436 294 436 294 446 c 0,13,14
 294 460 294 460 284.5 472.5 c 128,-1,15
 275 485 275 485 255 494 c 0,16,17
 230 506 230 506 201.5 516 c 128,-1,18
 173 526 173 526 143 532 c 2,19,-1
 140 533 l 1,20,-1
 135 521 l 1,0,1
240 727 m 1,21,22
 269 703 269 703 292 674.5 c 128,-1,23
 315 646 315 646 333 614 c 2,24,-1
 335 611 l 1,25,26
 350 580 350 580 359 580 c 1,27,28
 359 580 359 580 364 585 c 128,-1,29
 369 590 369 590 374 601 c 0,30,31
 380 610 380 610 382 621 c 128,-1,32
 384 632 384 632 386 644 c 0,33,34
 384 658 384 658 377.5 668.5 c 128,-1,35
 371 679 371 679 362 686 c 0,36,37
 336 701 336 701 308.5 714.5 c 128,-1,38
 281 728 281 728 251 737 c 1,39,-1
 248 739 l 1,40,-1
 240 727 l 1,21,22
174 178 m 1,41,42
 216 169 216 169 237 155.5 c 128,-1,43
 258 142 258 142 260 124 c 1,44,45
 260 124 260 124 260 124 c 1,46,47
 260 100 260 100 255.5 78 c 128,-1,48
 251 56 251 56 243 37 c 0,49,50
 240 29 240 29 238 20 c 128,-1,51
 236 11 236 11 236 1 c 0,52,53
 236 -11 236 -11 242.5 -21 c 128,-1,54
 249 -31 249 -31 260 -37 c 0,55,56
 266 -43 266 -43 273.5 -46.5 c 128,-1,57
 281 -50 281 -50 290 -53 c 0,58,59
 302 -53 302 -53 308.5 -34.5 c 128,-1,60
 315 -16 315 -16 315 23 c 0,61,62
 315 31 315 31 314.5 39 c 128,-1,63
 314 47 314 47 314 56 c 0,64,65
 314 83 314 83 316 110 c 128,-1,66
 318 137 318 137 323 164 c 1,67,-1
 321 160 l 1,68,69
 327 185 327 185 333 208.5 c 128,-1,70
 339 232 339 232 347 253 c 1,71,-1
 345 248 l 1,72,73
 362 298 362 298 470 608 c 1,74,-1
 455 611 l 1,75,76
 372 412 372 412 325.5 308.5 c 128,-1,77
 279 205 279 205 269 197 c 1,78,79
 257 194 257 194 242.5 191 c 128,-1,80
 228 188 228 188 213 188 c 0,81,82
 203 188 203 188 194 189.5 c 128,-1,83
 185 191 185 191 177 193 c 1,84,-1
 174 178 l 1,41,42
EndSplineSet
Validated: 9
EndChar

StartChar: uniE101
Encoding: 57601 57601 98
Width: 960
Flags: W
LayerCount: 2
Fore
SplineSet
782 524 m 1,0,1
 789 533 789 533 798 539 c 128,-1,2
 807 545 807 545 818 547 c 0,3,4
 825 551 825 551 825 554 c 0,5,6
 825 556 825 556 821.5 559.5 c 128,-1,7
 818 563 818 563 810 568 c 2,8,-1
 731 608 l 1,9,-1
 720 598 l 1,10,11
 725 590 725 590 728.5 581 c 128,-1,12
 732 572 732 572 735 562 c 1,13,14
 728 518 728 518 717.5 479 c 128,-1,15
 707 440 707 440 693 403 c 1,16,-1
 696 409 l 1,17,18
 653 265 653 265 576 64 c 1,19,-1
 602 56 l 1,20,21
 626 104 626 104 648 158 c 0,22,23
 671 211 671 211 693.5 266.5 c 128,-1,24
 716 322 716 322 737 380 c 0,25,26
 758 439 758 439 776 499 c 2,27,-1
 782 524 l 1,0,1
294 224 m 0,28,29
 293 278 293 278 280 329 c 128,-1,30
 267 380 267 380 243 424 c 1,31,-1
 245 422 l 1,32,33
 225 463 225 463 201 499 c 128,-1,34
 177 535 177 535 150 565 c 1,35,-1
 135 554 l 1,36,37
 182 485 182 485 209.5 401 c 128,-1,38
 237 317 237 317 240 226 c 2,39,-1
 240 200 l 2,40,41
 240 178 240 178 245.5 167.5 c 128,-1,42
 251 157 251 157 261 157 c 0,43,44
 272 157 272 157 283 174 c 128,-1,45
 294 191 294 191 294 224 c 0,28,29
522 286 m 0,46,47
 521 341 521 341 508 391.5 c 128,-1,48
 495 442 495 442 471 485 c 1,49,-1
 473 484 l 1,50,51
 453 524 453 524 429 559.5 c 128,-1,52
 405 595 405 595 378 625 c 1,53,-1
 363 614 l 1,54,55
 411 544 411 544 439 460.5 c 128,-1,56
 467 377 467 377 468 284 c 1,57,-1
 465 263 l 2,58,59
 465 241 465 241 471 230.5 c 128,-1,60
 477 220 477 220 491 220 c 0,61,62
 503 220 503 220 512.5 237 c 128,-1,63
 522 254 522 254 522 286 c 0,46,47
EndSplineSet
Validated: 9
EndChar

StartChar: uniE104
Encoding: 57604 57604 99
Width: 1122
Flags: W
LayerCount: 2
Fore
SplineSet
344 430 m 1,0,1
 360 394 360 394 375 352 c 128,-1,2
 390 310 390 310 402 266 c 2,3,-1
 404 257 l 2,4,5
 413 230 413 230 420.5 196.5 c 128,-1,6
 428 163 428 163 432 128 c 1,7,-1
 434 122 l 1,8,9
 435 94 435 94 442 82.5 c 128,-1,10
 449 71 449 71 461 79 c 0,11,12
 471 85 471 85 478.5 94.5 c 128,-1,13
 486 104 486 104 489 116 c 0,14,15
 492 125 492 125 493.5 135 c 128,-1,16
 495 145 495 145 495 154 c 0,17,18
 494 179 494 179 488 202.5 c 128,-1,19
 482 226 482 226 473 247 c 1,20,-1
 474 245 l 1,21,22
 446 301 446 301 418 349 c 128,-1,23
 390 397 390 397 359 442 c 1,24,-1
 362 437 l 1,25,-1
 344 430 l 1,0,1
225 502 m 1,26,27
 245 506 245 506 266.5 509 c 128,-1,28
 288 512 288 512 311 512 c 0,29,30
 312 512 312 512 312 512 c 1,31,-1
 938 512 l 1,32,-1
 864 589 l 1,33,-1
 810 535 l 1,34,-1
 192 535 l 1,35,-1
 225 502 l 1,26,27
467 715 m 1,36,37
 491 688 491 688 509 657 c 128,-1,38
 527 626 527 626 539 590 c 1,39,-1
 540 589 l 1,40,41
 551 548 551 548 564 548 c 0,42,43
 569 548 569 548 574 554 c 128,-1,44
 579 560 579 560 587 572 c 0,45,46
 593 581 593 581 596.5 591.5 c 128,-1,47
 600 602 600 602 602 614 c 0,48,49
 600 626 600 626 595 638 c 128,-1,50
 590 650 590 650 581 659 c 0,51,52
 558 679 558 679 532 695.5 c 128,-1,53
 506 712 506 712 477 724 c 1,54,-1
 476 725 l 1,55,-1
 467 715 l 1,36,37
807 419 m 1,56,-1
 708 473 l 1,57,58
 699 406 699 406 687 341 c 0,59,60
 675 278 675 278 659.5 216 c 128,-1,61
 644 154 644 154 626 95 c 0,62,63
 606 35 606 35 584 -22 c 1,64,-1
 590 -8 l 1,65,-1
 135 -8 l 1,66,-1
 167 -40 l 1,67,68
 186 -35 186 -35 207 -32 c 128,-1,69
 228 -29 228 -29 251 -29 c 2,70,71
 251 -29 251 -29 252.5 -29 c 128,-1,72
 254 -29 254 -29 254 -29 c 1,73,-1
 987 -29 l 1,74,-1
 915 50 l 1,75,-1
 861 -8 l 1,76,-1
 615 -8 l 1,77,78
 651 79 651 79 688.5 179.5 c 128,-1,79
 726 280 726 280 767 394 c 1,80,-1
 807 419 l 1,56,-1
EndSplineSet
Validated: 5
EndChar

StartChar: uniE106
Encoding: 57606 57606 100
Width: 1096
Flags: W
LayerCount: 2
Fore
SplineSet
839 368 m 1,0,-1
 680 368 l 1,1,-1
 680 491 l 1,2,-1
 839 491 l 1,3,-1
 839 368 l 1,0,-1
633 368 m 1,4,-1
 498 368 l 1,5,-1
 498 491 l 1,6,-1
 633 491 l 1,7,-1
 633 368 l 1,4,-1
452 368 m 1,8,-1
 300 368 l 1,9,-1
 300 491 l 1,10,-1
 452 491 l 1,11,-1
 452 368 l 1,8,-1
633 512 m 1,12,-1
 498 512 l 1,13,-1
 498 632 l 1,14,-1
 633 632 l 1,15,-1
 633 512 l 1,12,-1
452 512 m 1,16,-1
 300 512 l 1,17,-1
 300 632 l 1,18,-1
 452 632 l 1,19,-1
 452 512 l 1,16,-1
857 274 m 1,20,21
 819 235 819 235 775.5 202.5 c 128,-1,22
 732 170 732 170 683 145 c 1,23,-1
 680 143 l 1,24,-1
 680 250 l 1,25,-1
 708 275 l 1,26,-1
 629 314 l 1,27,28
 630 289 630 289 631.5 215.5 c 128,-1,29
 633 142 633 142 633 19 c 0,30,31
 632 -20 632 -20 653 -39 c 128,-1,32
 674 -58 674 -58 720 -53 c 1,33,-1
 857 -53 l 2,34,35
 860 -53 860 -53 863 -54 c 128,-1,36
 866 -55 866 -55 869 -55 c 0,37,38
 899 -55 899 -55 923.5 -39 c 128,-1,39
 948 -23 948 -23 962 4 c 1,40,41
 947 4 947 4 936.5 13 c 128,-1,42
 926 22 926 22 923 35 c 0,43,44
 918 56 918 56 916 80 c 128,-1,45
 914 104 914 104 912 130 c 1,46,-1
 899 130 l 1,47,48
 899 107 899 107 898 85.5 c 128,-1,49
 897 64 897 64 896 41 c 0,50,51
 893 19 893 19 884 4.5 c 128,-1,52
 875 -10 875 -10 858 -11 c 2,53,-1
 741 -11 l 1,54,55
 707 -16 707 -16 692 -2.5 c 128,-1,56
 677 11 677 11 680 43 c 2,57,-1
 680 122 l 1,58,59
 737 143 737 143 785 165 c 128,-1,60
 833 187 833 187 878 211 c 1,61,-1
 867 205 l 1,62,-1
 908 205 l 1,63,-1
 857 274 l 1,20,21
426 166 m 1,64,-1
 593 166 l 1,65,-1
 534 227 l 1,66,-1
 492 187 l 1,67,-1
 426 187 l 1,68,-1
 426 256 l 1,69,-1
 456 281 l 1,70,-1
 377 314 l 1,71,72
 377 295 377 295 378.5 226 c 128,-1,73
 380 157 380 157 380 35 c 0,74,75
 380 34 380 34 380.5 31 c 128,-1,76
 381 28 381 28 381 26 c 0,77,78
 381 14 381 14 376.5 5 c 128,-1,79
 372 -4 372 -4 365 -11 c 1,80,-1
 408 -61 l 1,81,82
 447 -17 447 -17 493 19 c 128,-1,83
 539 55 539 55 590 82 c 1,84,-1
 593 85 l 1,85,-1
 585 95 l 1,86,-1
 426 19 l 1,87,-1
 426 166 l 1,64,-1
144 -82 m 1,88,89
 224 -7 224 -7 263 99 c 128,-1,90
 302 205 302 205 300 346 c 1,91,-1
 839 346 l 1,92,-1
 839 313 l 1,93,-1
 888 331 l 1,94,95
 887 349 887 349 886 385.5 c 128,-1,96
 885 422 885 422 885 479 c 1,97,-1
 912 496 l 1,98,-1
 858 545 l 1,99,-1
 827 512 l 1,100,-1
 678 512 l 1,101,-1
 678 632 l 1,102,-1
 953 632 l 1,103,-1
 882 704 l 1,104,-1
 833 655 l 1,105,-1
 611 655 l 1,106,107
 620 662 620 662 626 672 c 128,-1,108
 632 682 632 682 633 694 c 0,109,110
 632 701 632 701 629 708 c 128,-1,111
 626 715 626 715 623 721 c 0,112,113
 605 736 605 736 585.5 747 c 128,-1,114
 566 758 566 758 542 766 c 1,115,-1
 534 755 l 1,116,117
 555 736 555 736 568.5 710.5 c 128,-1,118
 582 685 582 685 584 655 c 1,119,-1
 300 655 l 1,120,-1
 251 686 l 1,121,122
 254 625 254 625 254.5 549 c 128,-1,123
 255 473 255 473 255 382 c 0,124,125
 255 373 255 373 255 364 c 128,-1,126
 255 355 255 355 255 346 c 0,127,128
 255 278 255 278 247 213.5 c 128,-1,129
 239 149 239 149 222 88 c 1,130,-1
 224 95 l 1,131,132
 209 46 209 46 187 4 c 128,-1,133
 165 -38 165 -38 135 -74 c 1,134,-1
 137 -73 l 1,135,-1
 144 -82 l 1,88,89
EndSplineSet
Validated: 37
EndChar

StartChar: uniE107
Encoding: 57607 57607 101
Width: 1093
Flags: W
LayerCount: 2
Fore
SplineSet
842 368 m 1,0,-1
 683 368 l 1,1,-1
 683 491 l 1,2,-1
 842 491 l 1,3,-1
 842 368 l 1,0,-1
636 368 m 1,4,-1
 503 368 l 1,5,-1
 503 491 l 1,6,-1
 636 491 l 1,7,-1
 636 368 l 1,4,-1
456 368 m 1,8,-1
 303 368 l 1,9,-1
 303 491 l 1,10,-1
 456 491 l 1,11,-1
 456 368 l 1,8,-1
636 512 m 1,12,-1
 503 512 l 1,13,-1
 503 632 l 1,14,-1
 636 632 l 1,15,-1
 636 512 l 1,12,-1
456 512 m 1,16,-1
 303 512 l 1,17,-1
 303 632 l 1,18,-1
 456 632 l 1,19,-1
 456 512 l 1,16,-1
149 -79 m 1,20,21
 228 -5 228 -5 267 100.5 c 128,-1,22
 306 206 306 206 303 347 c 1,23,-1
 842 347 l 1,24,-1
 842 316 l 1,25,-1
 891 334 l 1,26,27
 890 352 890 352 889 388.5 c 128,-1,28
 888 425 888 425 888 481 c 1,29,-1
 917 499 l 1,30,-1
 864 545 l 1,31,-1
 831 512 l 1,32,-1
 683 512 l 1,33,-1
 683 632 l 1,34,-1
 959 632 l 1,35,-1
 885 704 l 1,36,-1
 836 655 l 1,37,-1
 617 655 l 1,38,39
 626 662 626 662 632 672 c 128,-1,40
 638 682 638 682 639 694 c 0,41,42
 638 701 638 701 635 708 c 128,-1,43
 632 715 632 715 629 721 c 0,44,45
 611 736 611 736 591.5 747 c 128,-1,46
 572 758 572 758 548 766 c 1,47,-1
 542 755 l 1,48,49
 561 736 561 736 574 710.5 c 128,-1,50
 587 685 587 685 588 655 c 1,51,-1
 303 655 l 1,52,-1
 255 686 l 1,53,54
 257 625 257 625 257.5 549 c 128,-1,55
 258 473 258 473 258 382 c 0,56,57
 258 376 258 376 258 369 c 128,-1,58
 258 362 258 362 258 356 c 0,59,60
 258 286 258 286 249 219 c 128,-1,61
 240 152 240 152 221 88 c 1,62,-1
 224 95 l 1,63,64
 209 46 209 46 187 4 c 128,-1,65
 165 -38 165 -38 135 -74 c 1,66,-1
 137 -73 l 1,67,-1
 149 -79 l 1,20,21
EndSplineSet
Validated: 41
EndChar

StartChar: uniE120
Encoding: 57632 57632 102
Width: 832
Flags: W
LayerCount: 2
Fore
SplineSet
618 95 m 1,0,-1
 189 95 l 1,1,-1
 189 410 l 1,2,-1
 618 410 l 1,3,-1
 618 95 l 1,0,-1
618 431 m 1,4,-1
 189 431 l 1,5,-1
 189 706 l 1,6,-1
 618 706 l 1,7,-1
 618 431 l 1,4,-1
189 4 m 1,8,-1
 189 74 l 1,9,-1
 618 74 l 1,10,-1
 618 -20 l 1,11,-1
 672 8 l 1,12,13
 671 52 671 52 670 100 c 128,-1,14
 669 148 669 148 669 200 c 2,15,-1
 669 692 l 1,16,-1
 698 715 l 1,17,-1
 636 764 l 1,18,-1
 611 728 l 1,19,-1
 189 728 l 1,20,-1
 135 764 l 1,21,22
 140 544 140 544 138 365 c 0,23,24
 138 275 138 275 138 177 c 128,-1,25
 138 79 138 79 135 -29 c 1,26,-1
 189 4 l 1,8,-1
EndSplineSet
Validated: 41
EndChar

StartChar: uniE12C
Encoding: 57644 57644 103
Width: 1048
Flags: W
LayerCount: 2
Fore
SplineSet
203 706 m 1,0,-1
 386 706 l 1,1,-1
 386 580 l 1,2,-1
 203 580 l 1,3,-1
 203 706 l 1,0,-1
429 706 m 1,4,-1
 516 706 l 1,5,-1
 516 17 l 1,6,-1
 480 17 l 1,7,8
 480 17 480 17 480 17 c 1,9,10
 459 17 459 17 445 31.5 c 128,-1,11
 431 46 431 46 431 65 c 0,12,13
 431 68 431 68 431 70.5 c 128,-1,14
 431 73 431 73 431 74 c 2,15,-1
 429 706 l 1,4,-1
560 280 m 1,16,-1
 773 280 l 1,17,-1
 773 167 l 1,18,-1
 560 167 l 1,19,-1
 560 280 l 1,16,-1
180 280 m 1,20,-1
 386 280 l 1,21,-1
 386 167 l 1,22,-1
 180 167 l 1,23,-1
 180 280 l 1,20,-1
560 424 m 1,24,-1
 773 424 l 1,25,-1
 773 299 l 1,26,-1
 560 299 l 1,27,-1
 560 424 l 1,24,-1
180 421 m 1,28,-1
 386 421 l 1,29,-1
 386 299 l 1,30,-1
 180 299 l 1,31,-1
 180 421 l 1,28,-1
560 706 m 1,32,-1
 737 706 l 1,33,-1
 737 580 l 1,34,-1
 560 580 l 1,35,-1
 560 706 l 1,32,-1
809 718 m 1,36,-1
 761 760 l 1,37,-1
 728 728 l 1,38,-1
 206 728 l 1,39,-1
 156 749 l 1,40,41
 161 629 161 629 156 521 c 1,42,-1
 206 536 l 1,43,-1
 206 557 l 1,44,-1
 386 557 l 1,45,-1
 386 442 l 1,46,-1
 189 442 l 1,47,-1
 135 467 l 1,48,49
 138 280 138 280 135 110 c 1,50,-1
 182 124 l 1,51,-1
 182 146 l 1,52,-1
 386 146 l 1,53,-1
 386 38 l 2,54,55
 386 7 386 7 403 -8 c 128,-1,56
 420 -23 420 -23 455 -23 c 2,57,-1
 821 -23 l 2,58,59
 822 -25 822 -25 825 -25 c 128,-1,60
 828 -25 828 -25 830 -25 c 0,61,62
 843 -25 843 -25 856 -22 c 128,-1,63
 869 -19 869 -19 881 -14 c 1,64,-1
 879 -16 l 1,65,66
 891 -7 891 -7 899.5 3.5 c 128,-1,67
 908 14 908 14 914 26 c 1,68,69
 902 32 902 32 893 40.5 c 128,-1,70
 884 49 884 49 878 61 c 0,71,72
 873 74 873 74 871 90 c 128,-1,73
 869 106 869 106 869 122 c 0,74,75
 869 130 869 130 869.5 136.5 c 128,-1,76
 870 143 870 143 870 149 c 1,77,-1
 857 149 l 1,78,79
 854 125 854 125 851.5 104 c 128,-1,80
 849 83 849 83 848 65 c 0,81,82
 846 49 846 49 837 35.5 c 128,-1,83
 828 22 828 22 813 16 c 1,84,-1
 560 16 l 1,85,-1
 560 146 l 1,86,-1
 773 146 l 1,87,-1
 773 121 l 1,88,-1
 822 136 l 1,89,90
 821 157 821 157 819.5 226.5 c 128,-1,91
 818 296 818 296 818 413 c 1,92,-1
 848 431 l 1,93,-1
 801 481 l 1,94,-1
 768 448 l 1,95,-1
 560 448 l 1,96,-1
 560 557 l 1,97,-1
 737 557 l 1,98,-1
 737 533 l 1,99,-1
 783 547 l 1,100,101
 782 563 782 563 781 601.5 c 128,-1,102
 780 640 780 640 780 698 c 1,103,-1
 809 718 l 1,36,-1
EndSplineSet
Validated: 37
EndChar

StartChar: uniE122
Encoding: 57634 57634 104
Width: 964
Flags: W
LayerCount: 2
Fore
SplineSet
189 373 m 1,0,-1
 636 373 l 1,1,-1
 560 446 l 1,2,-1
 506 397 l 1,3,-1
 189 397 l 1,4,-1
 189 653 l 1,5,-1
 749 653 l 1,6,-1
 749 119 l 1,7,-1
 189 119 l 1,8,-1
 189 373 l 1,0,-1
140 349 m 0,9,10
 140 241 140 241 140 159 c 128,-1,11
 140 77 140 77 137 22 c 1,12,-1
 191 47 l 1,13,-1
 191 95 l 1,14,-1
 749 95 l 1,15,-1
 749 26 l 1,16,-1
 803 56 l 1,17,18
 801 86 801 86 800 139 c 0,19,20
 798 190 798 190 798 263.5 c 128,-1,21
 798 337 798 337 798 431 c 2,22,-1
 798 644 l 1,23,-1
 830 668 l 1,24,-1
 773 716 l 1,25,-1
 737 676 l 1,26,-1
 189 676 l 1,27,-1
 135 712 l 1,28,29
 138 563 138 563 140 349 c 0,9,10
EndSplineSet
Validated: 9
EndChar

StartChar: uniE124
Encoding: 57636 57636 105
Width: 1107
Flags: W
LayerCount: 2
Fore
SplineSet
749 409 m 1,0,-1
 362 409 l 1,1,-1
 362 556 l 1,2,-1
 749 556 l 1,3,-1
 749 409 l 1,0,-1
749 578 m 1,4,-1
 362 578 l 1,5,-1
 362 722 l 1,6,-1
 749 722 l 1,7,-1
 749 578 l 1,4,-1
311 542 m 0,8,9
 311 476 311 476 311 423 c 128,-1,10
 311 370 311 370 308 328 c 1,11,-1
 362 353 l 1,12,-1
 362 386 l 1,13,-1
 528 386 l 1,14,-1
 528 245 l 1,15,-1
 135 245 l 1,16,-1
 167 209 l 1,17,18
 186 215 186 215 208 219 c 128,-1,19
 230 223 230 223 252 224 c 2,20,-1
 528 224 l 1,21,22
 528 155 528 155 528 88.5 c 128,-1,23
 528 22 528 22 525 -44 c 1,24,-1
 587 -11 l 1,25,26
 584 34 584 34 583 92.5 c 128,-1,27
 582 151 582 151 582 224 c 1,28,-1
 972 224 l 1,29,-1
 897 296 l 1,30,-1
 843 247 l 1,31,-1
 582 247 l 1,32,-1
 582 386 l 1,33,-1
 749 386 l 1,34,-1
 749 337 l 1,35,-1
 803 362 l 1,36,37
 800 446 800 446 800 703 c 1,38,-1
 833 731 l 1,39,-1
 774 778 l 1,40,-1
 741 742 l 1,41,-1
 366 742 l 1,42,-1
 308 773 l 1,43,44
 309 722 309 722 310 664.5 c 128,-1,45
 311 607 311 607 311 542 c 0,8,9
EndSplineSet
Validated: 9
EndChar

StartChar: uniE126
Encoding: 57638 57638 106
Width: 957
Flags: W
LayerCount: 2
Fore
SplineSet
494 68 m 1,0,-1
 494 697 l 1,1,-1
 525 722 l 1,2,-1
 438 763 l 1,3,4
 441 721 441 721 442 688.5 c 128,-1,5
 443 656 443 656 443 634 c 2,6,-1
 443 68 l 1,7,-1
 215 68 l 1,8,-1
 215 487 l 1,9,-1
 243 512 l 1,10,-1
 161 550 l 1,11,12
 161 515 161 515 162.5 489 c 128,-1,13
 164 463 164 463 164 445 c 2,14,-1
 164 86 l 1,15,-1
 135 61 l 1,16,-1
 185 11 l 1,17,-1
 218 47 l 1,18,-1
 738 47 l 1,19,-1
 738 -25 l 1,20,-1
 794 1 l 1,21,22
 794 29 794 29 791.5 54 c 128,-1,23
 789 79 789 79 789 100 c 2,24,-1
 789 476 l 1,25,-1
 822 509 l 1,26,-1
 735 550 l 1,27,28
 737 512 737 512 737.5 485 c 128,-1,29
 738 458 738 458 738 440 c 2,30,-1
 738 68 l 1,31,-1
 494 68 l 1,0,-1
EndSplineSet
Validated: 9
EndChar

StartChar: uniE128
Encoding: 57640 57640 107
Width: 927
Flags: W
LayerCount: 2
Fore
SplineSet
423 109 m 1,0,-1
 188 109 l 1,1,-1
 188 371 l 1,2,-1
 423 371 l 1,3,-1
 423 109 l 1,0,-1
713 394 m 1,4,-1
 474 394 l 1,5,-1
 474 668 l 1,6,-1
 713 668 l 1,7,-1
 713 394 l 1,4,-1
423 394 m 1,8,-1
 188 394 l 1,9,-1
 188 668 l 1,10,-1
 423 668 l 1,11,-1
 423 394 l 1,8,-1
713 109 m 1,12,-1
 474 109 l 1,13,-1
 474 371 l 1,14,-1
 713 371 l 1,15,-1
 713 109 l 1,12,-1
188 32 m 1,16,-1
 188 86 l 1,17,-1
 713 86 l 1,18,-1
 713 17 l 1,19,-1
 767 43 l 1,20,21
 765 74 765 74 764.5 105.5 c 128,-1,22
 764 137 764 137 764 170 c 2,23,-1
 764 658 l 1,24,-1
 792 679 l 1,25,-1
 735 728 l 1,26,-1
 707 688 l 1,27,-1
 192 688 l 1,28,-1
 135 722 l 1,29,30
 138 674 138 674 139 592.5 c 128,-1,31
 140 511 140 511 140 397 c 2,32,-1
 140 79 l 1,33,-1
 135 7 l 1,34,-1
 188 32 l 1,16,-1
EndSplineSet
Validated: 9
EndChar

StartChar: uniE12A
Encoding: 57642 57642 108
Width: 972
Flags: W
LayerCount: 2
Fore
SplineSet
416 -13 m 1,0,1
 416 -4 416 -4 416 7.5 c 128,-1,2
 416 19 416 19 416 32 c 2,3,-1
 416 230 l 1,4,-1
 444 256 l 1,5,-1
 389 299 l 1,6,-1
 360 263 l 1,7,-1
 210 263 l 1,8,-1
 210 496 l 1,9,-1
 363 496 l 1,10,-1
 363 460 l 1,11,-1
 413 485 l 1,12,-1
 413 707 l 1,13,-1
 443 734 l 1,14,-1
 359 775 l 1,15,16
 360 745 360 745 361 722.5 c 128,-1,17
 362 700 362 700 362 686 c 2,18,-1
 362 518 l 1,19,-1
 219 518 l 1,20,-1
 158 545 l 1,21,22
 161 508 161 508 161.5 442 c 128,-1,23
 162 376 162 376 162 280 c 1,24,-1
 135 257 l 1,25,-1
 185 209 l 1,26,-1
 215 241 l 1,27,-1
 362 241 l 1,28,-1
 362 170 l 2,29,30
 362 107 362 107 362 54 c 128,-1,31
 362 1 362 1 359 -41 c 1,32,-1
 416 -13 l 1,0,1
837 508 m 1,33,-1
 779 556 l 1,34,-1
 746 517 l 1,35,-1
 605 517 l 1,36,-1
 605 707 l 1,37,-1
 635 734 l 1,38,-1
 551 775 l 1,39,40
 551 745 551 745 552.5 724 c 128,-1,41
 554 703 554 703 554 688 c 2,42,-1
 554 526 l 1,43,-1
 528 503 l 1,44,-1
 582 464 l 1,45,-1
 608 496 l 1,46,-1
 756 496 l 1,47,-1
 756 265 l 1,48,-1
 608 265 l 1,49,-1
 555 299 l 1,50,-1
 555 173 l 2,51,52
 555 110 555 110 555 57.5 c 128,-1,53
 555 5 555 5 552 -37 c 1,54,-1
 608 -11 l 1,55,56
 608 -1 608 -1 608 14 c 128,-1,57
 608 29 608 29 608 47 c 2,58,-1
 608 245 l 1,59,-1
 761 245 l 1,60,-1
 761 212 l 1,61,-1
 815 238 l 1,62,63
 812 269 812 269 811 331.5 c 128,-1,64
 810 394 810 394 810 487 c 1,65,-1
 837 508 l 1,33,-1
EndSplineSet
Validated: 9
EndChar

StartChar: uniE12B
Encoding: 57643 57643 109
Width: 1099
Flags: W
LayerCount: 2
Fore
SplineSet
902 496 m 1,0,-1
 843 545 l 1,1,-1
 810 505 l 1,2,-1
 669 505 l 1,3,-1
 669 698 l 1,4,-1
 701 725 l 1,5,-1
 615 766 l 1,6,7
 615 736 615 736 616.5 713.5 c 128,-1,8
 618 691 618 691 618 677 c 2,9,-1
 618 518 l 1,10,-1
 594 496 l 1,11,-1
 648 457 l 1,12,-1
 672 488 l 1,13,-1
 821 488 l 1,14,-1
 821 257 l 1,15,-1
 672 257 l 1,16,-1
 620 289 l 1,17,-1
 620 4 l 1,18,-1
 479 4 l 1,19,-1
 479 220 l 1,20,-1
 507 245 l 1,21,-1
 453 295 l 1,22,-1
 425 257 l 1,23,-1
 275 257 l 1,24,-1
 275 490 l 1,25,-1
 428 490 l 1,26,-1
 428 454 l 1,27,-1
 477 479 l 1,28,-1
 477 698 l 1,29,-1
 507 725 l 1,30,-1
 423 766 l 1,31,32
 423 736 423 736 424.5 713.5 c 128,-1,33
 426 691 426 691 426 677 c 2,34,-1
 426 509 l 1,35,-1
 284 509 l 1,36,-1
 222 538 l 1,37,38
 225 500 225 500 226 432.5 c 128,-1,39
 227 365 227 365 227 271 c 1,40,-1
 200 250 l 1,41,-1
 249 203 l 1,42,-1
 278 235 l 1,43,-1
 426 235 l 1,44,-1
 426 4 l 1,45,-1
 135 4 l 1,46,-1
 167 -29 l 1,47,48
 186 -25 186 -25 207 -22 c 128,-1,49
 228 -19 228 -19 251 -19 c 0,50,51
 254 -19 254 -19 254 -19 c 1,52,-1
 965 -19 l 1,53,-1
 882 65 l 1,54,-1
 822 4 l 1,55,-1
 669 4 l 1,56,-1
 669 235 l 1,57,-1
 821 235 l 1,58,-1
 821 200 l 1,59,-1
 875 226 l 1,60,61
 873 257 873 257 872.5 320 c 128,-1,62
 872 383 872 383 872 475 c 1,63,-1
 902 496 l 1,0,-1
EndSplineSet
Validated: 9
EndChar

StartChar: uniE12D
Encoding: 57645 57645 110
Width: 1134
Flags: W
LayerCount: 2
Fore
SplineSet
695 446 m 1,0,-1
 692 439 l 1,1,2
 707 431 707 431 718 420 c 128,-1,3
 729 409 729 409 735 394 c 0,4,5
 741 380 741 380 746.5 377 c 128,-1,6
 752 374 752 374 756 382 c 0,7,8
 761 386 761 386 763 392 c 128,-1,9
 765 398 765 398 765 404 c 0,10,11
 765 406 765 406 765 408 c 128,-1,12
 765 410 765 410 764 412 c 0,13,14
 762 421 762 421 745 429 c 128,-1,15
 728 437 728 437 695 446 c 1,0,-1
720 218 m 1,16,-1
 717 205 l 1,17,18
 731 199 731 199 740.5 189 c 128,-1,19
 750 179 750 179 756 166 c 0,20,21
 762 154 762 154 767.5 151.5 c 128,-1,22
 773 149 773 149 779 155 c 0,23,24
 782 160 782 160 784 165 c 128,-1,25
 786 170 786 170 786 176 c 0,26,27
 786 178 786 178 785.5 181 c 128,-1,28
 785 184 785 184 785 185 c 0,29,30
 782 194 782 194 766 202.5 c 128,-1,31
 750 211 750 211 720 218 c 1,16,-1
656 328 m 1,32,33
 675 317 675 317 689.5 301.5 c 128,-1,34
 704 286 704 286 714 266 c 1,35,36
 701 245 701 245 686.5 225 c 128,-1,37
 672 205 672 205 656 182 c 1,38,-1
 656 328 l 1,32,33
656 718 m 1,39,-1
 815 718 l 1,40,-1
 815 610 l 1,41,-1
 656 610 l 1,42,-1
 656 718 l 1,39,-1
459 610 m 1,43,-1
 297 610 l 1,44,-1
 297 718 l 1,45,-1
 461 718 l 1,46,-1
 459 610 l 1,43,-1
390 13 m 1,47,48
 390 38 390 38 388.5 62 c 128,-1,49
 387 86 387 86 387 110 c 2,50,-1
 387 196 l 1,51,-1
 413 211 l 1,52,-1
 363 260 l 1,53,-1
 341 232 l 1,54,-1
 171 232 l 1,55,-1
 204 196 l 1,56,57
 219 199 219 199 238.5 202 c 128,-1,58
 258 205 258 205 278 206 c 2,59,-1
 341 206 l 1,60,-1
 341 131 l 1,61,-1
 140 131 l 1,62,-1
 176 98 l 1,63,64
 191 103 191 103 208 104.5 c 128,-1,65
 225 106 225 106 245 106 c 0,66,67
 246 106 246 106 248 106 c 2,68,-1
 341 106 l 1,69,-1
 341 41 l 1,70,-1
 168 41 l 1,71,-1
 200 8 l 1,72,73
 218 13 218 13 236.5 14.5 c 128,-1,74
 255 16 255 16 275 16 c 0,75,76
 276 16 276 16 276 16 c 1,77,-1
 341 16 l 1,78,-1
 341 -2 l 1,79,-1
 390 13 l 1,47,48
395 290 m 1,80,81
 395 310 395 310 392.5 358 c 128,-1,82
 390 406 390 406 390 482 c 1,83,-1
 416 493 l 1,84,-1
 362 536 l 1,85,-1
 341 508 l 1,86,-1
 171 508 l 1,87,-1
 204 475 l 1,88,89
 221 478 221 478 239.5 480 c 128,-1,90
 258 482 258 482 279 482 c 2,91,92
 279 482 279 482 281 482 c 2,93,-1
 341 482 l 1,94,-1
 341 410 l 1,95,-1
 135 410 l 1,96,-1
 171 374 l 1,97,98
 188 379 188 379 205 382 c 128,-1,99
 222 385 222 385 240 385 c 0,100,101
 242 385 242 385 243 385 c 2,102,-1
 341 385 l 1,103,-1
 341 331 l 1,104,-1
 176 331 l 1,105,-1
 207 295 l 1,106,107
 225 299 225 299 244 302 c 128,-1,108
 263 305 263 305 284 305 c 2,109,-1
 341 305 l 1,110,-1
 341 280 l 1,111,-1
 395 290 l 1,80,81
788 331 m 1,112,-1
 825 397 l 1,113,-1
 843 412 l 1,114,-1
 794 440 l 1,115,116
 789 413 789 413 780 388.5 c 128,-1,117
 771 364 771 364 758 343 c 1,118,119
 740 361 740 361 719.5 379 c 128,-1,120
 699 397 699 397 677 413 c 1,121,-1
 675 415 l 1,122,-1
 668 404 l 1,123,124
 695 373 695 373 714.5 350.5 c 128,-1,125
 734 328 734 328 744 313 c 1,126,-1
 726 281 l 1,127,128
 726 283 726 283 727 286 c 128,-1,129
 728 289 728 289 728 292 c 0,130,131
 728 301 728 301 724 309 c 128,-1,132
 720 317 720 317 714 323 c 0,133,134
 702 332 702 332 688 336.5 c 128,-1,135
 674 341 674 341 657 343 c 1,136,-1
 657 460 l 1,137,-1
 858 460 l 1,138,-1
 858 136 l 1,139,-1
 656 136 l 1,140,-1
 656 172 l 1,141,-1
 663 167 l 1,142,143
 690 194 690 194 715 223.5 c 128,-1,144
 740 253 740 253 759 284 c 2,145,-1
 761 287 l 1,146,147
 773 272 773 272 782 255 c 128,-1,148
 791 238 791 238 800 220 c 2,149,-1
 801 217 l 2,150,151
 806 203 806 203 812 200 c 128,-1,152
 818 197 818 197 824 203 c 256,153,154
 830 209 830 209 832 216.5 c 128,-1,155
 834 224 834 224 834 232 c 0,156,157
 834 235 834 235 834 237 c 128,-1,158
 834 239 834 239 833 242 c 0,159,160
 824 265 824 265 810.5 283 c 128,-1,161
 797 301 797 301 779 316 c 1,162,163
 792 311 792 311 803.5 303.5 c 128,-1,164
 815 296 815 296 822 286 c 0,165,166
 831 274 831 274 838 271 c 128,-1,167
 845 268 845 268 848 272 c 0,168,169
 851 277 851 277 851.5 281.5 c 128,-1,170
 852 286 852 286 852 292 c 0,171,172
 852 293 852 293 852 296 c 128,-1,173
 852 299 852 299 851 301 c 0,174,175
 849 310 849 310 833.5 317.5 c 128,-1,176
 818 325 818 325 788 331 c 1,112,-1
507 718 m 1,177,-1
 606 718 l 1,178,-1
 606 44 l 1,179,-1
 656 62 l 1,180,-1
 656 110 l 1,181,-1
 858 110 l 1,182,-1
 858 70 l 1,183,-1
 908 88 l 1,184,185
 906 118 906 118 905.5 209.5 c 128,-1,186
 905 301 905 301 905 457 c 1,187,-1
 933 475 l 1,188,-1
 875 524 l 1,189,-1
 843 487 l 1,190,-1
 656 487 l 1,191,-1
 656 586 l 1,192,-1
 815 586 l 1,193,-1
 815 560 l 1,194,-1
 869 586 l 1,195,196
 869 604 869 604 867.5 637.5 c 128,-1,197
 866 671 866 671 866 719 c 1,198,-1
 887 734 l 1,199,-1
 840 778 l 1,200,-1
 804 742 l 1,201,-1
 305 742 l 1,202,-1
 243 764 l 1,203,204
 243 739 243 739 244.5 714 c 128,-1,205
 246 689 246 689 246 665 c 256,206,207
 246 641 246 641 245.5 613.5 c 128,-1,208
 245 586 245 586 243 553 c 1,209,-1
 296 575 l 1,210,-1
 296 583 l 1,211,-1
 459 583 l 1,212,-1
 459 38 l 2,213,214
 459 1 459 1 481 -18.5 c 128,-1,215
 503 -38 503 -38 546 -38 c 2,216,-1
 897 -38 l 2,217,218
 899 -38 899 -38 899 -38 c 2,219,220
 912 -38 912 -38 925.5 -37.5 c 128,-1,221
 939 -37 939 -37 953 -34 c 1,222,-1
 951 -35 l 1,223,224
 963 -32 963 -32 976 -21.5 c 128,-1,225
 989 -11 989 -11 999 8 c 1,226,227
 984 14 984 14 972 26 c 128,-1,228
 960 38 960 38 956 53 c 0,229,230
 953 71 953 71 950.5 90 c 128,-1,231
 948 109 948 109 948 128 c 0,232,233
 948 131 948 131 948 134 c 128,-1,234
 948 137 948 137 950 139 c 1,235,-1
 932 139 l 1,236,237
 932 134 932 134 932.5 129.5 c 128,-1,238
 933 125 933 125 933 119 c 0,239,240
 933 95 933 95 930 72.5 c 128,-1,241
 927 50 927 50 923 28 c 1,242,-1
 923 31 l 1,243,244
 920 19 920 19 910 10.5 c 128,-1,245
 900 2 900 2 888 2 c 0,246,247
 887 2 887 2 885.5 3 c 128,-1,248
 884 4 884 4 882 4 c 2,249,-1
 566 4 l 2,250,251
 540 5 540 5 523.5 23 c 128,-1,252
 507 41 507 41 507 67 c 0,253,254
 507 68 507 68 507 69.5 c 128,-1,255
 507 71 507 71 507 73 c 2,256,-1
 507 718 l 1,177,-1
EndSplineSet
Validated: 9
EndChar

StartChar: uniE140
Encoding: 57664 57664 111
Width: 1075
Flags: W
LayerCount: 2
Fore
SplineSet
771 308 m 1,0,-1
 566 308 l 1,1,-1
 566 554 l 1,2,-1
 771 554 l 1,3,-1
 771 308 l 1,0,-1
515 308 m 1,4,-1
 312 308 l 1,5,-1
 312 554 l 1,6,-1
 515 554 l 1,7,-1
 515 308 l 1,4,-1
312 247 m 1,8,-1
 312 287 l 1,9,-1
 515 287 l 1,10,-1
 515 62 l 1,11,12
 189 52 189 52 135 55 c 1,13,-1
 165 -28 l 1,14,15
 207 -14 207 -14 254.5 -4.5 c 128,-1,16
 302 5 302 5 351 8 c 2,17,-1
 354 8 l 1,18,19
 392 13 392 13 440 19 c 0,20,21
 489 23 489 23 549 29 c 128,-1,22
 609 35 609 35 681 41 c 0,23,24
 753 49 753 49 837 55 c 1,25,26
 849 38 849 38 862 18.5 c 128,-1,27
 875 -1 875 -1 885 -20 c 2,28,-1
 887 -23 l 2,29,30
 891 -35 891 -35 896.5 -40.5 c 128,-1,31
 902 -46 902 -46 908 -46 c 256,32,33
 914 -46 914 -46 917.5 -42 c 128,-1,34
 921 -38 921 -38 927 -31 c 0,35,36
 933 -23 933 -23 937 -13.5 c 128,-1,37
 941 -4 941 -4 941 8 c 2,38,39
 941 8 941 8 941 9.5 c 128,-1,40
 941 11 941 11 941 13 c 0,41,42
 941 26 941 26 927.5 45.5 c 128,-1,43
 914 65 914 65 888 88 c 0,44,45
 846 122 846 122 799 154.5 c 128,-1,46
 752 187 752 187 701 215 c 2,47,-1
 695 218 l 1,48,-1
 684 208 l 1,49,50
 722 176 722 176 757 143 c 128,-1,51
 792 110 792 110 824 74 c 1,52,-1
 564 67 l 1,53,-1
 564 287 l 1,54,-1
 770 287 l 1,55,-1
 770 244 l 1,56,-1
 824 269 l 1,57,58
 822 364 822 364 821.5 431.5 c 128,-1,59
 821 499 821 499 821 536 c 1,60,-1
 857 557 l 1,61,-1
 800 616 l 1,62,-1
 759 577 l 1,63,-1
 563 577 l 1,64,-1
 563 710 l 1,65,-1
 608 736 l 1,66,-1
 510 782 l 1,67,68
 512 754 512 754 512.5 702 c 128,-1,69
 513 650 513 650 513 577 c 1,70,-1
 317 577 l 1,71,-1
 258 605 l 1,72,73
 258 557 258 557 259.5 510 c 128,-1,74
 261 463 261 463 261 413 c 0,75,76
 261 365 261 365 261 318 c 128,-1,77
 261 271 261 271 258 226 c 1,78,-1
 312 247 l 1,8,-1
EndSplineSet
Validated: 41
EndChar

StartChar: uniE142
Encoding: 57666 57666 112
Width: 973
Flags: W
LayerCount: 2
Fore
SplineSet
138 -35 m 1,0,1
 276 7 276 7 360 59.5 c 128,-1,2
 444 112 444 112 473 175 c 0,3,4
 501 239 501 239 517 338 c 128,-1,5
 533 437 533 437 533 572 c 1,6,-1
 564 598 l 1,7,-1
 474 641 l 1,8,9
 476 623 476 623 476 602 c 128,-1,10
 476 581 476 581 476 560 c 0,11,12
 476 503 476 503 473.5 448.5 c 128,-1,13
 471 394 471 394 467 338 c 1,14,-1
 467 349 l 1,15,16
 464 293 464 293 447.5 243 c 128,-1,17
 431 193 431 193 402 149 c 1,18,-1
 404 151 l 1,19,20
 351 70 351 70 135 -20 c 1,21,-1
 138 -35 l 1,0,1
797 718 m 1,22,-1
 741 772 l 1,23,-1
 705 736 l 1,24,-1
 318 736 l 1,25,-1
 261 764 l 1,26,27
 261 694 261 694 263.5 622.5 c 128,-1,28
 266 551 266 551 266 481 c 0,29,30
 266 409 266 409 263.5 339 c 128,-1,31
 261 269 261 269 261 200 c 1,32,-1
 315 221 l 1,33,-1
 315 715 l 1,34,-1
 710 715 l 1,35,-1
 710 221 l 1,36,-1
 764 247 l 1,37,38
 761 349 761 349 761 691 c 1,39,-1
 797 718 l 1,22,-1
561 190 m 1,40,41
 603 166 603 166 640 139.5 c 128,-1,42
 677 113 677 113 710 83 c 1,43,-1
 708 85 l 1,44,45
 731 64 731 64 751 42 c 128,-1,46
 771 20 771 20 791 -4 c 2,47,-1
 792 -5 l 2,48,49
 800 -14 800 -14 805 -18.5 c 128,-1,50
 810 -23 810 -23 813 -23 c 256,51,52
 816 -23 816 -23 824.5 -14 c 128,-1,53
 833 -5 833 -5 839 14 c 0,54,55
 845 32 845 32 831.5 54 c 128,-1,56
 818 76 818 76 785 98 c 0,57,58
 737 130 737 130 683 156 c 128,-1,59
 629 182 629 182 572 202 c 1,60,-1
 564 203 l 1,61,-1
 561 190 l 1,40,41
EndSplineSet
Validated: 41
EndChar

StartChar: uniE147
Encoding: 57671 57671 113
Width: 1008
Flags: W
LayerCount: 2
Fore
SplineSet
135 -5 m 1,0,-1
 189 23 l 1,1,-1
 189 688 l 1,2,-1
 360 688 l 1,3,-1
 360 388 l 1,4,-1
 335 367 l 1,5,-1
 384 323 l 1,6,-1
 408 352 l 1,7,-1
 567 352 l 1,8,-1
 567 302 l 1,9,-1
 617 328 l 1,10,-1
 617 688 l 1,11,-1
 794 688 l 1,12,-1
 794 4 l 1,13,-1
 848 25 l 1,14,15
 846 71 846 71 845.5 126 c 128,-1,16
 845 181 845 181 845 242 c 2,17,-1
 845 674 l 1,18,-1
 873 692 l 1,19,-1
 825 742 l 1,20,-1
 794 710 l 1,21,-1
 623 710 l 1,22,-1
 566 742 l 1,23,24
 569 670 569 670 569 374 c 1,25,-1
 410 374 l 1,26,-1
 410 677 l 1,27,-1
 435 692 l 1,28,-1
 387 740 l 1,29,-1
 354 707 l 1,30,-1
 194 707 l 1,31,-1
 135 742 l 1,32,33
 140 623 140 623 140 368 c 0,34,35
 138 113 138 113 135 -5 c 1,0,-1
EndSplineSet
Validated: 9
EndChar

